<svg width="360" height="640" viewBox="0 0 360 640" xmlns="http://www.w3.org/2000/svg" xmlns:xlink="http://www.w3.org/1999/xlink" style="background:#F5F5F5"><title>Sadhguru_Main</title><defs><path id="b" d="M0 0h360v44H0z"/><filter x="-3.3%" y="-18.2%" width="106.7%" height="154.5%" filterUnits="objectBoundingBox" id="a"><feOffset dy="4" in="SourceAlpha" result="shadowOffsetOuter1"/><feGaussianBlur stdDeviation="2" in="shadowOffsetOuter1" result="shadowBlurOuter1"/><feColorMatrix values="0 0 0 0 0 0 0 0 0 0 0 0 0 0 0 0 0 0 0.24 0" in="shadowBlurOuter1" result="shadowMatrixOuter1"/><feOffset in="SourceAlpha" result="shadowOffsetOuter2"/><feGaussianBlur stdDeviation="2" in="shadowOffsetOuter2" result="shadowBlurOuter2"/><feColorMatrix values="0 0 0 0 0 0 0 0 0 0 0 0 0 0 0 0 0 0 0.12 0" in="shadowBlurOuter2" result="shadowMatrixOuter2"/><feMerge><feMergeNode in="shadowMatrixOuter1"/><feMergeNode in="shadowMatrixOuter2"/></feMerge></filter><path id="d" d="M0 0h360v56H0z"/><filter x="-1.8%" y="-13.4%" width="103.6%" height="123.2%" filterUnits="objectBoundingBox" id="c"><feOffset dy="-1" in="SourceAlpha" result="shadowOffsetOuter1"/><feGaussianBlur stdDeviation="2" in="shadowOffsetOuter1" result="shadowBlurOuter1"/><feColorMatrix values="0 0 0 0 0.4 0 0 0 0 0.4 0 0 0 0 0.4 0 0 0 0.5 0" in="shadowBlurOuter1"/></filter></defs><g fill="none" fill-rule="evenodd"><g transform="translate(0 590)"><path fill="#000" d="M0 0h360v50H0z"/><circle stroke="#FFF" stroke-width="2" cx="180.5" cy="25.5" r="7.5"/><rect stroke="#FFF" stroke-width="2" x="273" y="18" width="14" height="14" rx="2"/><path d="M85.242 17.218c.97-.53 1.758-.072 1.758 1.04v13.444c0 1.105-.793 1.57-1.758 1.045l-12.484-6.79c-.97-.53-.965-1.39 0-1.918l12.484-6.822z" stroke="#FFF" stroke-width="2"/></g><g transform="translate(0 79)"><use fill="#000" filter="url(#a)" xlink:href="#b"/><use fill="#FFF" xlink:href="#b"/></g><text font-family="FedraSansStd-Demi, Fedra Sans Std" font-size="13" font-weight="500" letter-spacing="-.2" fill="#9B9B9B" transform="translate(191 92.985)"><tspan x=".819" y="19">LISTEN</tspan></text><g transform="translate(240 92.985)"><rect fill="#C1C1C1" x="3" y="5" width="22" height="18" rx="9"/><text font-family="FedraSansStd-Demi, Fedra Sans Std" font-size="12" font-weight="500" fill="#FFF"><tspan x="7.39" y="18">20</tspan></text></g><path d="M181.826 123.39H271v-1.936H181v1.937"/><text transform="translate(297 101.876)" font-size="13" font-family="FedraSansStd-Demi, Fedra Sans Std" letter-spacing="-.2" fill="#9B9B9B" font-weight="500"><tspan x=".116" y="10">MEET</tspan></text><path d="M270.826 123.39H360v-1.936H270v1.937"/><text font-family="FedraSansStd-Demi, Fedra Sans Std" font-size="13" font-weight="500" letter-spacing="-.2" fill="#9B9B9B" transform="translate(105 92.985)"><tspan x=".558" y="19">READ</tspan></text><g transform="translate(150 92.985)"><rect fill="#C1C1C1" x="3" y="5" width="22" height="18" rx="9"/><text font-family="FedraSansStd-Demi, Fedra Sans Std" font-size="12" font-weight="500" fill="#FFF"><tspan x="10.984" y="18">4</tspan></text></g><path d="M91.826 123.39H181v-1.936H91v1.937"/><g><g transform="translate(9 92.39)"><text font-family="FedraSansStd-Demi, Fedra Sans Std" font-size="13" font-weight="500" letter-spacing="-.2" fill="#000"><tspan x=".333" y="19">WATCH</tspan></text><rect fill="#4A4A4A" x="54" y="6" width="22" height="18" rx="9"/><text font-family="FedraSansStd-Demi, Fedra Sans Std" font-size="12" font-weight="500" fill="#FFF"><tspan x="60.388" y="18">12</tspan></text></g><path fill="#000" fill-rule="nonzero" d="M1.826 123.39H91v-1.936H1v1.937"/></g><g><path fill="#B8B8B8" d="M11 139h161v90H11z"/><text font-family="FontAwesome" font-size="36" fill="#9B9B9B" transform="translate(11 137)"><tspan x="5" y="35"></tspan></text><text font-family="FedraSansStd-Book, Fedra Sans Std" font-size="11" font-weight="300" letter-spacing="-.2" fill="#FFF" transform="translate(11 137)"><tspan x="10.064" y="25">new</tspan></text><text font-family="FontAwesome" font-size="48" fill="#9B9B9B" transform="translate(11 137)"><tspan x="60" y="65"></tspan></text><text font-family="FedraSansStd-Book, Fedra Sans Std" font-size="15" font-weight="300" letter-spacing="-.2" fill="#000" transform="translate(11 137)"><tspan x="169" y="12">Ancient Wisdom in </tspan> <tspan x="169" y="32">Modern Times - In </tspan> <tspan x="169" y="52">Conversation with ..</tspan></text><text font-family="FedraSansStd-Book, Fedra Sans Std" font-size="13" font-weight="300" letter-spacing="-.173" fill="#4A4A4A" transform="translate(11 137)"><tspan x="169" y="73">04:32</tspan></text></g><g><path fill="#B8B8B8" d="M11 249h161v90H11z"/><text font-family="FontAwesome" font-size="36" fill="#9B9B9B" transform="translate(11 247)"><tspan x="5" y="35"></tspan></text><text font-family="FedraSansStd-Book, Fedra Sans Std" font-size="11" font-weight="300" letter-spacing="-.2" fill="#FFF" transform="translate(11 247)"><tspan x="10.064" y="25">new</tspan></text><text font-family="FontAwesome" font-size="48" fill="#9B9B9B" transform="translate(11 247)"><tspan x="60" y="65"></tspan></text><text font-family="FedraSansStd-Book, Fedra Sans Std" font-size="15" font-weight="300" letter-spacing="-.2" fill="#000" transform="translate(11 247)"><tspan x="169" y="12">India&apos;s Common </tspan> <tspan x="169" y="32">Thread</tspan></text><text font-family="FedraSansStd-Book, Fedra Sans Std" font-size="13" font-weight="300" letter-spacing="-.173" fill="#4A4A4A" transform="translate(11 247)"><tspan x="169" y="73">6.35</tspan></text></g><g><path fill="#B8B8B8" d="M11 359h161v90H11z"/><text font-family="FontAwesome" font-size="36" fill="#9B9B9B" transform="translate(11 357)"><tspan x="5" y="35"></tspan></text><text font-family="FedraSansStd-Book, Fedra Sans Std" font-size="11" font-weight="300" letter-spacing="-.2" fill="#FFF" transform="translate(11 357)"><tspan x="10.064" y="25">new</tspan></text><text font-family="FontAwesome" font-size="48" fill="#9B9B9B" transform="translate(11 357)"><tspan x="60" y="65"></tspan></text><text font-family="FedraSansStd-Book, Fedra Sans Std" font-size="15" font-weight="300" letter-spacing="-.2" fill="#000" transform="translate(11 357)"><tspan x="169" y="12">Karma and Memory</tspan></text><text font-family="FedraSansStd-Book, Fedra Sans Std" font-size="13" font-weight="300" letter-spacing="-.173" fill="#4A4A4A" transform="translate(11 357)"><tspan x="169" y="73">10:09</tspan></text></g><g><path fill="#B8B8B8" d="M11 469h161v90H11z"/><text font-family="FontAwesome" font-size="36" fill="#9B9B9B" transform="translate(11 467)"><tspan x="5" y="35"></tspan></text><text font-family="FedraSansStd-Book, Fedra Sans Std" font-size="11" font-weight="300" letter-spacing="-.2" fill="#FFF" transform="translate(11 467)"><tspan x="10.064" y="25">new</tspan></text><text font-family="FontAwesome" font-size="48" fill="#9B9B9B" transform="translate(11 467)"><tspan x="60" y="65"></tspan></text><text font-family="FedraSansStd-Book, Fedra Sans Std" font-size="15" font-weight="300" letter-spacing="-.2" fill="#000" transform="translate(11 467)"><tspan x="169" y="12">Shambhavi </tspan> <tspan x="169" y="32">Mahamudra - A True </tspan> <tspan x="169" y="52">Miracle</tspan></text><text font-family="FedraSansStd-Book, Fedra Sans Std" font-size="13" font-weight="300" letter-spacing="-.173" fill="#4A4A4A" transform="translate(11 467)"><tspan x="169" y="73">8: 18</tspan></text></g><g><g transform="translate(-1 533)"><use fill="#000" filter="url(#c)" xlink:href="#d"/><use fill="#FFF" xlink:href="#d"/></g><g transform="translate(16 538.095)"><ellipse fill="#C5C5C5" cx="19" cy="12.235" rx="12" ry="12.235"/><text opacity=".5" font-family="FedraSansStd-Demi, Fedra Sans Std" font-size="13" font-weight="500" fill="#4A4A4A"><tspan x=".196" y="44.794">Home</tspan></text></g><g transform="translate(76.208 538.095)"><ellipse fill="#4A4A4A" cx="32.292" cy="12.235" rx="12.5" ry="12.235"/><text font-family="FedraSansStd-Demi, Fedra Sans Std" font-size="13" font-weight="500" letter-spacing=".2" fill="#000"><tspan x="2.32" y="44.794">Sadhguru</tspan></text></g><g transform="translate(165 538.095)"><ellipse fill="#C5C5C5" cx="16" cy="12.235" rx="12" ry="12.235"/><text opacity=".5" font-family="FedraSansStd-Demi, Fedra Sans Std" font-size="13" font-weight="500" fill="#4A4A4A"><tspan x=".419" y="44.794">Yoga</tspan></text></g><g transform="translate(300 538.095)"><ellipse fill="#C5C5C5" cx="23" cy="12.235" rx="12" ry="12.235"/><text opacity=".5" font-family="FedraSansStd-Demi, Fedra Sans Std" font-size="13" font-weight="500" fill="#4A4A4A"><tspan x=".029" y="44.794">Donate</tspan></text></g><g transform="translate(237 538.095)"><ellipse fill="#C5C5C5" cx="14" cy="12.235" rx="12" ry="12.235"/><text opacity=".5" font-family="FedraSansStd-Demi, Fedra Sans Std" font-size="13" font-weight="500" fill="#4A4A4A"><tspan x=".376" y="44.794">Visit</tspan></text></g></g><circle fill="#212529" cx="123" cy="546" r="9"/><text font-family="SFUIDisplay-Regular, SF UI Display" font-size="9" letter-spacing="-.129" fill="#FFF"><tspan x="118" y="549">36</tspan></text><g><path fill="#FFF" d="M0 0h360v80H0z"/><path d="M335 56.104c.624 0 1.208-.16 1.752-.48.544-.32.976-.748 1.296-1.284.32-.536.48-1.116.48-1.74 0-.624-.16-1.208-.48-1.752-.32-.544-.752-.976-1.296-1.296-.544-.32-1.128-.48-1.752-.48-.624 0-1.204.16-1.74.48-.536.32-.964.752-1.284 1.296-.32.544-.48 1.128-.48 1.752 0 .624.16 1.204.48 1.74.32.536.748.964 1.284 1.284.536.32 1.116.48 1.74.48zm7.464-2.52l2.088 1.632c.096.08.152.184.168.312.016.128-.008.248-.072.36l-2.016 3.456c-.064.112-.148.184-.252.216-.104.032-.22.024-.348-.024l-2.472-.984c-.64.464-1.208.792-1.704.984l-.36 2.616c-.032.128-.092.232-.18.312-.088.08-.188.12-.3.12h-4.032c-.112 0-.212-.04-.3-.12-.088-.08-.14-.184-.156-.312l-.384-2.616c-.672-.272-1.232-.6-1.68-.984l-2.496.984c-.256.112-.456.048-.6-.192l-2.016-3.456c-.064-.112-.088-.232-.072-.36.016-.128.072-.232.168-.312l2.112-1.632c-.032-.224-.048-.552-.048-.984 0-.432.016-.76.048-.984l-2.112-1.632c-.096-.08-.152-.184-.168-.312-.016-.128.008-.248.072-.36l2.016-3.456c.144-.24.344-.304.6-.192l2.496.984c.576-.432 1.136-.76 1.68-.984l.384-2.616c.016-.128.068-.232.156-.312.088-.08.188-.12.3-.12h4.032c.112 0 .212.04.3.12.088.08.148.184.18.312l.36 2.616c.624.24 1.192.568 1.704.984l2.472-.984c.128-.048.244-.056.348-.024.104.032.188.104.252.216l2.016 3.456c.064.112.088.232.072.36-.016.128-.072.232-.168.312l-2.088 1.632c.032.224.048.552.048.984 0 .432-.016.76-.048.984z" fill="#9B9B9B"/><path fill-opacity=".2" fill="#000" d="M0 0h360v24H0z"/><path d="M323.127 16.5h-1.18V8.673l-2.368.87V8.477l3.363-1.264h.184V16.5zm9.497 0h-6.056v-.844l3.2-3.555c.473-.536.8-.973.98-1.31.18-.336.27-.684.27-1.044 0-.482-.146-.878-.438-1.187-.292-.31-.682-.464-1.168-.464-.584 0-1.038.166-1.362.498-.324.332-.486.795-.486 1.387h-1.174c0-.85.274-1.537.822-2.062.548-.525 1.28-.787 2.2-.787.86 0 1.538.226 2.037.677.5.45.748 1.05.748 1.8 0 .91-.58 1.993-1.74 3.25l-2.475 2.685h4.64v.958zm1.326-.616c0-.203.06-.372.18-.508.122-.135.303-.203.544-.203.24 0 .424.068.55.203.124.136.186.305.186.508 0 .195-.062.358-.187.49-.125.13-.308.196-.55.196-.24 0-.42-.066-.542-.197-.12-.13-.18-.294-.18-.49zm.007-5.605c0-.204.06-.373.18-.51.12-.134.302-.202.543-.202.24 0 .424.068.55.203.124.137.187.306.187.51 0 .194-.063.357-.188.488-.126.13-.31.197-.55.197-.24 0-.422-.066-.543-.197-.12-.13-.18-.294-.18-.49zm4.767 1.028h.882c.554-.01.99-.155 1.308-.438.317-.284.476-.667.476-1.15 0-1.083-.54-1.624-1.62-1.624-.507 0-.912.145-1.215.435-.302.29-.453.674-.453 1.153h-1.175c0-.732.268-1.34.803-1.825.536-.485 1.216-.727 2.04-.727.873 0 1.556.23 2.05.693.496.46.744 1.102.744 1.923 0 .402-.13.79-.39 1.168-.26.377-.615.658-1.064.844.508.16.9.428 1.178.8.277.373.416.827.416 1.365 0 .83-.27 1.487-.813 1.974-.54.487-1.245.73-2.113.73-.867 0-1.573-.235-2.117-.705-.543-.47-.815-1.09-.815-1.86h1.18c0 .487.16.876.476 1.168.32.292.744.438 1.277.438.567 0 1-.148 1.302-.444.3-.296.45-.72.45-1.276 0-.537-.166-.95-.496-1.238-.33-.287-.806-.435-1.428-.444h-.882v-.958zm11.387 1.25c0 1.375-.234 2.397-.703 3.066-.47.67-1.204 1.003-2.203 1.003-.986 0-1.716-.327-2.19-.98-.474-.655-.72-1.63-.736-2.93V11.15c0-1.36.235-2.37.704-3.03.47-.66 1.206-.99 2.21-.99.994 0 1.726.32 2.196.956.47.637.71 1.62.723 2.95v1.522zm-1.173-1.606c0-.994-.14-1.72-.42-2.174-.278-.455-.72-.682-1.326-.682-.6 0-1.037.226-1.313.68-.275.452-.416 1.148-.425 2.087v1.88c0 .998.145 1.735.435 2.21.29.477.73.715 1.317.715.58 0 1.01-.224 1.292-.672.28-.45.428-1.156.44-2.12V10.95z" fill="#FFF"/><path d="M303.49 5.52h-2.23c-.144 0-.26.115-.26.256v12.967c0 .142.114.257.26.257h8.48c.144 0 .26-.117.26-.257V5.776c0-.142-.114-.257-.26-.257h-2.262v-.28c0-.132-.115-.24-.25-.24h-3.487c-.137 0-.25.11-.25.24v.28z" fill="#D8D8D8" opacity=".357"/><path d="M301 12.26v6.484c0 .14.114.256.26.256h8.48c.144 0 .26-.117.26-.256V12.26h-9z" fill-opacity=".9" fill="#FFF" opacity=".9"/><path fill-opacity=".3" fill="#D8D8D8" d="M276 18h12V6"/><path fill="#FFF" d="M276 18h6v-6"/><g fill="#FFF"><path d="M258 18l7-10s-2.14-1.947-7-1.947c-4.86 0-7 1.947-7 1.947l7 10z" fill-opacity=".3"/><path d="M258 18l5-7.083s-1.53-1.38-5-1.38c-3.47 0-5 1.38-5 1.38L258 18z"/></g><text font-family="FedraSansStd-Demi, Fedra Sans Std" font-size="17" font-weight="500" letter-spacing="-.17" fill="#2E2E2E"><tspan x="22" y="60">Sadhguru</tspan></text><path d="M303.188 54.728h-.775l-.268-.267c.95-1.107 1.528-2.545 1.528-4.12 0-3.502-2.837-6.34-6.337-6.34-3.5 0-6.336 2.838-6.336 6.34 0 3.5 2.837 6.34 6.336 6.34 1.574 0 3.01-.58 4.12-1.53l.268.27v.772l4.873 4.867 1.453-1.455-4.862-4.877zm-5.852 0c-2.423 0-4.386-1.964-4.386-4.39 0-2.423 1.963-4.388 4.386-4.388s4.387 1.965 4.387 4.39c0 2.424-1.964 4.388-4.387 4.388z" fill-opacity=".5" fill="#000"/></g></g></svg>