<svg width="493" height="423" viewBox="0 0 493 423" xmlns="http://www.w3.org/2000/svg" xmlns:xlink="http://www.w3.org/1999/xlink"><title>pcc</title><defs><linearGradient x1="0%" y1="0%" x2="102%" y2="101%" id="a"><stop stop-color="#3023AE" offset="0%"/><stop stop-color="#C86DD7" offset="100%"/></linearGradient><linearGradient x1="85.713%" y1="16.144%" x2="20.647%" y2="87.346%" id="b"><stop stop-color="#1FB2DB" offset="0%"/><stop stop-color="#00959D" offset="100%"/></linearGradient><linearGradient x1="27.476%" y1="7.172%" x2="71.289%" y2="90.843%" id="c"><stop stop-color="#F5515F" offset="0%"/><stop stop-color="#D545E1" offset="100%"/></linearGradient><path d="M201.67 77.256v-1.584h9.036v1.584l-2.952.54v11.196c0 2.184.174 3.846.522 4.986.348 1.14.972 1.944 1.872 2.412.9.468 2.214.702 3.942.702 2.16 0 3.66-.654 4.5-1.962.84-1.308 1.26-3.354 1.26-6.138V77.868l-2.952-.576v-1.62h8.244v1.62l-2.952.576v11.124c0 2.424-.258 4.386-.774 5.886s-1.44 2.64-2.772 3.42c-1.332.78-3.222 1.17-5.67 1.17-2.232 0-3.948-.384-5.148-1.152-1.2-.768-2.034-1.896-2.502-3.384-.468-1.488-.702-3.468-.702-5.94V77.796l-2.952-.54zm27.72 16.272l.504 2.808c.36.264.834.498 1.422.702.588.204 1.254.306 1.998.306 1.392 0 2.358-.276 2.898-.828.54-.552.81-1.32.81-2.304 0-.624-.174-1.128-.522-1.512-.348-.384-.78-.678-1.296-.882-.516-.204-1.23-.426-2.142-.666-1.152-.288-2.094-.588-2.826-.9-.732-.312-1.356-.816-1.872-1.512-.516-.696-.774-1.632-.774-2.808 0-1.632.612-2.886 1.836-3.762 1.224-.876 2.796-1.314 4.716-1.314 1.032 0 2.052.108 3.06.324 1.008.216 1.704.432 2.088.648l-.504 4.5h-1.476l-.504-2.88c0-.024-.348-.12-1.044-.288-.696-.168-1.332-.252-1.908-.252-1.296 0-2.202.21-2.718.63-.516.42-.774 1.086-.774 1.998 0 .552.168 1.002.504 1.35.336.348.75.618 1.242.81.492.192 1.182.408 2.07.648 1.176.312 2.142.636 2.898.972.756.336 1.404.858 1.944 1.566.54.708.81 1.662.81 2.862 0 1.992-.618 3.42-1.854 4.284-1.236.864-2.838 1.296-4.806 1.296-1.176 0-2.316-.156-3.42-.468-1.104-.312-1.86-.624-2.268-.936l.432-4.392h1.476zm14.76 3.348c-1.32-1.632-1.98-3.72-1.98-6.264 0-1.896.342-3.582 1.026-5.058.684-1.476 1.638-2.628 2.862-3.456 1.224-.828 2.604-1.242 4.14-1.242 1.968 0 3.444.636 4.428 1.908.984 1.272 1.476 2.82 1.476 4.644 0 1.272-.12 2.124-.36 2.556-.24.432-.696.648-1.368.648h-9.036c0 1.824.45 3.312 1.35 4.464.9 1.152 2.334 1.728 4.302 1.728.84 0 1.578-.066 2.214-.198.636-.132 1.128-.264 1.476-.396.348-.132.558-.222.63-.27l.504 1.008c0 .048-.27.282-.81.702s-1.248.804-2.124 1.152c-.876.348-1.866.522-2.97.522-2.52 0-4.44-.816-5.76-2.448zm8.928-8.208c.072-.432.108-.912.108-1.44 0-1.44-.258-2.514-.774-3.222-.516-.708-1.434-1.062-2.754-1.062-1.44 0-2.508.504-3.204 1.512-.696 1.008-1.056 2.508-1.08 4.5l7.704-.288zm8.28 8.352V84.024l-2.808-.504v-1.476l5.184-.972.576 1.98c.12-.12.408-.354.864-.702s.984-.684 1.584-1.008c.6-.324 1.14-.486 1.62-.486.48 0 .864.162 1.152.486.288.324.432.75.432 1.278 0 .384-.078.72-.234 1.008-.156.288-.324.51-.504.666-.18.156-.294.246-.342.27l-1.656-.432c-.24-.072-.456-.12-.648-.144-.192-.024-.408-.036-.648-.036-.336 0-.684.042-1.044.126-.36.084-.552.126-.576.126v12.78l3.312.468V99h-8.748v-1.476l2.484-.504zm26.424 2.34c-2.376 0-4.344-.486-5.904-1.458-1.56-.972-2.34-2.634-2.34-4.986 0-1.656.48-3.006 1.44-4.05s1.992-1.83 3.096-2.358c-.96-1.032-1.668-1.974-2.124-2.826-.456-.852-.684-1.758-.684-2.718 0-1.656.576-3.024 1.728-4.104 1.152-1.08 2.772-1.62 4.86-1.62 1.056 0 2.058.108 3.006.324.948.216 1.698.444 2.25.684v5.328h-1.764l-.72-3.672c-.048-.024-.192-.084-.432-.18-.24-.096-.588-.186-1.044-.27-.456-.084-.996-.126-1.62-.126-1.272 0-2.172.27-2.7.81s-.792 1.35-.792 2.43c0 .792.168 1.44.504 1.944.336.504 1.092 1.368 2.268 2.592l7.848 8.136c.336-.816.504-1.74.504-2.772 0-.744-.042-1.38-.126-1.908-.084-.528-.174-.912-.27-1.152l-2.988-.576v-1.62h4.896c.456 1.32.684 3.06.684 5.22 0 1.56-.396 3.024-1.188 4.392l1.98 2.016 2.772.612V99h-3.096c-.984 0-1.836-.36-2.556-1.08l-.9-.9c-1.752 1.56-3.948 2.34-6.588 2.34zm-4.302-9.954c-.516.78-.774 1.782-.774 3.006 0 1.632.402 2.826 1.206 3.582.804.756 2.25 1.134 4.338 1.134 1.92 0 3.492-.516 4.716-1.548l-7.776-7.956c-.624.408-1.194 1.002-1.71 1.782zm-98.388 54.046l2.988-.612v-19.008l-2.988-.612v-1.548h9.432c2.256 0 4.044.504 5.364 1.512 1.32 1.008 1.98 2.376 1.98 4.104 0 1.344-.33 2.436-.99 3.276-.66.84-1.71 1.512-3.15 2.016 1.536.312 2.814 1.038 3.834 2.178s1.53 2.418 1.53 3.834c0 2.016-.708 3.588-2.124 4.716-1.416 1.128-3.384 1.692-5.904 1.692h-9.972v-1.548zm7.92-11.304c1.824 0 3.21-.414 4.158-1.242.948-.828 1.422-2.022 1.422-3.582 0-2.376-1.596-3.564-4.788-3.564-.864 0-1.74.06-2.628.18v8.208h1.836zm5.22 9.702c.864-.78 1.296-1.902 1.296-3.366 0-1.536-.462-2.646-1.386-3.33-.924-.684-2.43-1.026-4.518-1.026h-2.448v8.676c.912.144 2.016.216 3.312.216 1.632 0 2.88-.39 3.744-1.17zm10.962 2.178c-.924-.864-1.386-2.088-1.386-3.672v-10.62l-2.988-.504v-1.368l4.932-1.008 1.008.504v11.448c0 1.56.288 2.646.864 3.258.576.612 1.596.918 3.06.918.504 0 1.086-.096 1.746-.288.66-.192 1.242-.432 1.746-.72v-12.24l-2.952-.504v-1.368l4.932-1.008 1.008.504v15.084l2.556.576v1.368l-5.004.72-.54-1.8-.036.036c-.528.6-1.26 1.08-2.196 1.44-.936.36-1.884.54-2.844.54-1.68 0-2.982-.432-3.906-1.296zm18.414-4.5l.504 2.808c.36.264.834.498 1.422.702.588.204 1.254.306 1.998.306 1.392 0 2.358-.276 2.898-.828.54-.552.81-1.32.81-2.304 0-.624-.174-1.128-.522-1.512-.348-.384-.78-.678-1.296-.882-.516-.204-1.23-.426-2.142-.666-1.152-.288-2.094-.588-2.826-.9-.732-.312-1.356-.816-1.872-1.512-.516-.696-.774-1.632-.774-2.808 0-1.632.612-2.886 1.836-3.762 1.224-.876 2.796-1.314 4.716-1.314 1.032 0 2.052.108 3.06.324 1.008.216 1.704.432 2.088.648l-.504 4.5h-1.476l-.504-2.88c0-.024-.348-.12-1.044-.288-.696-.168-1.332-.252-1.908-.252-1.296 0-2.202.21-2.718.63-.516.42-.774 1.086-.774 1.998 0 .552.168 1.002.504 1.35.336.348.75.618 1.242.81.492.192 1.182.408 2.07.648 1.176.312 2.142.636 2.898.972.756.336 1.404.858 1.944 1.566.54.708.81 1.662.81 2.862 0 1.992-.618 3.42-1.854 4.284-1.236.864-2.838 1.296-4.806 1.296-1.176 0-2.316-.156-3.42-.468-1.104-.312-1.86-.624-2.268-.936l.432-4.392h1.476zm15.426-15.588c-.372-.408-.558-.948-.558-1.62 0-.648.21-1.206.63-1.674.42-.468.942-.702 1.566-.702.624 0 1.116.192 1.476.576.36.384.54.912.54 1.584s-.198 1.248-.594 1.728c-.396.48-.93.72-1.602.72-.6 0-1.086-.204-1.458-.612zm-2.538 19.584l2.88-.504v-12.816l-2.88-.504v-1.476l5.004-1.008.828.324v15.48l2.808.504V145h-8.64v-1.476zm10.476 0l2.88-.504v-12.816l-2.88-.504v-1.476l5.364-1.008.288 1.188.072.216c2.184-1.176 4.104-1.764 5.76-1.764 1.488 0 2.646.432 3.474 1.296.828.864 1.242 2.076 1.242 3.636v11.232l2.88.504V145h-8.64v-1.476l2.808-.504v-10.728c0-1.032-.3-1.776-.9-2.232-.6-.456-1.56-.684-2.88-.684-.624 0-1.284.042-1.98.126-.696.084-1.248.186-1.656.306v13.212l2.808.504V145h-8.64v-1.476zm22.68-.648c-1.32-1.632-1.98-3.72-1.98-6.264 0-1.896.342-3.582 1.026-5.058.684-1.476 1.638-2.628 2.862-3.456 1.224-.828 2.604-1.242 4.14-1.242 1.968 0 3.444.636 4.428 1.908.984 1.272 1.476 2.82 1.476 4.644 0 1.272-.12 2.124-.36 2.556-.24.432-.696.648-1.368.648h-9.036c0 1.824.45 3.312 1.35 4.464.9 1.152 2.334 1.728 4.302 1.728.84 0 1.578-.066 2.214-.198.636-.132 1.128-.264 1.476-.396.348-.132.558-.222.63-.27l.504 1.008c0 .048-.27.282-.81.702s-1.248.804-2.124 1.152c-.876.348-1.866.522-2.97.522-2.52 0-4.44-.816-5.76-2.448zm8.928-8.208c.072-.432.108-.912.108-1.44 0-1.44-.258-2.514-.774-3.222-.516-.708-1.434-1.062-2.754-1.062-1.44 0-2.508.504-3.204 1.512-.696 1.008-1.056 2.508-1.08 4.5l7.704-.288zm7.704 4.86l.504 2.808c.36.264.834.498 1.422.702.588.204 1.254.306 1.998.306 1.392 0 2.358-.276 2.898-.828.54-.552.81-1.32.81-2.304 0-.624-.174-1.128-.522-1.512-.348-.384-.78-.678-1.296-.882-.516-.204-1.23-.426-2.142-.666-1.152-.288-2.094-.588-2.826-.9-.732-.312-1.356-.816-1.872-1.512-.516-.696-.774-1.632-.774-2.808 0-1.632.612-2.886 1.836-3.762 1.224-.876 2.796-1.314 4.716-1.314 1.032 0 2.052.108 3.06.324 1.008.216 1.704.432 2.088.648l-.504 4.5h-1.476l-.504-2.88c0-.024-.348-.12-1.044-.288-.696-.168-1.332-.252-1.908-.252-1.296 0-2.202.21-2.718.63-.516.42-.774 1.086-.774 1.998 0 .552.168 1.002.504 1.35.336.348.75.618 1.242.81.492.192 1.182.408 2.07.648 1.176.312 2.142.636 2.898.972.756.336 1.404.858 1.944 1.566.54.708.81 1.662.81 2.862 0 1.992-.618 3.42-1.854 4.284-1.236.864-2.838 1.296-4.806 1.296-1.176 0-2.316-.156-3.42-.468-1.104-.312-1.86-.624-2.268-.936l.432-4.392h1.476zm14.868 0l.504 2.808c.36.264.834.498 1.422.702.588.204 1.254.306 1.998.306 1.392 0 2.358-.276 2.898-.828.54-.552.81-1.32.81-2.304 0-.624-.174-1.128-.522-1.512-.348-.384-.78-.678-1.296-.882-.516-.204-1.23-.426-2.142-.666-1.152-.288-2.094-.588-2.826-.9-.732-.312-1.356-.816-1.872-1.512-.516-.696-.774-1.632-.774-2.808 0-1.632.612-2.886 1.836-3.762 1.224-.876 2.796-1.314 4.716-1.314 1.032 0 2.052.108 3.06.324 1.008.216 1.704.432 2.088.648l-.504 4.5h-1.476l-.504-2.88c0-.024-.348-.12-1.044-.288-.696-.168-1.332-.252-1.908-.252-1.296 0-2.202.21-2.718.63-.516.42-.774 1.086-.774 1.998 0 .552.168 1.002.504 1.35.336.348.75.618 1.242.81.492.192 1.182.408 2.07.648 1.176.312 2.142.636 2.898.972.756.336 1.404.858 1.944 1.566.54.708.81 1.662.81 2.862 0 1.992-.618 3.42-1.854 4.284-1.236.864-2.838 1.296-4.806 1.296-1.176 0-2.316-.156-3.42-.468-1.104-.312-1.86-.624-2.268-.936l.432-4.392h1.476zM205.252 191v-1.512l2.52-.576V169.76l-2.34-.504v-1.584h5.508l11.34 17.964.468.72h.324V169.76l-2.484-.576v-1.512h7.164v1.512l-2.484.576V191h-3.312l-11.7-18.576h-.324v16.488l2.52.576V191h-7.2zm27.072-2.124c-1.32-1.632-1.98-3.72-1.98-6.264 0-1.896.342-3.582 1.026-5.058.684-1.476 1.638-2.628 2.862-3.456 1.224-.828 2.604-1.242 4.14-1.242 1.968 0 3.444.636 4.428 1.908.984 1.272 1.476 2.82 1.476 4.644 0 1.272-.12 2.124-.36 2.556-.24.432-.696.648-1.368.648h-9.036c0 1.824.45 3.312 1.35 4.464.9 1.152 2.334 1.728 4.302 1.728.84 0 1.578-.066 2.214-.198.636-.132 1.128-.264 1.476-.396.348-.132.558-.222.63-.27l.504 1.008c0 .048-.27.282-.81.702s-1.248.804-2.124 1.152c-.876.348-1.866.522-2.97.522-2.52 0-4.44-.816-5.76-2.448zm8.928-8.208c.072-.432.108-.912.108-1.44 0-1.44-.258-2.514-.774-3.222-.516-.708-1.434-1.062-2.754-1.062-1.44 0-2.508.504-3.204 1.512-.696 1.008-1.056 2.508-1.08 4.5l7.704-.288zm7.596 8.208c-1.32-1.632-1.98-3.72-1.98-6.264 0-1.896.342-3.582 1.026-5.058.684-1.476 1.638-2.628 2.862-3.456 1.224-.828 2.604-1.242 4.14-1.242 1.968 0 3.444.636 4.428 1.908.984 1.272 1.476 2.82 1.476 4.644 0 1.272-.12 2.124-.36 2.556-.24.432-.696.648-1.368.648h-9.036c0 1.824.45 3.312 1.35 4.464.9 1.152 2.334 1.728 4.302 1.728.84 0 1.578-.066 2.214-.198.636-.132 1.128-.264 1.476-.396.348-.132.558-.222.63-.27l.504 1.008c0 .048-.27.282-.81.702s-1.248.804-2.124 1.152c-.876.348-1.866.522-2.97.522-2.52 0-4.44-.816-5.76-2.448zm8.928-8.208c.072-.432.108-.912.108-1.44 0-1.44-.258-2.514-.774-3.222-.516-.708-1.434-1.062-2.754-1.062-1.44 0-2.508.504-3.204 1.512-.696 1.008-1.056 2.508-1.08 4.5l7.704-.288zm8.046 8.622c-1.26-1.356-1.89-3.402-1.89-6.138 0-2.4.39-4.368 1.17-5.904.78-1.536 1.758-2.652 2.934-3.348 1.176-.696 2.364-1.044 3.564-1.044 1.56 0 2.88.468 3.96 1.404v-5.58l-2.952-.828v-1.404l4.896-.612 1.008.504v22.14l2.556.54v1.404l-4.896.72-.468-1.872-.144-.036c-.48.504-1.152.978-2.016 1.422-.864.444-1.86.666-2.988.666-1.896 0-3.474-.678-4.734-2.034zm7.974-.774c.696-.192 1.284-.408 1.764-.648V175.7c-.384-.144-.882-.276-1.494-.396s-1.242-.18-1.89-.18c-1.608 0-2.85.51-3.726 1.53-.876 1.02-1.314 2.79-1.314 5.31 0 2.376.336 4.11 1.008 5.202.672 1.092 1.848 1.638 3.528 1.638.72 0 1.428-.096 2.124-.288zm11.052-2.988l.504 2.808c.36.264.834.498 1.422.702.588.204 1.254.306 1.998.306 1.392 0 2.358-.276 2.898-.828.54-.552.81-1.32.81-2.304 0-.624-.174-1.128-.522-1.512-.348-.384-.78-.678-1.296-.882-.516-.204-1.23-.426-2.142-.666-1.152-.288-2.094-.588-2.826-.9-.732-.312-1.356-.816-1.872-1.512-.516-.696-.774-1.632-.774-2.808 0-1.632.612-2.886 1.836-3.762 1.224-.876 2.796-1.314 4.716-1.314 1.032 0 2.052.108 3.06.324 1.008.216 1.704.432 2.088.648l-.504 4.5h-1.476l-.504-2.88c0-.024-.348-.12-1.044-.288-.696-.168-1.332-.252-1.908-.252-1.296 0-2.202.21-2.718.63-.516.42-.774 1.086-.774 1.998 0 .552.168 1.002.504 1.35.336.348.75.618 1.242.81.492.192 1.182.408 2.07.648 1.176.312 2.142.636 2.898.972.756.336 1.404.858 1.944 1.566.54.708.81 1.662.81 2.862 0 1.992-.618 3.42-1.854 4.284-1.236.864-2.838 1.296-4.806 1.296-1.176 0-2.316-.156-3.42-.468-1.104-.312-1.86-.624-2.268-.936l.432-4.392h1.476z" id="e"/><filter x="-1.5%" y="-.9%" width="103.1%" height="103.4%" filterUnits="objectBoundingBox" id="d"><feOffset dy="1" in="SourceAlpha" result="shadowOffsetOuter1"/><feGaussianBlur stdDeviation=".5" in="shadowOffsetOuter1" result="shadowBlurOuter1"/><feColorMatrix values="0 0 0 0 0.0101243622 0 0 0 0 0.0101243622 0 0 0 0 0.0101243622 0 0 0 0.5 0" in="shadowBlurOuter1"/></filter><path d="M91.244 302.376v5.472c-1.08.456-2.178.828-3.294 1.116-1.116.288-2.622.432-4.518.432-7.08 0-10.62-3.924-10.62-11.772 0-2.208.456-4.26 1.368-6.156.912-1.896 2.22-3.408 3.924-4.536 1.704-1.128 3.66-1.692 5.868-1.692 3.024 0 5.4.348 7.128 1.044v5.652h-1.764l-.756-3.96c-.096-.024-.36-.084-.792-.18-.432-.096-1.008-.186-1.728-.27-.72-.084-1.5-.126-2.34-.126-1.752 0-3.162.348-4.23 1.044-1.068.696-1.842 1.782-2.322 3.258s-.72 3.414-.72 5.814c0 3 .654 5.394 1.962 7.182 1.308 1.788 3.126 2.682 5.454 2.682 1.056 0 1.944-.096 2.664-.288.72-.192 1.272-.402 1.656-.63.384-.228.576-.366.576-.414l.72-3.672h1.764zm4.842 4.536c-1.308-1.608-1.962-3.792-1.962-6.552 0-1.704.336-3.282 1.008-4.734.672-1.452 1.632-2.61 2.88-3.474 1.248-.864 2.7-1.296 4.356-1.296 2.52 0 4.44.774 5.76 2.322 1.32 1.548 1.98 3.666 1.98 6.354 0 1.848-.324 3.516-.972 5.004-.648 1.488-1.602 2.658-2.862 3.51-1.26.852-2.778 1.278-4.554 1.278-2.448 0-4.326-.804-5.634-2.412zm9.774-1.44c.672-1.176 1.008-2.94 1.008-5.292 0-2.52-.354-4.356-1.062-5.508-.708-1.152-1.926-1.728-3.654-1.728-1.296 0-2.292.276-2.988.828-.696.552-1.17 1.338-1.422 2.358s-.378 2.37-.378 4.05c0 2.304.378 4.056 1.134 5.256.756 1.2 2.058 1.8 3.906 1.8 1.632 0 2.784-.588 3.456-1.764zm6.192 2.052l2.88-.504v-12.816l-2.88-.504v-1.476l5.364-1.008.288 1.188.072.216c2.184-1.176 4.104-1.764 5.76-1.764 1.488 0 2.646.432 3.474 1.296.828.864 1.242 2.076 1.242 3.636v11.232l2.88.504V309h-8.64v-1.476l2.808-.504v-10.728c0-1.032-.3-1.776-.9-2.232-.6-.456-1.56-.684-2.88-.684-.624 0-1.284.042-1.98.126-.696.084-1.248.186-1.656.306v13.212l2.808.504V309h-8.64v-1.476zm20.268-14.436v-1.512l2.808-.756.864-3.744h2.088v4.104h5.076v1.008l-.504.9h-4.572v11.808c0 .72.138 1.2.414 1.44.276.24.738.36 1.386.36.576 0 1.158-.066 1.746-.198.588-.132.966-.222 1.134-.27l.36 1.152c.048 0-.162.162-.63.486-.468.324-1.014.618-1.638.882-.624.264-1.236.396-1.836.396-1.44 0-2.448-.342-3.024-1.026-.576-.684-.864-1.674-.864-2.97v-12.06h-2.808zm14.76 13.788c-1.32-1.632-1.98-3.72-1.98-6.264 0-1.896.342-3.582 1.026-5.058.684-1.476 1.638-2.628 2.862-3.456 1.224-.828 2.604-1.242 4.14-1.242 1.968 0 3.444.636 4.428 1.908.984 1.272 1.476 2.82 1.476 4.644 0 1.272-.12 2.124-.36 2.556-.24.432-.696.648-1.368.648h-9.036c0 1.824.45 3.312 1.35 4.464.9 1.152 2.334 1.728 4.302 1.728.84 0 1.578-.066 2.214-.198.636-.132 1.128-.264 1.476-.396.348-.132.558-.222.63-.27l.504 1.008c0 .048-.27.282-.81.702s-1.248.804-2.124 1.152c-.876.348-1.866.522-2.97.522-2.52 0-4.44-.816-5.76-2.448zm8.928-8.208c.072-.432.108-.912.108-1.44 0-1.44-.258-2.514-.774-3.222-.516-.708-1.434-1.062-2.754-1.062-1.44 0-2.508.504-3.204 1.512-.696 1.008-1.056 2.508-1.08 4.5l7.704-.288zm5.652 8.856l2.88-.504v-12.816l-2.88-.504v-1.476l5.364-1.008.288 1.188.072.216c2.184-1.176 4.104-1.764 5.76-1.764 1.488 0 2.646.432 3.474 1.296.828.864 1.242 2.076 1.242 3.636v11.232l2.88.504V309h-8.64v-1.476l2.808-.504v-10.728c0-1.032-.3-1.776-.9-2.232-.6-.456-1.56-.684-2.88-.684-.624 0-1.284.042-1.98.126-.696.084-1.248.186-1.656.306v13.212l2.808.504V309h-8.64v-1.476zm20.268-14.436v-1.512l2.808-.756.864-3.744h2.088v4.104h5.076v1.008l-.504.9h-4.572v11.808c0 .72.138 1.2.414 1.44.276.24.738.36 1.386.36.576 0 1.158-.066 1.746-.198.588-.132.966-.222 1.134-.27l.36 1.152c.048 0-.162.162-.63.486-.468.324-1.014.618-1.638.882-.624.264-1.236.396-1.836.396-1.44 0-2.448-.342-3.024-1.026-.576-.684-.864-1.674-.864-2.97v-12.06h-2.808z" id="g"/><filter x="-1.7%" y="-4.1%" width="103.3%" height="116.6%" filterUnits="objectBoundingBox" id="f"><feOffset dy="1" in="SourceAlpha" result="shadowOffsetOuter1"/><feGaussianBlur stdDeviation=".5" in="shadowOffsetOuter1" result="shadowBlurOuter1"/><feColorMatrix values="0 0 0 0 0.0101243622 0 0 0 0 0.0101243622 0 0 0 0 0.0101243622 0 0 0 0.5 0" in="shadowBlurOuter1"/></filter><path d="M331.738 302.376v5.472c-1.08.456-2.178.828-3.294 1.116-1.116.288-2.622.432-4.518.432-7.08 0-10.62-3.924-10.62-11.772 0-2.208.456-4.26 1.368-6.156.912-1.896 2.22-3.408 3.924-4.536 1.704-1.128 3.66-1.692 5.868-1.692 3.024 0 5.4.348 7.128 1.044v5.652h-1.764l-.756-3.96c-.096-.024-.36-.084-.792-.18-.432-.096-1.008-.186-1.728-.27-.72-.084-1.5-.126-2.34-.126-1.752 0-3.162.348-4.23 1.044-1.068.696-1.842 1.782-2.322 3.258s-.72 3.414-.72 5.814c0 3 .654 5.394 1.962 7.182 1.308 1.788 3.126 2.682 5.454 2.682 1.056 0 1.944-.096 2.664-.288.72-.192 1.272-.402 1.656-.63.384-.228.576-.366.576-.414l.72-3.672h1.764zm4.842 4.536c-1.308-1.608-1.962-3.792-1.962-6.552 0-1.704.336-3.282 1.008-4.734.672-1.452 1.632-2.61 2.88-3.474 1.248-.864 2.7-1.296 4.356-1.296 2.52 0 4.44.774 5.76 2.322 1.32 1.548 1.98 3.666 1.98 6.354 0 1.848-.324 3.516-.972 5.004-.648 1.488-1.602 2.658-2.862 3.51-1.26.852-2.778 1.278-4.554 1.278-2.448 0-4.326-.804-5.634-2.412zm9.774-1.44c.672-1.176 1.008-2.94 1.008-5.292 0-2.52-.354-4.356-1.062-5.508-.708-1.152-1.926-1.728-3.654-1.728-1.296 0-2.292.276-2.988.828-.696.552-1.17 1.338-1.422 2.358s-.378 2.37-.378 4.05c0 2.304.378 4.056 1.134 5.256.756 1.2 2.058 1.8 3.906 1.8 1.632 0 2.784-.588 3.456-1.764zm6.192 2.052l2.88-.504v-12.816l-2.88-.504v-1.476l5.364-1.008.288 1.188.072.216c2.184-1.176 4.104-1.764 5.76-1.764 1.488 0 2.646.432 3.474 1.296.828.864 1.242 2.076 1.242 3.636v11.232l2.88.504V309h-8.64v-1.476l2.808-.504v-10.728c0-1.032-.3-1.776-.9-2.232-.6-.456-1.56-.684-2.88-.684-.624 0-1.284.042-1.98.126-.696.084-1.248.186-1.656.306v13.212l2.808.504V309h-8.64v-1.476zm20.268-14.436v-1.512l2.808-.756.864-3.744h2.088v4.104h5.076v1.008l-.504.9h-4.572v11.808c0 .72.138 1.2.414 1.44.276.24.738.36 1.386.36.576 0 1.158-.066 1.746-.198.588-.132.966-.222 1.134-.27l.36 1.152c.048 0-.162.162-.63.486-.468.324-1.014.618-1.638.882-.624.264-1.236.396-1.836.396-1.44 0-2.448-.342-3.024-1.026-.576-.684-.864-1.674-.864-2.97v-12.06h-2.808zm14.76 13.788c-1.32-1.632-1.98-3.72-1.98-6.264 0-1.896.342-3.582 1.026-5.058.684-1.476 1.638-2.628 2.862-3.456 1.224-.828 2.604-1.242 4.14-1.242 1.968 0 3.444.636 4.428 1.908.984 1.272 1.476 2.82 1.476 4.644 0 1.272-.12 2.124-.36 2.556-.24.432-.696.648-1.368.648h-9.036c0 1.824.45 3.312 1.35 4.464.9 1.152 2.334 1.728 4.302 1.728.84 0 1.578-.066 2.214-.198.636-.132 1.128-.264 1.476-.396.348-.132.558-.222.63-.27l.504 1.008c0 .048-.27.282-.81.702s-1.248.804-2.124 1.152c-.876.348-1.866.522-2.97.522-2.52 0-4.44-.816-5.76-2.448zm8.928-8.208c.072-.432.108-.912.108-1.44 0-1.44-.258-2.514-.774-3.222-.516-.708-1.434-1.062-2.754-1.062-1.44 0-2.508.504-3.204 1.512-.696 1.008-1.056 2.508-1.08 4.5l7.704-.288zM401.038 309v-1.44l2.376-.576 4.968-6.732-4.86-6.984-2.124-.504v-1.548h7.884v1.62l-1.98.288v.504l3.096 4.356 3.168-4.284v-.504l-1.98-.36v-1.62h6.552v1.512l-1.98.54-4.644 6.372 5.184 7.38 2.448.54V309h-8.1v-1.44l1.836-.324v-.504l-3.348-4.824-3.492 4.716v.504l2.304.396V309h-7.308zm18.396-15.912v-1.512l2.808-.756.864-3.744h2.088v4.104h5.076v1.008l-.504.9h-4.572v11.808c0 .72.138 1.2.414 1.44.276.24.738.36 1.386.36.576 0 1.158-.066 1.746-.198.588-.132.966-.222 1.134-.27l.36 1.152c.048 0-.162.162-.63.486-.468.324-1.014.618-1.638.882-.624.264-1.236.396-1.836.396-1.44 0-2.448-.342-3.024-1.026-.576-.684-.864-1.674-.864-2.97v-12.06h-2.808z" id="i"/><filter x="-1.7%" y="-4.1%" width="103.4%" height="116.6%" filterUnits="objectBoundingBox" id="h"><feOffset dy="1" in="SourceAlpha" result="shadowOffsetOuter1"/><feGaussianBlur stdDeviation=".5" in="shadowOffsetOuter1" result="shadowBlurOuter1"/><feColorMatrix values="0 0 0 0 0.0101243622 0 0 0 0 0.0101243622 0 0 0 0 0.0101243622 0 0 0 0.5 0" in="shadowBlurOuter1"/></filter></defs><g fill="none" fill-rule="evenodd"><circle fill="url(#a)" cx="363" cy="293" r="130"/><circle fill="url(#b)" cx="130" cy="289" r="130"/><circle fill="url(#c)" cx="247" cy="130" r="130"/><use fill="#000" filter="url(#d)" xlink:href="#e"/><use fill="#FFF" xlink:href="#e"/><use fill="#000" filter="url(#f)" xlink:href="#g"/><use fill="#FFF" xlink:href="#g"/><g><use fill="#000" filter="url(#h)" xlink:href="#i"/><use fill="#FFF" xlink:href="#i"/></g></g></svg>