<svg xmlns="http://www.w3.org/2000/svg" xmlns:xlink="http://www.w3.org/1999/xlink" width="232" height="62" viewBox="0 0 232 62"><defs><linearGradient id="a" x1="50%" x2="50%" y1="0%" y2="100%"><stop offset="0%" stop-color="#FFF"/><stop offset="100%" stop-color="#F1F1F1"/></linearGradient><circle id="b" cx="13" cy="13" r="13"/></defs><g fill="none" fill-rule="evenodd" transform="translate(1 1)"><rect width="230" height="60" fill="url(#a)" stroke="#C1C1C1" rx="4"/><path fill="#4A4A4A" d="M48.968 15.398c.614 0 1.18.1 1.7.296.518.196.966.49 1.346.878.38.39.674.874.885 1.454.21.58.316 1.26.316 2.038 0 .758-.11 1.428-.33 2.01-.222.58-.524 1.067-.908 1.46-.384.394-.838.692-1.36.893-.524.202-1.093.303-1.708.303-.614 0-1.18-.1-1.7-.296-.517-.196-.966-.49-1.345-.878-.38-.39-.675-.874-.886-1.454-.212-.58-.318-1.26-.318-2.038 0-.758.11-1.428.332-2.01.22-.58.523-1.067.907-1.46.385-.394.838-.692 1.362-.893.523-.2 1.092-.302 1.706-.302zm-2.866 4.666c0 .614.075 1.147.224 1.598.148.452.352.826.612 1.124.26.297.564.518.914.662.35.144.722.216 1.116.216.394 0 .76-.072 1.102-.216.34-.144.638-.365.892-.662.255-.298.454-.672.598-1.124.144-.45.216-.984.216-1.598 0-.634-.074-1.176-.223-1.627-.15-.45-.353-.823-.612-1.116-.258-.292-.563-.508-.914-.647-.35-.14-.722-.21-1.116-.21-.393 0-.763.073-1.108.217-.346.144-.644.365-.893.662-.25.298-.448.672-.592 1.124-.144.45-.216.984-.216 1.598zM57.57 24.73c-.308 0-.603-.044-.886-.13-.283-.086-.526-.202-.727-.346v3.658h-1.253v-10.18h1.05l.188.878c.26-.24.552-.447.88-.62.325-.172.71-.26 1.15-.26.903 0 1.614.29 2.132.865.518.576.778 1.402.778 2.477 0 .634-.094 1.18-.28 1.642-.188.46-.438.84-.75 1.137-.312.3-.667.52-1.066.664-.398.144-.804.216-1.216.216zm.13-5.962c-.404 0-.754.098-1.052.295-.298.197-.528.396-.69.598v3.615c.22.163.455.283.704.36.25.077.5.115.75.115.258 0 .518-.045.777-.136.258-.092.488-.243.69-.454.202-.21.365-.485.49-.82.124-.337.187-.75.187-1.24 0-.72-.15-1.288-.454-1.706-.302-.417-.77-.626-1.404-.626zM68.07 21.36H63.22v.058c0 .748.203 1.324.61 1.728.41.403.964.604 1.664.604.365 0 .69-.028.972-.086.284-.058.593-.154.93-.288l.258.936c-.278.125-.607.226-.986.302-.38.077-.785.116-1.217.116-.488 0-.947-.068-1.374-.202-.427-.134-.804-.343-1.13-.626-.327-.284-.584-.646-.77-1.088-.188-.44-.282-.97-.282-1.584 0-.528.08-1.008.238-1.44.158-.432.382-.8.67-1.1.288-.304.636-.54 1.044-.707.408-.168.866-.252 1.375-.252.433 0 .824.073 1.174.217.35.144.65.346.9.605.25.26.442.57.576.936.135.365.202.768.202 1.21v.662zm-1.31-.907c0-.25-.032-.483-.094-.7-.062-.215-.158-.404-.288-.567-.13-.164-.295-.293-.497-.39-.2-.095-.446-.143-.734-.143-.53 0-.96.168-1.29.504-.33.336-.535.777-.612 1.325l3.514-.03zm3.98 4.147h-1.268v-6.768h.993l.187.936c.336-.336.69-.593 1.06-.77.368-.178.793-.267 1.273-.267.69 0 1.234.196 1.627.584.394.39.59.93.59 1.62V24.6H73.94v-4.478c0-.413-.108-.742-.324-.987-.216-.245-.545-.367-.987-.367-.672 0-1.3.302-1.886.907V24.6zm8.644-3.83v.907h-2.88v-.907h2.88zm7.06.59h-4.852v.058c0 .748.204 1.324.612 1.728.408.403.962.604 1.663.604.364 0 .688-.028.97-.086.284-.058.594-.154.93-.288l.26.936c-.28.125-.608.226-.988.302-.38.077-.784.116-1.216.116-.49 0-.948-.068-1.376-.202-.427-.134-.804-.343-1.13-.626-.326-.284-.583-.646-.77-1.088-.188-.44-.28-.97-.28-1.584 0-.528.078-1.008.236-1.44.16-.432.382-.8.67-1.1.288-.304.636-.54 1.044-.707.408-.168.866-.252 1.375-.252.432 0 .823.073 1.174.217.35.144.65.346.9.605.248.26.44.57.575.936.134.365.2.768.2 1.21v.662zm-1.31-.907c0-.25-.03-.483-.094-.7-.062-.215-.158-.404-.288-.567-.13-.164-.295-.293-.496-.39-.202-.095-.447-.143-.735-.143-.528 0-.957.168-1.29.504-.33.336-.534.777-.61 1.325l3.513-.03zm3.98 4.147h-1.268v-6.768h.994l.187.936c.335-.336.688-.593 1.057-.77.37-.178.795-.267 1.275-.267.69 0 1.233.196 1.627.584.392.39.59.93.59 1.62V24.6H92.31v-4.478c0-.413-.108-.742-.324-.987-.216-.245-.545-.367-.986-.367-.672 0-1.3.302-1.887.907V24.6zm10.818-10.224h1.268V24.6h-1.066l-.158-.75h-.044c-.297.308-.597.532-.9.67-.302.14-.684.21-1.144.21-.365 0-.718-.072-1.06-.216-.34-.144-.644-.36-.913-.648-.27-.288-.485-.65-.648-1.088-.164-.436-.246-.952-.246-1.548 0-.528.07-1.008.21-1.44.138-.432.337-.8.596-1.108.26-.308.576-.543.95-.706.375-.163.802-.245 1.282-.245.356 0 .694.056 1.016.167.32.11.607.276.856.497v-4.018zm0 5.083c-.45-.51-.984-.764-1.598-.764-.26 0-.51.046-.756.137-.245.09-.46.237-.648.44-.187.2-.338.46-.454.777-.115.316-.172.696-.172 1.137 0 .46.052.852.158 1.174.106.322.247.586.425.793.176.206.378.357.604.453.225.096.453.144.684.144.72 0 1.305-.312 1.756-.936V19.46zm8.89 1.9h-4.853v.058c0 .748.205 1.324.613 1.728.408.403.963.604 1.663.604.365 0 .69-.028.972-.086.284-.058.593-.154.93-.288l.258.936c-.278.125-.607.226-.986.302-.38.077-.785.116-1.217.116-.49 0-.948-.068-1.375-.202-.427-.134-.804-.343-1.13-.626-.327-.284-.584-.646-.77-1.088-.188-.44-.282-.97-.282-1.584 0-.528.08-1.008.238-1.44.158-.432.382-.8.67-1.1.288-.304.636-.54 1.044-.707.408-.168.866-.252 1.375-.252.432 0 .823.073 1.173.217.35.144.65.346.9.605.25.26.442.57.576.936.135.365.202.768.202 1.21v.662zm-1.31-.907c0-.25-.032-.483-.094-.7-.062-.215-.158-.404-.288-.567-.13-.164-.295-.293-.497-.39-.2-.095-.446-.143-.734-.143-.527 0-.957.168-1.288.504-.33.336-.535.777-.612 1.325l3.514-.03zm7.276-6.077h1.268V24.6h-1.066l-.158-.75h-.044c-.297.308-.597.532-.9.67-.302.14-.684.21-1.144.21-.365 0-.718-.072-1.06-.216-.34-.144-.644-.36-.913-.648-.27-.288-.485-.65-.648-1.088-.163-.436-.245-.952-.245-1.548 0-.528.07-1.008.21-1.44.138-.432.337-.8.596-1.108.26-.308.576-.543.95-.706.375-.163.802-.245 1.282-.245.356 0 .694.056 1.016.167.32.11.607.276.856.497v-4.018zm0 5.083c-.45-.51-.984-.764-1.598-.764-.26 0-.51.046-.756.137-.245.09-.46.237-.648.44-.187.2-.338.46-.454.777-.115.316-.172.696-.172 1.137 0 .46.052.852.158 1.174.106.322.247.586.425.793.177.206.38.357.605.453.225.096.453.144.684.144.72 0 1.305-.312 1.756-.936V19.46zm10.868-.36c-.317-.154-.605-.26-.864-.318-.26-.057-.52-.086-.778-.086-.46 0-.802.084-1.022.252-.22.168-.332.39-.332.67 0 .2.077.376.23.525.154.15.476.295.966.44l.432.13c.643.19 1.13.438 1.46.74.332.303.498.713.498 1.232 0 .614-.228 1.11-.684 1.483-.456.374-1.092.562-1.908.562-.432 0-.847-.04-1.246-.116-.398-.076-.74-.182-1.03-.316l.303-.994c.28.134.58.242.907.324.327.082.658.122.994.122.432 0 .775-.076 1.03-.23.254-.154.38-.408.38-.763 0-.307-.11-.526-.33-.655-.22-.13-.538-.257-.95-.382l-.447-.144c-.624-.202-1.087-.454-1.39-.756-.302-.302-.453-.694-.453-1.174 0-.288.062-.552.187-.792.126-.24.296-.44.512-.604.216-.164.473-.29.77-.382.298-.09.625-.137.98-.137.336 0 .684.032 1.044.095.36.062.703.165 1.03.31l-.288.964zm6.5-1.268h1.266V24.6h-.994l-.172-.85h-.058c-.25.28-.56.512-.93.7-.368.186-.798.28-1.288.28-.7 0-1.27-.2-1.706-.598-.437-.398-.655-1-.655-1.807v-4.493h1.268v4.334c0 .288.036.533.108.735.072.202.168.363.288.483.12.12.262.207.425.26.162.052.34.08.532.08.384 0 .73-.083 1.036-.246.308-.163.6-.39.88-.677v-4.968zm3.1 6.768v-6.768h.95l.216 1.354c.163-.432.432-.783.806-1.052.375-.268.807-.403 1.296-.403.25 0 .456.02.62.06.163.037.312.085.446.143l-.245 1.11c-.115-.06-.242-.107-.38-.145-.14-.04-.306-.058-.498-.058-.28 0-.536.048-.772.144-.235.096-.44.24-.62.432-.176.192-.316.43-.416.713-.1.282-.152.606-.152.97v3.5h-1.252zm9.74-6.768h1.352l-2.52 6.768h-1.238l-2.55-6.768h1.37l1.526 4.65.26 1.067h.056l.245-1.052 1.497-4.666zm8.024 3.528h-4.852v.058c0 .748.204 1.324.612 1.728.408.403.962.604 1.663.604.365 0 .69-.028.972-.086.283-.058.593-.154.93-.288l.258.936c-.28.125-.607.226-.987.302-.38.077-.784.116-1.216.116-.49 0-.948-.068-1.376-.202-.427-.134-.804-.343-1.13-.626-.326-.284-.583-.646-.77-1.088-.188-.44-.28-.97-.28-1.584 0-.528.078-1.008.236-1.44.16-.432.382-.8.67-1.1.288-.304.636-.54 1.044-.707.408-.168.866-.252 1.375-.252.433 0 .824.073 1.175.217.35.144.65.346.9.605.25.26.44.57.576.936.135.365.202.768.202 1.21v.662zm-1.31-.907c0-.25-.03-.483-.094-.7-.062-.215-.158-.404-.288-.567-.13-.164-.295-.293-.496-.39-.202-.095-.447-.143-.735-.143-.53 0-.958.168-1.29.504-.33.336-.535.777-.612 1.325l3.514-.03zm1.718-2.62h1.354l1.44 3.873.49 1.612h.028l.49-1.612 1.31-3.874h1.296l-2.606 7.344c-.288.816-.65 1.454-1.087 1.915-.437.462-.958.798-1.563 1.01l-.547-1.01c.45-.172.852-.42 1.203-.748.35-.326.62-.777.813-1.353l.13-.39-2.75-6.768zm10.508 0h1.353l1.153 4.26.26 1.513h.057l.317-1.512 1.166-4.262h1.368l1.196 4.262.303 1.512h.056l.317-1.512 1.123-4.262h1.296l-2.06 6.768h-1.44l-1.15-4.147-.332-1.67-.346 1.67-1.18 4.147h-1.368l-2.088-6.768zm11.18 6.767v-6.768h1.266V24.6h-1.267zm.632-8.51c-.22 0-.41-.075-.568-.224-.16-.148-.238-.333-.238-.554 0-.22.08-.408.238-.562.158-.153.348-.23.568-.23.212 0 .4.077.562.23.163.154.245.34.245.562 0 .22-.082.406-.245.554-.163.15-.35.224-.562.224zm6.168 2.692h-1.987v3.932c0 .336.085.56.253.676.168.116.387.173.655.173.192 0 .404-.02.634-.065.23-.043.432-.093.605-.15l.2.964c-.19.077-.435.144-.733.202-.298.057-.61.086-.936.086-.672 0-1.162-.146-1.47-.44-.306-.292-.46-.717-.46-1.274v-4.104h-1.008v-.95h1.008v-2.16h1.253v2.16h1.988v.95zm2.87 5.818h-1.266V14.376h1.267v4.32c.316-.278.666-.51 1.05-.69.384-.184.806-.275 1.267-.275.375 0 .7.056.98.167.278.11.506.264.683.46.178.197.312.43.404.7.09.268.136.56.136.877V24.6h-1.267v-4.35c0-.517-.105-.894-.317-1.13-.21-.234-.532-.352-.964-.352-.327 0-.656.082-.987.245-.33.163-.66.393-.986.69V24.6zm10.407-6.163c.23-.115.447-.22.648-.31.202-.09.403-.165.605-.223.202-.058.408-.1.62-.13.21-.028.44-.043.69-.043.375 0 .718.042 1.03.124.312.08.58.218.806.41.226.192.4.444.526.756.125.312.187.703.187 1.174V24.6h-1.05l-.16-.75h-.028c-.3.318-.625.544-.98.678-.356.134-.75.202-1.18.202-.328 0-.628-.046-.9-.137-.275-.09-.512-.22-.714-.39-.202-.167-.358-.37-.468-.61-.11-.24-.166-.51-.166-.807 0-.71.28-1.25.843-1.62.56-.37 1.303-.555 2.225-.555h1.296v-.575c0-.49-.125-.823-.375-1-.248-.178-.584-.267-1.007-.267-.25 0-.535.04-.857.122-.32.082-.688.238-1.1.468l-.49-.92zm3.845 3.038l-1.066.03c-.72.018-1.23.145-1.533.38-.302.236-.453.52-.453.857 0 .202.034.372.1.512.068.14.157.247.267.324.11.076.24.132.39.165.148.034.304.05.467.05.318 0 .64-.074.966-.223.326-.148.614-.386.864-.712v-1.383zM49.146 33.912c.716 0 1.366.067 1.948.202.583.134 1.117.323 1.604.566l-.538 1.805c-.525-.256-1.024-.448-1.498-.576-.473-.13-.94-.193-1.4-.193-.654 0-1.163.134-1.528.403-.364.27-.547.634-.547 1.094 0 .448.15.79.45 1.028.302.236.785.464 1.45.68l1.172.385c.998.333 1.76.794 2.284 1.383.525.588.787 1.286.787 2.092 0 .525-.1 1.005-.306 1.44-.205.436-.5.816-.883 1.143-.383.326-.854.58-1.41.758-.557.18-1.188.27-1.892.27-.69 0-1.363-.068-2.016-.203-.652-.134-1.28-.348-1.88-.643l.536-1.785c.55.268 1.088.473 1.613.614.526.14 1.076.21 1.652.21.692 0 1.232-.133 1.623-.402.39-.27.585-.66.585-1.17 0-.18-.032-.35-.096-.51-.064-.16-.176-.314-.336-.46-.16-.148-.38-.292-.662-.433-.282-.14-.634-.28-1.056-.42l-1.075-.366c-.883-.307-1.59-.714-2.122-1.22-.53-.505-.797-1.218-.797-2.14 0-1.062.372-1.92 1.114-2.573.742-.652 1.818-.978 3.226-.978zm6.2 3.974c.564-.307 1.134-.547 1.71-.72.576-.172 1.21-.26 1.9-.26.538 0 1.025.062 1.46.184.435.12.813.316 1.133.585.32.27.565.618.738 1.047.173.428.26.95.26 1.564V46.2H60.76l-.23-.96h-.058c-.653.768-1.58 1.152-2.784 1.152-.96 0-1.71-.253-2.247-.758-.537-.506-.806-1.162-.806-1.968 0-.512.11-.954.326-1.325.218-.37.515-.678.893-.92.378-.244.83-.426 1.354-.548.524-.122 1.094-.182 1.708-.182h1.344v-.634c0-.5-.147-.854-.44-1.066-.296-.21-.692-.316-1.192-.316-.358 0-.74.057-1.142.172-.403.116-.848.314-1.334.596l-.807-1.556zm4.936 4.244l-1.037.038c-.845.026-1.434.17-1.767.432-.332.262-.5.58-.5.95 0 .474.142.794.424.96.28.167.608.25.98.25.37 0 .725-.093 1.064-.278.34-.186.618-.445.836-.778V42.13zm4.684 4.07V32.53h2.228V46.2h-2.228zm12.615-4.05h-6.2v.076c0 .832.258 1.452.777 1.862.518.41 1.2.614 2.045.614.5 0 .944-.044 1.334-.134.39-.09.765-.21 1.123-.365l.44 1.594c-.37.166-.812.307-1.324.422-.512.114-1.107.172-1.786.172-.678 0-1.315-.09-1.91-.27-.595-.178-1.117-.46-1.565-.844-.448-.384-.803-.87-1.065-1.46-.263-.588-.394-1.292-.394-2.11 0-.718.11-1.37.326-1.96.218-.588.525-1.094.922-1.516.397-.422.877-.75 1.44-.98.563-.23 1.184-.345 1.862-.345 1.216 0 2.183.37 2.9 1.114.716.743 1.075 1.774 1.075 3.092v1.037zm-2.322-1.576c0-.268-.032-.528-.096-.777-.064-.25-.167-.47-.308-.663-.14-.192-.323-.342-.547-.45-.224-.11-.49-.164-.797-.164-.576 0-1.05.192-1.42.576-.372.384-.596.89-.672 1.517l3.84-.04zm9.484-1.46c-.755-.357-1.49-.536-2.208-.536-.473 0-.835.083-1.084.25-.25.166-.375.396-.375.69 0 .244.103.452.307.624.205.173.615.35 1.23.528l.575.173c.82.243 1.437.576 1.853 1 .416.42.624.978.624 1.67 0 .882-.333 1.583-.998 2.1-.666.52-1.575.78-2.727.78-1.242 0-2.273-.206-3.092-.615l.5-1.69c.37.18.764.326 1.18.442.416.115.848.172 1.296.172 1.062 0 1.594-.34 1.594-1.017 0-.307-.125-.535-.375-.682-.25-.147-.675-.317-1.277-.51l-.595-.19c-.792-.257-1.378-.593-1.756-1.01-.377-.415-.566-.962-.566-1.64 0-.397.083-.765.25-1.104.166-.34.4-.632.7-.875.3-.243.666-.432 1.095-.566.43-.136.905-.203 1.43-.203.525 0 1.034.048 1.527.144.492.097.95.24 1.372.433l-.48 1.632zm12.692 5.588c.41 0 .77-.048 1.084-.144.314-.096.58-.2.797-.316l.442 1.593c-.282.14-.653.27-1.114.384-.46.114-.966.172-1.517.172-.678 0-1.312-.1-1.9-.298-.59-.198-1.1-.496-1.536-.892-.436-.397-.778-.89-1.028-1.48-.25-.588-.374-1.272-.374-2.053 0-.718.118-1.37.355-1.96.237-.588.57-1.09 1-1.507.427-.416.94-.736 1.535-.96.595-.224 1.25-.336 1.968-.336.396 0 .806.04 1.228.115.423.077.877.23 1.364.46l-.48 1.614c-.295-.166-.596-.294-.903-.384-.307-.09-.627-.134-.96-.134-.845 0-1.523.26-2.035.777-.512.52-.768 1.27-.768 2.256 0 .577.083 1.064.25 1.46.166.397.384.717.652.96.27.244.573.416.912.52.34.1.682.152 1.028.152zm12.134-3.13c0 .756-.118 1.434-.355 2.036-.237.602-.567 1.107-.99 1.517-.42.41-.914.723-1.477.94-.564.218-1.172.327-1.824.327-.653 0-1.258-.102-1.815-.307-.557-.205-1.04-.503-1.45-.893-.41-.39-.73-.874-.96-1.45-.23-.576-.345-1.235-.345-1.977 0-.768.118-1.456.355-2.064.237-.607.567-1.116.99-1.526.42-.41.914-.723 1.477-.94.564-.218 1.172-.327 1.824-.327.653 0 1.258.1 1.815.298.557.198 1.04.496 1.45.893.41.396.73.883.96 1.46.23.575.345 1.247.345 2.015zm-2.342.097c0-.552-.064-1.022-.192-1.412-.128-.39-.298-.708-.51-.95-.21-.244-.454-.423-.73-.538-.274-.116-.56-.173-.853-.173-.294 0-.575.048-.844.144-.27.097-.506.263-.71.5-.205.237-.372.554-.5.95-.128.397-.192.89-.192 1.48 0 .536.064.994.192 1.372.128.377.298.69.51.94.21.25.454.432.73.548.274.115.56.172.853.172.28 0 .56-.05.834-.153.276-.104.516-.27.72-.5.205-.23.372-.54.5-.932.128-.39.192-.873.192-1.45zm6.412 4.53h-2.265v-9.12h1.747l.288 1.21c.422-.423.877-.76 1.363-1.008.488-.25 1.05-.375 1.69-.375.64 0 1.178.125 1.614.375.435.25.76.604.98 1.065.434-.448.914-.8 1.44-1.056.524-.255 1.1-.383 1.727-.383.96 0 1.69.263 2.19.787.5.525.748 1.274.748 2.247v6.26h-2.265v-5.952c0-.486-.115-.87-.346-1.152-.23-.282-.582-.422-1.056-.422-.37 0-.74.09-1.112.268-.372.18-.704.436-1 .768.014.09.02.17.02.24v6.25h-2.265v-5.952c0-.486-.115-.87-.346-1.152-.23-.282-.582-.422-1.056-.422-.37 0-.738.1-1.103.297-.365.2-.694.472-.99.817V46.2zm16.11 0h-2.266v-9.12h1.747l.287 1.21c.422-.423.877-.76 1.363-1.008.486-.25 1.05-.375 1.69-.375.64 0 1.177.125 1.612.375.436.25.762.604.98 1.065.435-.448.915-.8 1.44-1.056.524-.255 1.1-.383 1.728-.383.96 0 1.69.263 2.188.787.5.525.75 1.274.75 2.247v6.26H139v-5.952c0-.486-.116-.87-.346-1.152-.23-.282-.582-.422-1.056-.422-.37 0-.742.09-1.114.268-.37.18-.704.436-.998.768.013.09.02.17.02.24v6.25h-2.266v-5.952c0-.486-.116-.87-.346-1.152-.23-.282-.582-.422-1.056-.422-.37 0-.74.1-1.104.297-.365.2-.694.472-.99.817V46.2zm19.794-9.12h2.266v9.12h-1.71l-.268-1.056h-.076c-.295.307-.685.592-1.172.854-.486.263-1.094.394-1.824.394-.96 0-1.728-.27-2.304-.806-.576-.538-.864-1.344-.864-2.42V37.08h2.266v5.856c0 .627.144 1.072.432 1.334.288.263.656.394 1.104.394.474 0 .886-.1 1.238-.298.352-.198.656-.444.912-.74V37.08zm6.855 9.12h-2.266v-9.12h1.768l.288 1.21c.435-.436.902-.775 1.4-1.018.5-.243 1.057-.365 1.672-.365.985 0 1.747.272 2.284.816.538.544.807 1.315.807 2.314V46.2h-2.267v-5.894c0-.487-.125-.88-.374-1.18-.25-.302-.625-.452-1.124-.452-.372 0-.75.1-1.133.297-.384.2-.736.465-1.056.798V46.2zm8.486 0v-9.12h2.266v9.12h-2.267zm1.133-11.213c-.397 0-.707-.115-.93-.345-.225-.23-.337-.52-.337-.864 0-.333.114-.618.344-.855.23-.237.538-.355.922-.355.37 0 .672.115.902.346.23.23.346.518.346.864 0 .345-.115.633-.346.864-.23.23-.53.345-.902.345zm8.89 3.744h-2.516v4.57c0 .436.106.734.317.894.21.16.483.24.816.24.256 0 .525-.026.807-.077.28-.05.518-.122.71-.21l.346 1.61c-.244.104-.573.203-.99.3-.415.095-.86.143-1.334.143-1.036 0-1.782-.21-2.236-.634-.455-.422-.682-1.056-.682-1.9V38.73h-1.382v-1.65h1.382v-2.842h2.246v2.842h2.516v1.65zm1.036-1.65h2.458l1.71 4.646.632 2.19h.058l.614-2.21 1.536-4.626h2.324l-3.4 9.6c-.37 1.062-.87 1.978-1.496 2.746-.628.768-1.485 1.337-2.573 1.708l-.96-1.785c.678-.257 1.257-.616 1.737-1.076.48-.46.83-1.05 1.047-1.767l.095-.326-3.783-9.1z"/><g transform="translate(10 15.8)"><use fill="#E9ECEF" xlink:href="#b"/><circle cx="13" cy="13" r="12.5" stroke="#CED4DA"/><path fill="#D9480F" d="M11.68 13.415h1.31c1.188 0 1.913.57 1.913 1.494 0 .9-.77 1.523-1.875 1.523-1.135 0-1.89-.564-1.956-1.458H8.956c.095 1.992 1.692 3.296 4.05 3.296 2.41 0 4.153-1.34 4.153-3.192 0-1.392-.91-2.36-2.36-2.52v-.132c1.18-.24 1.95-1.194 1.95-2.417 0-1.663-1.56-2.85-3.73-2.85-2.306 0-3.793 1.26-3.866 3.26h2.043c.06-.916.74-1.495 1.765-1.495 1.033 0 1.692.542 1.692 1.392 0 .864-.68 1.45-1.685 1.45h-1.29v1.648z"/></g></g></svg>