<?xml version="1.0" encoding="UTF-8" standalone="no"?>
<svg width="470px" height="470px" viewBox="0 0 470 470" version="1.1" xmlns="http://www.w3.org/2000/svg" xmlns:xlink="http://www.w3.org/1999/xlink">
    <!-- Generator: Sketch 46 (44423) - http://www.bohemiancoding.com/sketch -->
    <title>al-svg</title>
    <desc>Created with Sketch.</desc>
    <defs></defs>
    <g id="1.-Sales-Sim" stroke="none" stroke-width="1" fill="none" fill-rule="evenodd">
        <g id="al-svg">
            <rect id="bg" fill-opacity="0.00999999978" fill="#D8D8D8" x="0" y="0" width="470" height="470"></rect>
            <g id="Aktivlearn---Android" transform="translate(86.000000, 6.000000)">
                <g id="Group" transform="translate(0.168020, 38.021728)">
                    <g transform="translate(0.320991, 30.022020)" id="Shape">
                        <path d="M288.034808,340.029626 C288.034808,345.334088 285.927353,350.422531 282.1757,354.172858 C278.424046,357.923185 273.337832,360.031369 268.033191,360.031369 C215.270015,360.031369 72.7647933,360.031369 20.0016171,360.031369 C14.6969761,360.031369 9.61076142,357.923185 5.85910805,354.172858 C2.10745468,350.422531 0,345.334088 0,340.029626 C0,277.008135 0,83.0232336 0,20.0017427 C0,14.6968805 2.10745468,9.60943725 5.85910805,5.85831042 C9.61076142,2.10738361 14.6969761,0 20.0016171,0 C59.5655983,0 144.017404,0 144.017404,0 L144.017404,60.0052281 L216.026106,60.0052281 L216.026106,0 L216.026106,120.010456 L288.034808,120.010456 C288.034808,120.010456 288.034808,282.386604 288.034808,340.029626 Z" fill="#E6E6E6"></path>
                        <path d="M144.017404,0 L144.017404,60.0052281 L216.026106,60.0052281 L216.026106,0 L216.026106,120.010456 L288.034808,120.010456 L288.034808,340.215642 L288.032408,340.277648 L288.032408,340.401658 L288.030007,340.463664 L288.027607,340.525669 L288.027607,340.587675 L288.025207,340.64968 L288.022806,340.711685 L288.020406,340.773691 L288.018006,340.835696 L288.015606,340.897702 L288.013205,340.959707 L288.010805,341.021712 L288.006004,341.083718 L288.003604,341.145723 L288.001204,341.207729 L287.996403,341.267734 L287.991603,341.329739 L287.989202,341.391745 L287.984402,341.45375 L287.979601,341.515755 L287.974801,341.575761 L287.97,341.637766 L287.965199,341.699771 L287.960399,341.761777 L287.953198,341.821782 L287.948397,341.883787 L287.943597,341.945793 L287.936396,342.005798 L287.931595,342.067803 L287.924394,342.129809 L287.917194,342.189814 L287.912393,342.25182 L287.905192,342.311825 L287.897991,342.37383 L287.89079,342.435836 L287.881189,342.495841 L287.873988,342.557846 L287.866788,342.617851 L287.859587,342.679857 L287.849985,342.739862 L287.842785,342.801867 L287.833183,342.861873 L287.823582,342.921878 L287.816381,342.983883 L287.80678,343.043889 L287.797179,343.103894 L287.787578,343.165899 L287.777977,343.225904 L287.768376,343.28591 L287.758774,343.347915 L287.746773,343.40792 L287.737172,343.467925 L287.727571,343.527931 L287.715569,343.587936 L287.703568,343.649941 L287.693967,343.709947 L287.681965,343.769952 L287.669964,343.829957 L287.657962,343.889962 L287.645961,343.949967 L287.633959,344.009973 L287.621958,344.069978 L287.609956,344.129983 L287.597955,344.189988 L287.583553,344.249994 L287.571552,344.309999 L287.55715,344.370004 L287.545149,344.428009 L287.530747,344.488014 L287.518745,344.54802 L287.504344,344.608025 L287.489942,344.66803 L287.47554,344.728035 L287.461139,344.78604 L287.446737,344.846046 L287.432335,344.906051 L287.415533,344.964056 L287.401131,345.024061 L287.38673,345.082066 L287.369927,345.142071 L287.355526,345.200076 L287.338724,345.260082 L287.321922,345.318087 L287.30752,345.378092 L287.290718,345.436097 L287.273916,345.496102 L287.257114,345.554107 L287.240312,345.612112 L287.22351,345.672118 L287.204307,345.730123 L287.187505,345.788128 L287.170703,345.846133 L287.151501,345.906138 L287.134699,345.964143 L287.115497,346.022148 L287.098695,346.080153 L287.079492,346.138158 L287.06029,346.196163 L287.041088,346.254168 L287.021885,346.312173 L287.002683,346.370178 L286.983481,346.428183 L286.964278,346.486188 L286.945076,346.544193 L286.923474,346.602199 L286.904271,346.658203 L286.885069,346.716208 L286.863466,346.774214 L286.841864,346.830218 L286.822661,346.888223 L286.801059,346.946229 L286.779456,347.002233 L286.757854,347.060238 L286.736251,347.116243 L286.714648,347.174248 L286.693046,347.230253 L286.671443,347.288258 L286.64984,347.344263 L286.625838,347.402268 L286.604235,347.458273 L286.582632,347.514278 L286.558629,347.570283 L286.534627,347.628288 L286.513024,347.684293 L286.489021,347.740298 L286.465018,347.796303 L286.441015,347.852307 L286.417012,347.908312 L286.393009,347.964317 L286.369007,348.020322 L286.345004,348.076327 L286.321001,348.132332 L286.294598,348.188337 L286.270595,348.244342 L286.244191,348.300346 L286.220189,348.354351 L286.193785,348.410356 L286.169782,348.466361 L286.143379,348.520366 L286.116976,348.576371 L286.090573,348.630375 L286.06417,348.68638 L286.037766,348.740385 L286.011363,348.79639 L285.98496,348.850394 L285.958557,348.906399 L285.929753,348.960404 L285.90335,349.014409 L285.874547,349.068413 L285.848144,349.124418 L285.81934,349.178423 L285.792937,349.232428 L285.764133,349.286432 L285.73533,349.340437 L285.706526,349.394442 L285.677723,349.448447 L285.64892,349.502451 L285.620116,349.556456 L285.591313,349.60846 L285.562509,349.662465 L285.533706,349.71647 L285.502502,349.770475 L285.473698,349.822479 L285.442495,349.876484 L285.413691,349.928488 L285.382487,349.982493 L285.351284,350.036498 L285.32248,350.088502 L285.291276,350.140507 L285.260073,350.194512 L285.228869,350.246516 L285.197665,350.298521 L285.166461,350.350525 L285.132857,350.40453 L285.101653,350.456534 L285.07045,350.508539 L285.039246,350.560543 L285.005642,350.612548 L284.974438,350.664552 L284.940834,350.716557 L284.90723,350.766561 L284.876026,350.818566 L284.842422,350.87057 L284.808818,350.922575 L284.775214,350.972579 L284.74161,351.024584 L284.708006,351.074588 L284.674402,351.126593 L284.640798,351.178597 L284.604793,351.228602 L284.571189,351.278606 L284.537585,351.32861 L284.501581,351.380615 L284.467977,351.430619 L284.431972,351.480624 L284.398368,351.530628 L284.362364,351.580632 L284.32636,351.630637 L284.290355,351.680641 L284.254351,351.730645 L284.218347,351.78065 L284.182342,351.830654 L284.146338,351.880658 L284.110334,351.928663 L284.071929,351.978667 L284.035925,352.028671 L283.99992,352.076676 L283.961516,352.12668 L283.925511,352.174684 L283.887107,352.224688 L283.851102,352.272693 L283.812698,352.320697 L283.774293,352.368701 L283.735888,352.418705 L283.697484,352.46671 L283.659079,352.514714 L283.620674,352.562718 L283.58227,352.610722 L283.543865,352.658726 L283.50546,352.70673 L283.467056,352.752734 L283.426251,352.800739 L283.387846,352.848743 L283.347041,352.896747 L283.308637,352.942751 L283.267832,352.990755 L283.227027,353.036759 L283.186222,353.082763 L283.147817,353.130767 L283.107012,353.176771 L283.066207,353.222775 L283.025402,353.27078 L282.984598,353.316784 L282.943793,353.362788 L282.900587,353.408792 L282.859782,353.454796 L282.818978,353.5008 L282.775772,353.546804 L282.734967,353.590807 L282.691762,353.636811 L282.650957,353.682815 L282.607752,353.726819 L282.566947,353.772823 L282.523742,353.816827 L282.480537,353.862831 L282.437331,353.906835 L282.394126,353.950839 L282.350921,353.996843 L282.307716,354.040847 L282.264511,354.08485 L282.221305,354.128854 L282.1757,354.172858 L282.132495,354.216862 L282.086889,354.260866 L282.043684,354.30487 L282.000479,354.346873 L281.954873,354.390877 L281.909268,354.434881 L281.866062,354.476885 L281.820457,354.520888 L281.774851,354.562892 L281.731646,354.604896 L281.686041,354.646899 L281.640435,354.688903 L281.59483,354.730907 L281.549224,354.77291 L281.503619,354.814914 L281.458013,354.856918 L281.412408,354.898921 L281.366802,354.938925 L281.318796,354.980929 L281.273191,355.020932 L281.227585,355.062936 L281.179579,355.102939 L281.133974,355.144943 L281.085968,355.184946 L281.040363,355.22495 L280.992357,355.264953 L280.946751,355.304957 L280.898745,355.34496 L280.85074,355.382964 L280.805134,355.422967 L280.757128,355.462971 L280.709123,355.500974 L280.661117,355.540977 L280.613111,355.578981 L280.565105,355.618984 L280.517099,355.656987 L280.469094,355.694991 L280.421088,355.732994 L280.373082,355.770997 L280.325076,355.809001 L280.27467,355.847004 L280.226664,355.885007 L280.178658,355.92101 L280.128252,355.959014 L280.080247,355.997017 L280.032241,356.03302 L279.981835,356.069023 L279.931429,356.107027 L279.883423,356.14303 L279.833017,356.179033 L279.785011,356.215036 L279.734605,356.251039 L279.684199,356.287042 L279.633793,356.323045 L279.585787,356.359049 L279.535381,356.393052 L279.484975,356.429055 L279.434569,356.463058 L279.384162,356.499061 L279.333756,356.533064 L279.28095,356.567067 L279.230544,356.60307 L279.180138,356.637073 L279.129732,356.671076 L279.079326,356.705079 L279.026519,356.739082 L278.976113,356.771085 L278.925707,356.805087 L278.872901,356.83909 L278.822495,356.871093 L278.769688,356.905096 L278.719282,356.937099 L278.666476,356.971102 L278.61607,357.003105 L278.563263,357.035108 L278.510457,357.06711 L278.460051,357.099113 L278.407244,357.131116 L278.354438,357.163119 L278.301632,357.193121 L278.248825,357.225124 L278.196019,357.257127 L278.145613,357.287129 L278.092806,357.317132 L278.0376,357.349135 L277.984793,357.379138 L277.931987,357.40914 L277.879181,357.439143 L277.826374,357.469145 L277.773568,357.499148 L277.720761,357.529151 L277.665555,357.559153 L277.612748,357.587156 L277.559942,357.617158 L277.504735,357.647161 L277.451929,357.675163 L277.396722,357.703166 L277.343916,357.733168 L277.288709,357.761171 L277.235903,357.789173 L277.180696,357.817176 L277.125489,357.845178 L277.072683,357.87118 L277.017476,357.899183 L276.96227,357.927185 L276.909463,357.955188 L276.854257,357.98119 L276.79905,358.007192 L276.743843,358.035195 L276.688637,358.061197 L276.63343,358.087199 L276.578223,358.113201 L276.523017,358.139204 L276.46781,358.165206 L276.412603,358.191208 L276.357397,358.217211 L276.30219,358.241213 L276.246983,358.267215 L276.191777,358.291217 L276.13657,358.317219 L276.078963,358.341221 L276.023756,358.365223 L275.96855,358.389226 L275.910943,358.413228 L275.855736,358.43723 L275.800529,358.461232 L275.742922,358.485234 L275.687716,358.509236 L275.630109,358.531238 L275.574902,358.55524 L275.517295,358.577242 L275.462088,358.601244 L275.404482,358.623246 L275.346875,358.645248 L275.291668,358.66725 L275.234061,358.689252 L275.176454,358.711254 L275.121247,358.733255 L275.06364,358.755257 L275.006033,358.777259 L274.948426,358.797261 L274.890819,358.819263 L274.833212,358.839265 L274.775606,358.859266 L274.720399,358.881268 L274.660392,358.90127 L274.605185,358.921272 L274.545178,358.941274 L274.489971,358.961275 L274.429964,358.981277 L274.372357,358.999279 L274.31475,359.01928 L274.257143,359.037282 L274.199536,359.057284 L274.141929,359.075285 L274.081922,359.095287 L274.024315,359.113289 L273.966708,359.13129 L273.909101,359.149292 L273.849094,359.167293 L273.791487,359.185295 L273.73388,359.201296 L273.673872,359.219298 L273.616265,359.237299 L273.556258,359.253301 L273.498651,359.269302 L273.438644,359.287304 L273.381037,359.303305 L273.32103,359.319307 L273.263423,359.335308 L273.203416,359.351309 L273.145809,359.367311 L273.085801,359.383312 L273.025794,359.397313 L272.968187,359.413315 L272.90818,359.427316 L272.848173,359.443317 L272.790566,359.457319 L272.730558,359.47132 L272.670551,359.487321 L272.610544,359.501322 L272.550537,359.513323 L272.490529,359.527325 L272.432922,359.541326 L272.372915,359.555327 L272.312908,359.567328 L272.252901,359.581329 L272.192893,359.59333 L272.132886,359.607332 L272.072879,359.619333 L272.012872,359.631334 L271.952864,359.643335 L271.892857,359.655336 L271.83285,359.667337 L271.772843,359.679338 L271.712835,359.689339 L271.652828,359.70134 L271.590421,359.713341 L271.530413,359.723342 L271.470406,359.733343 L271.410399,359.743343 L271.350392,359.755345 L271.290384,359.765345 L271.227977,359.775346 L271.16797,359.783347 L271.107962,359.793348 L271.045555,359.803349 L270.985547,359.811349 L270.92554,359.82135 L270.865533,359.829351 L270.803125,359.839352 L270.743118,359.847353 L270.680711,359.855353 L270.620703,359.863354 L270.560696,359.871355 L270.498289,359.879355 L270.438281,359.887356 L270.375874,359.893357 L270.315867,359.901357 L270.253459,359.907358 L270.193452,359.913358 L270.131044,359.921359 L270.071037,359.92736 L270.008629,359.93336 L269.948622,359.939361 L269.886215,359.945361 L269.826207,359.951362 L269.7638,359.955362 L269.701392,359.961362 L269.641385,359.967363 L269.578978,359.971363 L269.51897,359.975364 L269.456563,359.981364 L269.394155,359.985365 L269.334148,359.989365 L269.27174,359.993365 L269.209333,359.997366 L269.146925,360.001366 L269.086918,360.003366 L269.024511,360.007367 L268.962103,360.009367 L268.899695,360.013367 L268.839688,360.015367 L268.777281,360.017367 L268.714873,360.019368 L268.652466,360.021368 L268.590058,360.023368 L268.530051,360.025368 L268.467643,360.027368 L268.405236,360.027368 L268.342828,360.029368 L268.280421,360.029368 L268.218013,360.031369 L268.155606,360.031369 L268.095598,360.031369 L268.033191,360.031369 L20.0016171,360.031369 L19.9392096,360.031369 L19.8792023,360.031369 L19.8167948,360.031369 L19.7543872,360.029368 L19.6919797,360.029368 L19.6295722,360.027368 L19.5671646,360.027368 L19.5047571,360.025368 L19.4447498,360.023368 L19.3823423,360.021368 L19.3199347,360.019368 L19.2575272,360.017367 L19.1951197,360.015367 L19.1351124,360.013367 L19.0727049,360.009367 L19.0102973,360.007367 L18.9478898,360.003366 L18.8878825,360.001366 L18.825475,359.997366 L18.7630674,359.993365 L18.7006599,359.989365 L18.6406526,359.985365 L18.5782451,359.981364 L18.5158376,359.975364 L18.4558303,359.971363 L18.3934228,359.967363 L18.3334155,359.961362 L18.271008,359.955362 L18.2086004,359.951362 L18.1485932,359.945361 L18.0861856,359.939361 L18.0261784,359.93336 L17.9637708,359.92736 L17.9037636,359.921359 L17.8413561,359.913358 L17.7813488,359.907358 L17.7189413,359.901357 L17.658934,359.893357 L17.5965265,359.887356 L17.5365192,359.879355 L17.4741117,359.871355 L17.4141044,359.863354 L17.3540972,359.855353 L17.2916896,359.847353 L17.2316824,359.839352 L17.1692748,359.829351 L17.1092676,359.82135 L17.0492603,359.811349 L16.9892531,359.803349 L16.9268455,359.793348 L16.8668383,359.783347 L16.806831,359.775346 L16.7444235,359.765345 L16.6844162,359.755345 L16.624409,359.743343 L16.5644017,359.733343 L16.5043945,359.723342 L16.4443872,359.713341 L16.3819797,359.70134 L16.3219724,359.689339 L16.2619652,359.679338 L16.2019579,359.667337 L16.1419507,359.655336 L16.0819434,359.643335 L16.0219362,359.631334 L15.9619289,359.619333 L15.9019217,359.607332 L15.8419144,359.59333 L15.7819072,359.581329 L15.7218999,359.567328 L15.6618927,359.555327 L15.6018854,359.541326 L15.5442785,359.527325 L15.4842712,359.513323 L15.424264,359.501322 L15.3642567,359.487321 L15.3042495,359.47132 L15.2466425,359.457319 L15.1866352,359.443317 L15.126628,359.427316 L15.0666207,359.413315 L15.0090138,359.397313 L14.9490065,359.383312 L14.8889993,359.367311 L14.8313923,359.351309 L14.7713851,359.335308 L14.7137781,359.319307 L14.6537708,359.303305 L14.5961639,359.287304 L14.5361566,359.269302 L14.4785497,359.253301 L14.4185424,359.237299 L14.3609355,359.219298 L14.3009282,359.201296 L14.2433212,359.185295 L14.1857143,359.167293 L14.125707,359.149292 L14.0681001,359.13129 L14.0104931,359.113289 L13.9528861,359.095287 L13.8928789,359.075285 L13.8352719,359.057284 L13.777665,359.037282 L13.720058,359.01928 L13.6624511,358.999279 L13.6048441,358.981277 L13.5448368,358.961275 L13.4872299,358.941274 L13.4296229,358.921272 L13.3744162,358.90127 L13.3168093,358.881268 L13.2592023,358.859266 L13.2015954,358.839265 L13.1439884,358.819263 L13.0863814,358.797261 L13.0287745,358.777259 L12.9711675,358.755257 L12.9159608,358.733255 L12.8583539,358.711254 L12.8007469,358.689252 L12.74314,358.66725 L12.6879333,358.645248 L12.6303263,358.623246 L12.5727194,358.601244 L12.5175127,358.577242 L12.4599057,358.55524 L12.4046991,358.531238 L12.3470921,358.509236 L12.2918854,358.485234 L12.2342785,358.461232 L12.1790718,358.43723 L12.1238651,358.413228 L12.0662582,358.389226 L12.0110515,358.365223 L11.9558448,358.341221 L11.9006381,358.317219 L11.8430312,358.291217 L11.7878245,358.267215 L11.7326178,358.241213 L11.6774112,358.217211 L11.6222045,358.191208 L11.5669978,358.165206 L11.5117912,358.139204 L11.4565845,358.113201 L11.4013778,358.087199 L11.3461711,358.061197 L11.2909645,358.035195 L11.2357578,358.007192 L11.1805511,357.98119 L11.1253445,357.955188 L11.0725381,357.927185 L11.0173314,357.899183 L10.9621247,357.87118 L10.9069181,357.845178 L10.8541117,357.817176 L10.798905,357.789173 L10.7460986,357.761171 L10.690892,357.733168 L10.6380856,357.703166 L10.5828789,357.675163 L10.5300725,357.647161 L10.4748658,357.617158 L10.4220595,357.587156 L10.3692531,357.559153 L10.3164467,357.529151 L10.26124,357.499148 L10.2084336,357.469145 L10.1556273,357.439143 L10.1028209,357.40914 L10.0500145,357.379138 L9.99720812,357.349135 L9.94200145,357.317132 L9.88919507,357.287129 L9.83878898,357.257127 L9.7859826,357.225124 L9.73317621,357.193121 L9.68036983,357.163119 L9.62756345,357.131116 L9.57475707,357.099113 L9.52435098,357.06711 L9.4715446,357.035108 L9.41873822,357.003105 L9.36833212,356.971102 L9.31552574,356.937099 L9.26511965,356.905096 L9.21231327,356.871093 L9.16190718,356.83909 L9.1091008,356.805087 L9.05869471,356.771085 L9.00828861,356.739082 L8.95548223,356.705079 L8.90507614,356.671076 L8.85467005,356.637073 L8.80426396,356.60307 L8.75385787,356.567067 L8.70105149,356.533064 L8.6506454,356.499061 L8.6002393,356.463058 L8.54983321,356.429055 L8.49942712,356.393052 L8.44902103,356.359049 L8.40101523,356.323045 L8.35060914,356.287042 L8.30020305,356.251039 L8.24979695,356.215036 L8.20179115,356.179033 L8.15138506,356.14303 L8.10337926,356.107027 L8.05297317,356.069023 L8.00496737,356.03302 L7.95456128,355.997017 L7.90655547,355.959014 L7.85614938,355.92101 L7.80814358,355.885007 L7.76013778,355.847004 L7.70973169,355.809001 L7.66172589,355.770997 L7.61372009,355.732994 L7.56571429,355.694991 L7.51770848,355.656987 L7.46970268,355.618984 L7.42169688,355.578981 L7.37369108,355.540977 L7.32568528,355.500974 L7.27767948,355.462971 L7.22967368,355.422967 L7.18406817,355.382964 L7.13606236,355.34496 L7.08805656,355.304957 L7.04245105,355.264953 L6.99444525,355.22495 L6.94883974,355.184946 L6.90083394,355.144943 L6.85522843,355.102939 L6.80722263,355.062936 L6.76161711,355.020932 L6.7160116,354.980929 L6.67040609,354.938925 L6.62240029,354.898921 L6.57679478,354.856918 L6.53118927,354.814914 L6.48558376,354.77291 L6.43997825,354.730907 L6.39437273,354.688903 L6.34876722,354.646899 L6.30316171,354.604896 L6.25995649,354.562892 L6.21435098,354.520888 L6.16874547,354.476885 L6.12554025,354.434881 L6.07993474,354.390877 L6.03432922,354.346873 L5.991124,354.30487 L5.94791878,354.260866 L5.90231327,354.216862 L5.85910805,354.172858 L5.81590283,354.128854 L5.77029732,354.08485 L5.7270921,354.040847 L5.68388687,353.996843 L5.64068165,353.950839 L5.59747643,353.906835 L5.55427121,353.862831 L5.51106599,353.816827 L5.47026106,353.772823 L5.42705584,353.726819 L5.38385062,353.682815 L5.34304569,353.636811 L5.29984046,353.590807 L5.25903553,353.546804 L5.21583031,353.5008 L5.17502538,353.454796 L5.13422045,353.408792 L5.09101523,353.362788 L5.0502103,353.316784 L5.00940537,353.27078 L4.96860044,353.222775 L4.9277955,353.176771 L4.88699057,353.130767 L4.84618564,353.082763 L4.807781,353.036759 L4.76697607,352.990755 L4.72617114,352.942751 L4.6877665,352.896747 L4.64696157,352.848743 L4.60855693,352.800739 L4.57015228,352.752734 L4.52934735,352.70673 L4.49094271,352.658726 L4.45253807,352.610722 L4.41413343,352.562718 L4.37572879,352.514714 L4.33732415,352.46671 L4.29891951,352.418705 L4.26051487,352.368701 L4.22211022,352.320697 L4.18370558,352.272693 L4.14770123,352.224688 L4.10929659,352.174684 L4.07329224,352.12668 L4.0348876,352.076676 L3.99888325,352.028671 L3.9628789,351.978667 L3.92447426,351.928663 L3.88846991,351.880658 L3.85246555,351.830654 L3.8164612,351.78065 L3.78045685,351.730645 L3.7444525,351.680641 L3.70844815,351.630637 L3.6724438,351.580632 L3.63643945,351.530628 L3.60283539,351.480624 L3.56683104,351.430619 L3.53322698,351.380615 L3.49722263,351.32861 L3.46361856,351.278606 L3.4300145,351.228602 L3.39401015,351.178597 L3.36040609,351.126593 L3.32680203,351.074588 L3.29319797,351.024584 L3.25959391,350.972579 L3.22598985,350.922575 L3.19238579,350.87057 L3.15878173,350.818566 L3.12757796,350.766561 L3.09397389,350.716557 L3.06036983,350.664552 L3.02916606,350.612548 L2.995562,350.560543 L2.96435823,350.508539 L2.93315446,350.456534 L2.90195069,350.40453 L2.86834663,350.350525 L2.83714286,350.298521 L2.80593909,350.246516 L2.77473532,350.194512 L2.74353154,350.140507 L2.71232777,350.088502 L2.68352429,350.036498 L2.65232052,349.982493 L2.62111675,349.928488 L2.59231327,349.876484 L2.5611095,349.822479 L2.53230602,349.770475 L2.50110225,349.71647 L2.47229877,349.662465 L2.44349529,349.60846 L2.41469181,349.556456 L2.38588832,349.502451 L2.35708484,349.448447 L2.32828136,349.394442 L2.29947788,349.340437 L2.2706744,349.286432 L2.24187092,349.232428 L2.21546773,349.178423 L2.18666425,349.124418 L2.16026106,349.068413 L2.13145758,349.014409 L2.10505439,348.960404 L2.07625091,348.906399 L2.04984772,348.850394 L2.02344453,348.79639 L1.99704133,348.740385 L1.97063814,348.68638 L1.94423495,348.630375 L1.91783176,348.576371 L1.89142857,348.520366 L1.86502538,348.466361 L1.84102248,348.410356 L1.81461929,348.354351 L1.79061639,348.300346 L1.7642132,348.244342 L1.7402103,348.188337 L1.71380711,348.132332 L1.68980421,348.076327 L1.66580131,348.020322 L1.6417984,347.964317 L1.6177955,347.908312 L1.5937926,347.852307 L1.5697897,347.796303 L1.5457868,347.740298 L1.5217839,347.684293 L1.50018129,347.628288 L1.47617839,347.570283 L1.45457578,347.514278 L1.43057288,347.458273 L1.40897027,347.402268 L1.38496737,347.344263 L1.36336476,347.288258 L1.34176215,347.230253 L1.32015954,347.174248 L1.29855693,347.116243 L1.27695431,347.060238 L1.2553517,347.002233 L1.23374909,346.946229 L1.21214648,346.888223 L1.19294416,346.830218 L1.17134155,346.774214 L1.14973894,346.716208 L1.13053662,346.658203 L1.1113343,346.602199 L1.08973169,346.544193 L1.07052937,346.486188 L1.05132705,346.428183 L1.03212473,346.370178 L1.01292241,346.312173 L0.993720087,346.254168 L0.974517766,346.196163 L0.955315446,346.138158 L0.936113125,346.080153 L0.919311095,346.022148 L0.900108774,345.964143 L0.883306744,345.906138 L0.864104423,345.846133 L0.847302393,345.788128 L0.830500363,345.730123 L0.811298042,345.672118 L0.794496012,345.612112 L0.777693981,345.554107 L0.760891951,345.496102 L0.74408992,345.436097 L0.72728789,345.378092 L0.712886149,345.318087 L0.696084119,345.260082 L0.679282088,345.200076 L0.664880348,345.142071 L0.648078318,345.082066 L0.633676577,345.024061 L0.619274837,344.964056 L0.602472806,344.906051 L0.588071066,344.846046 L0.573669326,344.78604 L0.559267585,344.728035 L0.544865845,344.66803 L0.530464104,344.608025 L0.516062364,344.54802 L0.504060914,344.488014 L0.489659173,344.428009 L0.477657723,344.370004 L0.463255983,344.309999 L0.451254532,344.249994 L0.436852792,344.189988 L0.424851342,344.129983 L0.412849891,344.069978 L0.400848441,344.009973 L0.388846991,343.949967 L0.37684554,343.889962 L0.36484409,343.829957 L0.35284264,343.769952 L0.340841189,343.709947 L0.331240029,343.649941 L0.319238579,343.587936 L0.307237128,343.527931 L0.297635968,343.467925 L0.288034808,343.40792 L0.276033358,343.347915 L0.266432197,343.28591 L0.256831037,343.225904 L0.247229877,343.165899 L0.237628716,343.103894 L0.228027556,343.043889 L0.218426396,342.983883 L0.211225526,342.921878 L0.201624365,342.861873 L0.192023205,342.801867 L0.184822335,342.739862 L0.175221175,342.679857 L0.168020305,342.617851 L0.160819434,342.557846 L0.153618564,342.495841 L0.144017404,342.435836 L0.136816534,342.37383 L0.129615664,342.311825 L0.124815083,342.25182 L0.117614213,342.189814 L0.110413343,342.129809 L0.103212473,342.067803 L0.0984118927,342.005798 L0.0912110225,341.945793 L0.0864104423,341.883787 L0.0816098622,341.821782 L0.074408992,341.761777 L0.0696084119,341.699771 L0.0648078318,341.637766 L0.0600072516,341.575761 L0.0552066715,341.515755 L0.0504060914,341.45375 L0.0456055112,341.391745 L0.0432052212,341.329739 L0.038404641,341.267734 L0.0336040609,341.207729 L0.0312037708,341.145723 L0.0288034808,341.083718 L0.0240029007,341.021712 L0.0216026106,340.959707 L0.0192023205,340.897702 L0.0168020305,340.835696 L0.0144017404,340.773691 L0.0120014503,340.711685 L0.00960116026,340.64968 L0.0072008702,340.587675 L0.0072008702,340.525669 L0.00480058013,340.463664 L0.00240029007,340.401658 L0.00240029007,340.339653 L0.00240029007,340.277648 L0,340.215642 L0,340.153637 L0,340.091631 L0,340.029626 L0,20.0017427 L0,19.9395373 L0,19.8775319 L0,19.8153265 L0.00240029007,19.7533211 L0.00240029007,19.6911156 L0.00240029007,19.6291102 L0.00480058013,19.5671048 L0.0072008702,19.5050994 L0.0072008702,19.443094 L0.00960116026,19.3810886 L0.0120014503,19.3192832 L0.0144017404,19.2572778 L0.0168020305,19.1954725 L0.0192023205,19.133467 L0.0216026106,19.0716617 L0.0240029007,19.0098563 L0.0288034808,18.9480509 L0.0312037708,18.8864455 L0.0336040609,18.8246401 L0.038404641,18.7630348 L0.0432052212,18.7012294 L0.0456055112,18.639624 L0.0504060914,18.5780187 L0.0552066715,18.5164133 L0.0600072516,18.4548079 L0.0648078318,18.3934026 L0.0696084119,18.3317972 L0.074408992,18.2703919 L0.0816098622,18.2089865 L0.0864104423,18.1475812 L0.0912110225,18.0861758 L0.0984118927,18.0247705 L0.103212473,17.9635651 L0.110413343,17.9021598 L0.117614213,17.8409544 L0.124815083,17.7797491 L0.129615664,17.7185438 L0.136816534,17.6575385 L0.144017404,17.5963331 L0.153618564,17.5353278 L0.160819434,17.4743225 L0.168020305,17.4133172 L0.175221175,17.3523119 L0.184822335,17.2913065 L0.192023205,17.2305012 L0.201624365,17.169696 L0.211225526,17.1088907 L0.218426396,17.0480854 L0.228027556,16.9872801 L0.237628716,16.9266748 L0.247229877,16.8660695 L0.256831037,16.8054642 L0.266432197,16.7448589 L0.276033358,16.6842537 L0.288034808,16.6238484 L0.297635968,16.5634431 L0.307237128,16.5030379 L0.319238579,16.4426326 L0.331240029,16.3822273 L0.340841189,16.3220221 L0.35284264,16.2618168 L0.36484409,16.2016116 L0.37684554,16.1414064 L0.388846991,16.0814011 L0.400848441,16.0213959 L0.412849891,15.9613907 L0.424851342,15.9013854 L0.436852792,15.8413802 L0.451254532,15.781575 L0.463255983,15.7217698 L0.477657723,15.6619646 L0.489659173,15.6023594 L0.504060914,15.5425542 L0.516062364,15.482949 L0.530464104,15.4233438 L0.544865845,15.3639386 L0.559267585,15.3043334 L0.573669326,15.2449283 L0.588071066,15.1857231 L0.602472806,15.1263179 L0.619274837,15.0671128 L0.633676577,15.0079076 L0.648078318,14.9487024 L0.664880348,14.8894973 L0.679282088,14.8304921 L0.696084119,14.771487 L0.712886149,14.7124819 L0.72728789,14.6536767 L0.74408992,14.5948716 L0.760891951,14.5360665 L0.777693981,14.4772614 L0.794496012,14.4186563 L0.811298042,14.3600512 L0.830500363,14.301446 L0.847302393,14.243041 L0.864104423,14.1844359 L0.883306744,14.1262308 L0.900108774,14.0678257 L0.919311095,14.0096206 L0.936113125,13.9514156 L0.955315446,13.8932105 L0.974517766,13.8352054 L0.993720087,13.7772004 L1.01292241,13.7191953 L1.03212473,13.6611903 L1.05132705,13.6033852 L1.07052937,13.5455802 L1.08973169,13.4879752 L1.1113343,13.4301701 L1.13053662,13.3727651 L1.14973894,13.3151601 L1.17134155,13.2577551 L1.19294416,13.2003501 L1.21214648,13.1429451 L1.23374909,13.0857401 L1.2553517,13.0285351 L1.27695431,12.9713302 L1.29855693,12.9143252 L1.32015954,12.8573202 L1.34176215,12.8003153 L1.36336476,12.7435103 L1.38496737,12.6867054 L1.40897027,12.6299004 L1.43057288,12.5732955 L1.45457578,12.5166905 L1.47617839,12.4602856 L1.50018129,12.4038807 L1.5217839,12.3474758 L1.5457868,12.2910709 L1.5697897,12.234866 L1.5937926,12.1786611 L1.6177955,12.1226562 L1.6417984,12.0666513 L1.66580131,12.0106465 L1.68980421,11.9548416 L1.71380711,11.8990367 L1.7402103,11.8432319 L1.7642132,11.787627 L1.79061639,11.7320222 L1.81461929,11.6766174 L1.84102248,11.6212125 L1.86502538,11.5658077 L1.89142857,11.5106029 L1.91783176,11.4553981 L1.94423495,11.4001933 L1.97063814,11.3451885 L1.99704133,11.2901837 L2.02344453,11.2353789 L2.04984772,11.1805741 L2.07625091,11.1257694 L2.10505439,11.0711646 L2.13145758,11.0165598 L2.16026106,10.9621551 L2.18666425,10.9077504 L2.21546773,10.8535456 L2.24187092,10.7991409 L2.2706744,10.7451362 L2.29947788,10.6909315 L2.32828136,10.6369268 L2.35708484,10.5831221 L2.38588832,10.5293174 L2.41469181,10.4755127 L2.44349529,10.421908 L2.47229877,10.3683034 L2.50110225,10.3148987 L2.53230602,10.2614941 L2.5611095,10.2080894 L2.59231327,10.1548848 L2.62111675,10.1018802 L2.65232052,10.0488755 L2.68352429,9.99587091 L2.71232777,9.9428663 L2.74353154,9.89026171 L2.77473532,9.83745711 L2.80593909,9.78485253 L2.83714286,9.73244796 L2.86834663,9.6800434 L2.90195069,9.62763883 L2.93315446,9.57543428 L2.96435823,9.52322973 L2.995562,9.4712252 L3.02916606,9.41922067 L3.06036983,9.36741616 L3.09397389,9.31561164 L3.12757796,9.26380713 L3.15878173,9.21240265 L3.19238579,9.16079816 L3.22598985,9.10939368 L3.25959391,9.05818922 L3.29319797,9.00698476 L3.32680203,8.95578029 L3.36040609,8.90477585 L3.39401015,8.85377141 L3.4300145,8.80296698 L3.46361856,8.75236257 L3.49722263,8.70175816 L3.53322698,8.65115375 L3.56683104,8.60074936 L3.60283539,8.55034497 L3.63643945,8.5001406 L3.6724438,8.44993622 L3.70844815,8.39993186 L3.7444525,8.35012752 L3.78045685,8.30012317 L3.8164612,8.25051885 L3.85246555,8.20091452 L3.88846991,8.1513102 L3.92447426,8.1019059 L3.9628789,8.05270161 L3.99888325,8.00329731 L4.0348876,7.95429304 L4.07329224,7.90528877 L4.10929659,7.8562845 L4.14770123,7.80748025 L4.18370558,7.75887601 L4.22211022,7.71027178 L4.26051487,7.66186756 L4.29891951,7.61346334 L4.33732415,7.56525914 L4.37572879,7.51705494 L4.41413343,7.46905076 L4.45253807,7.42104658 L4.49094271,7.37324241 L4.52934735,7.32543825 L4.57015228,7.2778341 L4.60855693,7.23042997 L4.64696157,7.18302584 L4.6877665,7.13562171 L4.72617114,7.08861761 L4.76697607,7.0414135 L4.807781,6.99460942 L4.84618564,6.94760533 L4.88699057,6.90100127 L4.9277955,6.85439721 L4.96860044,6.80779315 L5.00940537,6.7613891 L5.0502103,6.71518508 L5.09101523,6.66898105 L5.13422045,6.62297704 L5.17502538,6.57717305 L5.21583031,6.53136906 L5.25903553,6.48556507 L5.29984046,6.4399611 L5.34304569,6.39455714 L5.38385062,6.34915319 L5.42705584,6.30394925 L5.47026106,6.25894533 L5.51106599,6.2139414 L5.55427121,6.1691375 L5.59747643,6.1243336 L5.64068165,6.07972971 L5.68388687,6.03512582 L5.7270921,5.99072196 L5.77029732,5.9465181 L5.81590283,5.90231425 L5.85910805,5.85831042 L5.90231327,5.8145066 L5.94791878,5.77070279 L5.991124,5.72709899 L6.03432922,5.68369521 L6.07993474,5.64049144 L6.12554025,5.59728768 L6.16874547,5.55428393 L6.21435098,5.5114802 L6.25995649,5.46887649 L6.30316171,5.42627278 L6.34876722,5.3840691 L6.39437273,5.34186542 L6.43997825,5.29966175 L6.48558376,5.2578581 L6.53118927,5.21605446 L6.57679478,5.17445084 L6.62240029,5.13304723 L6.67040609,5.09164362 L6.7160116,5.05044003 L6.76161711,5.00963648 L6.80722263,4.9686329 L6.85522843,4.92802937 L6.90083394,4.88742583 L6.94883974,4.84702231 L6.99444525,4.80681881 L7.04245105,4.76681532 L7.08805656,4.72701185 L7.13606236,4.68720838 L7.18406817,4.64760493 L7.22967368,4.6082015 L7.27767948,4.56879807 L7.32568528,4.52959465 L7.37369108,4.49079127 L7.42169688,4.45178787 L7.46970268,4.41318451 L7.51770848,4.37478116 L7.56571429,4.33637782 L7.61372009,4.29817449 L7.66172589,4.26017118 L7.70973169,4.22216787 L7.76013778,4.18456459 L7.80814358,4.14696131 L7.85614938,4.10955806 L7.90655547,4.07235481 L7.95456128,4.03515157 L8.00496737,3.99814835 L8.05297317,3.96154516 L8.10337926,3.92474195 L8.15138506,3.88833878 L8.20179115,3.85213563 L8.24979695,3.81593247 L8.30020305,3.77992934 L8.35060914,3.74412622 L8.40101523,3.70852311 L8.44902103,3.67292001 L8.49942712,3.63751693 L8.54983321,3.60231386 L8.6002393,3.56731081 L8.6506454,3.53250778 L8.70105149,3.49770475 L8.75385787,3.46330175 L8.80426396,3.42889875 L8.85467005,3.39449575 L8.90507614,3.36049279 L8.95548223,3.32668985 L9.00828861,3.2928869 L9.05869471,3.25928397 L9.1091008,3.22588106 L9.16190718,3.19267817 L9.21231327,3.15947528 L9.26511965,3.12667242 L9.31552574,3.09386956 L9.36833212,3.06126672 L9.41873822,3.02866388 L9.4715446,2.99646107 L9.52435098,2.96425827 L9.57475707,2.9324555 L9.62756345,2.90065273 L9.68036983,2.86884996 L9.73317621,2.83744722 L9.7859826,2.8062445 L9.83878898,2.77504178 L9.88919507,2.74403908 L9.94200145,2.7132364 L9.99720812,2.68263373 L10.0500145,2.65203106 L10.1028209,2.62182843 L10.1556273,2.5916258 L10.2084336,2.56162319 L10.26124,2.53182059 L10.3164467,2.50221801 L10.3692531,2.47261543 L10.4220595,2.44341289 L10.4748658,2.41421034 L10.5300725,2.38520782 L10.5828789,2.35640531 L10.6380856,2.3276028 L10.690892,2.29920032 L10.7460986,2.27079785 L10.798905,2.24259539 L10.8541117,2.21459295 L10.9069181,2.18679053 L10.9621247,2.15918812 L11.0173314,2.13178574 L11.0725381,2.10438335 L11.1253445,2.07718098 L11.1805511,2.05017863 L11.2357578,2.02337629 L11.2909645,1.99677397 L11.3461711,1.97017166 L11.4013778,1.94396937 L11.4565845,1.91776709 L11.5117912,1.89176482 L11.5669978,1.86596258 L11.6222045,1.84036035 L11.6774112,1.81495813 L11.7326178,1.78955592 L11.7878245,1.76455374 L11.8430312,1.73955156 L11.9006381,1.7147494 L11.9558448,1.69014726 L12.0110515,1.66574513 L12.0662582,1.64134301 L12.1238651,1.61734091 L12.1790718,1.59333882 L12.2342785,1.56953675 L12.2918854,1.54593469 L12.3470921,1.52253265 L12.4046991,1.49933063 L12.4599057,1.47612861 L12.5175127,1.45332662 L12.5727194,1.43052464 L12.6303263,1.40792267 L12.6879333,1.38552072 L12.74314,1.36331878 L12.8007469,1.34131687 L12.8583539,1.31951497 L12.9159608,1.29771307 L12.9711675,1.2763112 L13.0287745,1.25490934 L13.0863814,1.23370749 L13.1439884,1.21270566 L13.2015954,1.19190385 L13.2592023,1.17130205 L13.3168093,1.15070026 L13.3744162,1.1304985 L13.4296229,1.11029674 L13.4872299,1.09029499 L13.5448368,1.07049327 L13.6048441,1.05089156 L13.6624511,1.03148987 L13.720058,1.0122882 L13.777665,0.993286542 L13.8352719,0.974284887 L13.8928789,0.955483249 L13.9528861,0.937081645 L14.0104931,0.918680042 L14.0681001,0.900478456 L14.125707,0.882476888 L14.1857143,0.864675337 L14.2433212,0.846873786 L14.3009282,0.82947227 L14.3609355,0.812070754 L14.4185424,0.794869255 L14.4785497,0.778067791 L14.5361566,0.761266327 L14.5961639,0.744664881 L14.6537708,0.728263452 L14.7137781,0.711862023 L14.7713851,0.695860629 L14.8313923,0.680059252 L14.8889993,0.664257875 L14.9490065,0.648656516 L15.0090138,0.633455191 L15.0666207,0.618253867 L15.126628,0.60325256 L15.1866352,0.58845127 L15.2466425,0.573849998 L15.3042495,0.559248726 L15.3642567,0.545047489 L15.424264,0.531046269 L15.4842712,0.517045049 L15.5442785,0.503243846 L15.6018854,0.489842679 L15.6618927,0.476441511 L15.7218999,0.463240361 L15.7819072,0.450239228 L15.8419144,0.437438113 L15.9019217,0.424636998 L15.9619289,0.412235917 L16.0219362,0.400034854 L16.0819434,0.387833791 L16.1419507,0.376032763 L16.2019579,0.364231735 L16.2619652,0.352630724 L16.3219724,0.34122973 L16.3819797,0.330028755 L16.4443872,0.319027796 L16.5043945,0.308226855 L16.5644017,0.297625931 L16.624409,0.287225025 L16.6844162,0.277024136 L16.7444235,0.266823248 L16.806831,0.257022394 L16.8668383,0.24722154 L16.9268455,0.237620703 L16.9868528,0.228419902 L17.0492603,0.2192191 L17.1092676,0.210218316 L17.1692748,0.201417549 L17.2316824,0.1928168 L17.2916896,0.184416068 L17.3540972,0.176215353 L17.4141044,0.168214656 L17.4741117,0.160213959 L17.5365192,0.152613297 L17.5965265,0.145012635 L17.658934,0.137812007 L17.7189413,0.13061138 L17.7813488,0.123810787 L17.8413561,0.117010195 L17.9037636,0.11040962 L17.9637708,0.104009062 L18.0261784,0.0978085218 L18.0861856,0.091807999 L18.1485932,0.0860074936 L18.2086004,0.0804070057 L18.271008,0.0750065351 L18.3334155,0.069806082 L18.3934228,0.0648056463 L18.4558303,0.0598052107 L18.5158376,0.0552048099 L18.5782451,0.050604409 L18.6406526,0.0464040431 L18.7006599,0.0422036771 L18.7630674,0.038403346 L18.825475,0.0346030149 L18.8878825,0.0310027012 L18.9478898,0.0278024224 L19.0102973,0.0246021435 L19.0727049,0.0216018821 L19.1351124,0.0188016381 L19.1951197,0.0162014116 L19.2575272,0.0138012025 L19.3199347,0.0116010108 L19.3823423,0.0096008365 L19.4447498,0.00780067965 L19.5047571,0.00620054024 L19.5671646,0.00480041825 L19.6295722,0.00340029626 L19.6919797,0.00240020912 L19.7543872,0.00160013942 L19.8167948,0.000800069708 L19.8792023,0.000400034854 L19.9392096,0 L144.017404,0 Z M20.0064177,5.00043567 L19.9560116,5.00043567 L19.9080058,5.00083571 L19.8624003,5.00103573 L19.8167948,5.00163578 L19.768789,5.00223583 L19.7207832,5.0030359 L19.677578,5.00403599 L19.6295722,5.00503608 L19.5839666,5.00623618 L19.5383611,5.0076363 L19.4903553,5.00923644 L19.4447498,5.01083658 L19.396744,5.01263674 L19.3511385,5.01463691 L19.3031327,5.01663709 L19.2575272,5.01883728 L19.2119217,5.02123749 L19.1663162,5.02383771 L19.1183104,5.02643794 L19.0751051,5.02923818 L19.0270993,5.03223845 L18.9814938,5.03523871 L18.933488,5.03843899 L18.8878825,5.04183928 L18.842277,5.0454396 L18.7966715,5.04883989 L18.751066,5.05264022 L18.7030602,5.05664057 L18.6574547,5.06084094 L18.6118492,5.0650413 L18.5662437,5.06924167 L18.5206381,5.07384207 L18.4726323,5.07844247 L18.4270268,5.08324289 L18.3814213,5.08824333 L18.3358158,5.09324376 L18.2902103,5.09844421 L18.2446048,5.10384468 L18.1989993,5.10924516 L18.1533938,5.11484564 L18.105388,5.12064615 L18.0597825,5.12644665 L18.0165772,5.13244718 L17.9709717,5.13864772 L17.9229659,5.14504827 L17.8773604,5.15164885 L17.8341552,5.15804941 L17.7861494,5.16485 L17.7405439,5.17185061 L17.6973387,5.1786512 L17.6517331,5.18585183 L17.6037273,5.19325247 L17.5605221,5.2004531 L17.5149166,5.20805376 L17.4693111,5.21585444 L17.4237056,5.22365512 L17.3781001,5.23165582 L17.3324946,5.23965652 L17.2868891,5.24805725 L17.2412835,5.256658 L17.1980783,5.26485871 L17.1524728,5.27345946 L17.1068673,5.28246025 L17.0636621,5.29126101 L17.0180566,5.30046182 L16.9700508,5.30986263 L16.9268455,5.31886342 L16.8836403,5.32826424 L16.8380348,5.33806509 L16.7924293,5.34786595 L16.7468238,5.35786682 L16.7036186,5.36766767 L16.6580131,5.37806858 L16.6124075,5.38826947 L16.5692023,5.39867037 L16.5235968,5.4092713 L16.4803916,5.4196722 L16.4347861,5.43067316 L16.3915809,5.44167412 L16.3459753,5.45267508 L16.3027701,5.46387605 L16.2547643,5.47567708 L16.2115591,5.48707807 L16.1683539,5.49847907 L16.1227484,5.51048011 L16.0795431,5.52208112 L16.0363379,5.53428219 L15.9907324,5.54648325 L15.9475272,5.55908435 L15.9019217,5.57148543 L15.8611168,5.58368649 L15.8155112,5.59648761 L15.772306,5.60948874 L15.7267005,5.62248987 L15.6834953,5.63569102 L15.6402901,5.64889217 L15.5946846,5.66229334 L15.5514793,5.67589453 L15.5082741,5.68949571 L15.4650689,5.70289688 L15.4218637,5.7168981 L15.3762582,5.73129935 L15.3330529,5.74550059 L15.2898477,5.75990185 L15.2466425,5.77390307 L15.2034373,5.78850434 L15.1602321,5.80350564 L15.1170268,5.81830693 L15.0738216,5.83330824 L15.0306164,5.84830955 L14.9874112,5.86351087 L14.9442059,5.87891221 L14.9010007,5.89431356 L14.8577955,5.90991492 L14.8169906,5.92551627 L14.7737854,5.94131765 L14.7281798,5.9579191 L14.6873749,5.97392049 L14.6441697,5.98992189 L14.6009645,6.00632332 L14.5577592,6.02292476 L14.514554,6.03992624 L14.4737491,6.05632767 L14.4305439,6.07332915 L14.3873387,6.09053065 L14.3465337,6.10733212 L14.3033285,6.12493365 L14.2601233,6.14233517 L14.2193183,6.15973668 L14.1761131,6.17773825 L14.1353082,6.1955398 L14.092103,6.21334135 L14.051298,6.23134292 L14.0080928,6.24994454 L13.9672879,6.26834614 L13.9240827,6.28654773 L13.8832777,6.30514935 L13.8424728,6.32375097 L13.8016679,6.34235259 L13.7584627,6.36135425 L13.7152574,6.38075594 L13.6744525,6.39995761 L13.6336476,6.41915928 L13.5928426,6.43896101 L13.5496374,6.45856272 L13.5088325,6.47816443 L13.4680276,6.49796615 L13.4272226,6.51796789 L13.3864177,6.53796964 L13.3456128,6.55857143 L13.3024075,6.57897321 L13.2640029,6.59917497 L13.223198,6.61957675 L13.182393,6.64077859 L13.1415881,6.66178042 L13.1007832,6.68238222 L13.0599782,6.70358407 L13.0191733,6.7245859 L12.9783684,6.74618778 L12.9375635,6.76778966 L12.8991588,6.78919152 L12.8583539,6.81119344 L12.8175489,6.83319536 L12.776744,6.85499726 L12.7359391,6.87719919 L12.6975344,6.89940113 L12.6567295,6.9220031 L12.6183249,6.94420503 L12.5775199,6.96660698 L12.536715,6.989809 L12.4983104,7.01221096 L12.4575054,7.03541298 L12.4191008,7.058615 L12.3782959,7.081617 L12.3398912,7.10521906 L12.2990863,7.12882112 L12.2606817,7.15202314 L12.222277,7.17582521 L12.1814721,7.1998273 L12.1430674,7.22402941 L12.1046628,7.2480315 L12.0662582,7.27183358 L12.0254532,7.2962357 L11.9870486,7.32063783 L11.9486439,7.34543999 L11.9102393,7.37044217 L11.8718347,7.39464428 L11.83343,7.41964645 L11.7926251,7.4454487 L11.7566207,7.47025086 L11.7182161,7.49545306 L11.6798115,7.52085527 L11.6414068,7.5464575 L11.6030022,7.57205973 L11.5645975,7.59766196 L11.5285932,7.62346421 L11.4901885,7.64986651 L11.4517839,7.67586878 L11.4133793,7.70187104 L11.3749746,7.72907341 L11.3389703,7.75507568 L11.3005656,7.78147798 L11.262161,7.80868035 L11.2261566,7.83548269 L11.187752,7.86228502 L11.1517476,7.88928737 L11.1157433,7.91648974 L11.0773387,7.94429217 L11.0413343,7.97169455 L11.0029297,7.99869691 L10.9669253,8.02669935 L10.930921,8.05450177 L10.8925163,8.08250421 L10.856512,8.11050665 L10.8205076,8.1387091 L10.7845033,8.16691156 L10.7484989,8.19531404 L10.7100943,8.22391653 L10.6740899,8.25251902 L10.6380856,8.28192158 L10.6020812,8.31032406 L10.5660769,8.33932658 L10.5300725,8.36892916 L10.4940682,8.39773167 L10.4604641,8.42653418 L10.4244598,8.45613676 L10.3884554,8.48573934 L10.3524511,8.51554194 L10.3164467,8.54554455 L10.2804423,8.57614722 L10.2468383,8.6057498 L10.2132342,8.63535238 L10.1748296,8.66635508 L10.1412255,8.69635769 L10.1076215,8.72656032 L10.0716171,8.75736301 L10.0380131,8.78816569 L10.0020087,8.81876836 L9.96840464,8.85037111 L9.93240029,8.88177385 L9.90119652,8.91137642 L9.86519217,8.94357923 L9.83158811,8.97518198 L9.79798405,9.0063847 L9.7619797,9.03838749 L9.72837563,9.06979023 L9.69477157,9.10259309 L9.66116751,9.13419584 L9.62756345,9.16559857 L9.59395939,9.19820142 L9.56035533,9.23080426 L9.52675127,9.26360711 L9.4955475,9.29540988 L9.45954315,9.32841276 L9.42833938,9.36161565 L9.39473532,9.39421849 L9.36113125,9.4276214 L9.32992748,9.46042426 L9.29632342,9.49342714 L9.26271936,9.52703007 L9.23151559,9.56023296 L9.20031182,9.59343585 L9.16670776,9.6272388 L9.13550399,9.66064171 L9.10189993,9.69524472 L9.07069616,9.72884765 L9.03949239,9.76185052 L9.00828861,9.7960535 L8.97468455,9.83105655 L8.94348078,9.86545955 L8.91227701,9.89866244 L8.88107324,9.93346548 L8.84986947,9.96806849 L8.82106599,10.0014714 L8.78986222,10.0362744 L8.75865845,10.0718775 L8.72745468,10.1068806 L8.69625091,10.1418836 L8.66744743,10.1762866 L8.63624365,10.2110897 L8.60503988,10.2462927 L8.5762364,10.2820959 L8.54503263,10.3168989 L8.51622915,10.3519019 L8.48502538,10.3881051 L8.4562219,10.4231081 L8.42741842,10.4589113 L8.39861494,10.4945144 L8.36981146,10.5303175 L8.33860769,10.5669207 L8.30980421,10.6029238 L8.28100073,10.6385269 L8.25219724,10.67373 L8.22339376,10.7107332 L8.19459028,10.7471364 L8.16818709,10.7827395 L8.13938361,10.8197427 L8.11058013,10.8561459 L8.08177665,10.8927491 L8.05537346,10.9295523 L8.02656998,10.9661555 L8.00016679,11.0029587 L7.97136331,11.0397619 L7.94496012,11.0773651 L7.91615664,11.1143684 L7.88975344,11.1505715 L7.86335025,11.1883748 L7.83454677,11.2263781 L7.80814358,11.2627813 L7.78174039,11.3005846 L7.7553372,11.3379878 L7.72893401,11.3755911 L7.70253082,11.4129944 L7.67612763,11.4503976 L7.64972444,11.488801 L7.62332125,11.5270043 L7.59691806,11.5648076 L7.57291516,11.6026109 L7.54651197,11.6410143 L7.52250906,11.6784175 L7.49610587,11.7170209 L7.46970268,11.7558243 L7.44569978,11.7938276 L7.41929659,11.8326309 L7.39529369,11.8710343 L7.3688905,11.9098377 L7.3448876,11.948041 L7.3208847,11.9860443 L7.2968818,12.0260478 L7.2728789,12.0656512 L7.248876,12.1034545 L7.2248731,12.1422579 L7.2008702,12.1816614 L7.1768673,12.2210648 L7.15286439,12.2606682 L7.12886149,12.2992716 L7.10485859,12.3388751 L7.08085569,12.3788785 L7.05925308,12.4178819 L7.03525018,12.4566853 L7.01364757,12.4974889 L6.98964467,12.5378924 L6.96804206,12.5764958 L6.94403916,12.6156992 L6.92243655,12.6563027 L6.89843365,12.6969062 L6.87683104,12.7363097 L6.85522843,12.7761131 L6.83362582,12.8175168 L6.81202321,12.8569202 L6.79042059,12.8965236 L6.76881798,12.9381273 L6.74721537,12.9783308 L6.72561276,13.0185343 L6.70401015,13.0587378 L6.68240754,13.0995413 L6.66080493,13.141345 L6.64160261,13.1813485 L6.62,13.2213519 L6.59839739,13.2629556 L6.57919507,13.3041592 L6.55999275,13.3443627 L6.53839014,13.3851662 L6.51918782,13.4267698 L6.49758521,13.4681734 L6.47838289,13.509177 L6.45918057,13.5509807 L6.43997825,13.5915842 L6.42077592,13.6327878 L6.39917331,13.6747914 L6.37997099,13.7165951 L6.36316896,13.7577987 L6.34156635,13.7996023 L6.32476432,13.841406 L6.305562,13.8828096 L6.28635968,13.9242132 L6.26955765,13.9664169 L6.25035533,14.0084205 L6.23115301,14.0500241 L6.21435098,14.0926279 L6.19514866,14.1344315 L6.17834663,14.1762351 L6.15914431,14.2190389 L6.14234228,14.2608425 L6.12554025,14.3028462 L6.10873822,14.3458499 L6.0895359,14.3884536 L6.07273387,14.4304573 L6.05593183,14.472661 L6.0391298,14.5162648 L6.02232777,14.5584684 L6.00792603,14.599872 L5.991124,14.6436759 L5.97432197,14.6870796 L5.95751994,14.7284833 L5.9431182,14.771287 L5.92631617,14.8152908 L5.90951414,14.8578945 L5.8951124,14.9006983 L5.87831037,14.943702 L5.86390863,14.9869058 L5.84950689,15.0297095 L5.83270486,15.0727132 L5.81830312,15.116317 L5.80390138,15.1607209 L5.78949964,15.2037247 L5.7750979,15.2457283 L5.76069616,15.2893321 L5.74629442,15.3331359 L5.73189268,15.3775398 L5.71749094,15.4211436 L5.7030892,15.4637473 L5.68868745,15.5073511 L5.676686,15.5511549 L5.66228426,15.5947587 L5.65028281,15.6389626 L5.63588107,15.6827664 L5.62147933,15.7267702 L5.60947788,15.7707741 L5.59747643,15.8147779 L5.58307469,15.8589818 L5.57107324,15.9031856 L5.55907179,15.9465894 L5.54707034,15.9907932 L5.53506889,16.0349971 L5.52306744,16.0782009 L5.51106599,16.1240048 L5.49906454,16.1684087 L5.48706309,16.2118125 L5.47506164,16.2566164 L5.46546048,16.3002202 L5.45345903,16.3450241 L5.44145758,16.389628 L5.43185642,16.4344319 L5.41985497,16.4794358 L5.41025381,16.5234396 L5.39825236,16.5684436 L5.3886512,16.6122474 L5.37905004,16.6570513 L5.36704859,16.7024552 L5.35744743,16.7476592 L5.34784627,16.7926631 L5.33824511,16.8358669 L5.32864394,16.8812708 L5.31904278,16.9266748 L5.30944162,16.9708786 L5.29984046,17.0162826 L5.29263959,17.0618866 L5.28303843,17.1076905 L5.27343727,17.1520944 L5.2662364,17.1964983 L5.25663524,17.2421023 L5.24943437,17.2867061 L5.23983321,17.33151 L5.23263234,17.377314 L5.22303118,17.423118 L5.21583031,17.4693221 L5.20862944,17.514126 L5.20142857,17.5589299 L5.1942277,17.6039338 L5.18702683,17.6499378 L5.17982596,17.6963418 L5.17262509,17.7401457 L5.16542422,17.7863497 L5.15822335,17.8327537 L5.15102248,17.8777576 L5.1462219,17.9229616 L5.13902103,17.9683655 L5.13182016,18.0147696 L5.12701958,18.0599735 L5.11981871,18.1055775 L5.11501813,18.1521816 L5.11021755,18.1977855 L5.10301668,18.2431895 L5.0982161,18.2897935 L5.09341552,18.3353975 L5.08861494,18.3810015 L5.08381436,18.4268055 L5.07901378,18.4724095 L5.0742132,18.5194135 L5.06941262,18.5650175 L5.06461204,18.6108215 L5.06221175,18.6568255 L5.05741117,18.7026295 L5.05261059,18.7498336 L5.0502103,18.7958376 L5.04540972,18.8406415 L5.04300943,18.8878456 L5.03820885,18.9338497 L5.03580856,18.9800537 L5.03100798,19.0262577 L5.02860769,19.0722617 L5.0262074,19.1196658 L5.02380711,19.1646698 L5.02140682,19.2110738 L5.01900653,19.2574779 L5.01660624,19.3036819 L5.01420595,19.3500859 L5.01180566,19.39649 L5.01180566,19.4440941 L5.00940537,19.4906982 L5.00700508,19.5359021 L5.00700508,19.5825062 L5.00460479,19.6291102 L5.00460479,19.6745142 L5.0022045,19.7223184 L5.0022045,19.9093346 L4.99980421,19.9549386 L4.99980421,340.07563 L5.0022045,340.121634 L5.0022045,340.30965 L5.00460479,340.357654 L5.00460479,340.401658 L5.00700508,340.449662 L5.00700508,340.495666 L5.00940537,340.53967 L5.01180566,340.587675 L5.01180566,340.635679 L5.0262074,340.911703 L5.02860769,340.959707 L5.03340827,341.005711 L5.03820885,341.097719 L5.04300943,341.143723 L5.04540972,341.191727 L5.0502103,341.235731 L5.05261059,341.281735 L5.06221175,341.373743 L5.06461204,341.419747 L5.0742132,341.511755 L5.07901378,341.559759 L5.08381436,341.603763 L5.10301668,341.787779 L5.11021755,341.833783 L5.11981871,341.925791 L5.12701958,341.971795 L5.13182016,342.015799 L5.1462219,342.107807 L5.15102248,342.153811 L5.15822335,342.197815 L5.16542422,342.245819 L5.17262509,342.291823 L5.17982596,342.335827 L5.1942277,342.427835 L5.20142857,342.471839 L5.20862944,342.517843 L5.21583031,342.561847 L5.22303118,342.607851 L5.23263234,342.653855 L5.23983321,342.699859 L5.24943437,342.743862 L5.25663524,342.789866 L5.2662364,342.83587 L5.27343727,342.879874 L5.28303843,342.923878 L5.29263959,342.969882 L5.29984046,343.013886 L5.30944162,343.06189 L5.32864394,343.149898 L5.33824511,343.195902 L5.34784627,343.237905 L5.36704859,343.329913 L5.37905004,343.373917 L5.3886512,343.419921 L5.39825236,343.463925 L5.41025381,343.507929 L5.41985497,343.551933 L5.43185642,343.597937 L5.44145758,343.641941 L5.45345903,343.685944 L5.46546048,343.731948 L5.47506164,343.775952 L5.48706309,343.819956 L5.49906454,343.86196 L5.52306744,343.953968 L5.53506889,343.995971 L5.58307469,344.171987 L5.59747643,344.215991 L5.60947788,344.261995 L5.62147933,344.303998 L5.65028281,344.392006 L5.66228426,344.43601 L5.676686,344.480014 L5.68868745,344.524017 L5.7030892,344.568021 L5.71749094,344.610025 L5.7750979,344.78604 L5.80390138,344.870048 L5.83270486,344.958055 L5.84950689,345.002059 L5.86390863,345.044063 L5.87831037,345.088067 L5.8951124,345.13007 L5.90951414,345.172074 L5.9431182,345.260082 L5.95751994,345.302085 L5.97432197,345.344089 L6.00792603,345.432097 L6.02232777,345.4741 L6.05593183,345.558108 L6.07273387,345.602111 L6.0895359,345.644115 L6.10633793,345.684119 L6.12554025,345.728122 L6.15914431,345.81213 L6.17834663,345.854133 L6.19514866,345.898137 L6.21435098,345.938141 L6.23115301,345.980144 L6.25035533,346.024148 L6.26955765,346.064152 L6.28635968,346.108155 L6.305562,346.148159 L6.34396664,346.232166 L6.36076867,346.27217 L6.39917331,346.356177 L6.42077592,346.398181 L6.43997825,346.440184 L6.45918057,346.480188 L6.49758521,346.564195 L6.51918782,346.604199 L6.53839014,346.646202 L6.55759246,346.686206 L6.57919507,346.726209 L6.60079768,346.768213 L6.62,346.810217 L6.64160261,346.85022 L6.66080493,346.890224 L6.68240754,346.932227 L6.70401015,346.972231 L6.72561276,347.014234 L6.74721537,347.052238 L6.76641769,347.092241 L6.79042059,347.136245 L6.81202321,347.174248 L6.83362582,347.214252 L6.85522843,347.256256 L6.87683104,347.294259 L6.89843365,347.334262 L6.92243655,347.376266 L6.94403916,347.416269 L6.96804206,347.454273 L6.98964467,347.494276 L7.01364757,347.53428 L7.03525018,347.574283 L7.05925308,347.614287 L7.08085569,347.65229 L7.12886149,347.732297 L7.15286439,347.7703 L7.1768673,347.810304 L7.2008702,347.848307 L7.2248731,347.890311 L7.2728789,347.966317 L7.2968818,348.006321 L7.3208847,348.044324 L7.34728789,348.084328 L7.3688905,348.122331 L7.39529369,348.158334 L7.41929659,348.198338 L7.44569978,348.238341 L7.46970268,348.276344 L7.52250906,348.352351 L7.54651197,348.390354 L7.59931835,348.466361 L7.62332125,348.504364 L7.78174039,348.732384 L7.83454677,348.80439 L7.86335025,348.844394 L7.91615664,348.9164 L7.94496012,348.954403 L7.97136331,348.992407 L8.00016679,349.02841 L8.02656998,349.064413 L8.08417694,349.14042 L8.11058013,349.174423 L8.13938361,349.212426 L8.16818709,349.248429 L8.19459028,349.282432 L8.22339376,349.320435 L8.25459753,349.358439 L8.28100073,349.392442 L8.33860769,349.464448 L8.36981146,349.502451 L8.39861494,349.536454 L8.4562219,349.60846 L8.48502538,349.642463 L8.51622915,349.678467 L8.54503263,349.71447 L8.60744017,349.786476 L8.63624365,349.818479 L8.66744743,349.856482 L8.69625091,349.890485 L8.75865845,349.958491 L8.78746193,349.994494 L8.84986947,350.0625 L8.88107324,350.098503 L8.97468455,350.200512 L9.00828861,350.236515 L9.03949239,350.268518 L9.1331037,350.370527 L9.20031182,350.438533 L9.23151559,350.470536 L9.26271936,350.504539 L9.29632342,350.538542 L9.32992748,350.570544 L9.36113125,350.602547 L9.42833938,350.670553 L9.45954315,350.702556 L9.4955475,350.736559 L9.52675127,350.768562 L9.69477157,350.928575 L9.73077592,350.962578 L9.7619797,350.992581 L9.79558376,351.024584 L9.83158811,351.056587 L9.86519217,351.088589 L9.90119652,351.120592 L9.93240029,351.150595 L9.96840464,351.180597 L10.0020087,351.2126 L10.0356128,351.242603 L10.0716171,351.272605 L10.1076215,351.304608 L10.1748296,351.364613 L10.2468383,351.424619 L10.2828426,351.456621 L10.3524511,351.514627 L10.3884554,351.546629 L10.4580638,351.604634 L10.4940682,351.632637 L10.5300725,351.662639 L10.5684772,351.692642 L10.6380856,351.750647 L10.7100943,351.806652 L10.7484989,351.836655 L10.782103,351.864657 L10.8205076,351.892659 L10.8925163,351.948664 L10.9285207,351.974667 L10.9669253,352.004669 L11.0029297,352.032672 L11.038934,352.058674 L11.0773387,352.088677 L11.1157433,352.114679 L11.1517476,352.140681 L11.187752,352.168684 L11.2261566,352.196686 L11.262161,352.222688 L11.3005656,352.248691 L11.3389703,352.276693 L11.3749746,352.302695 L11.4517839,352.3547 L11.4877883,352.380702 L11.5285932,352.408704 L11.5645975,352.434707 L11.6030022,352.458709 L11.7182161,352.536716 L11.7566207,352.560718 L11.7926251,352.58672 L11.83343,352.612722 L11.9102393,352.660726 L11.9486439,352.686729 L11.9870486,352.708731 L12.0254532,352.734733 L12.0662582,352.758735 L12.1046628,352.782737 L12.1430674,352.808739 L12.1814721,352.830741 L12.2198767,352.854743 L12.2606817,352.878745 L12.2990863,352.902747 L12.3806962,352.950752 L12.4167005,352.972754 L12.4575054,352.994756 L12.5391153,353.04276 L12.5775199,353.064762 L12.6183249,353.086764 L12.6567295,353.108765 L12.6951342,353.132768 L12.7383394,353.154769 L12.776744,353.174771 L12.8175489,353.198773 L12.8991588,353.242777 L12.9375635,353.262779 L13.0599782,353.328785 L13.1007832,353.348786 L13.1415881,353.370788 L13.223198,353.410792 L13.2640029,353.432794 L13.5088325,353.552804 L13.5520377,353.572806 L13.5928426,353.592808 L13.6312473,353.610809 L13.7176577,353.650813 L13.7584627,353.668814 L13.7992676,353.688816 L13.8424728,353.706818 L13.8832777,353.726819 L13.9240827,353.744821 L13.9672879,353.762822 L14.0104931,353.782824 L14.0488978,353.798826 L14.092103,353.818827 L14.1353082,353.836829 L14.1761131,353.85283 L14.2217186,353.872832 L14.2625236,353.888833 L14.3033285,353.906835 L14.3441334,353.922836 L14.4305439,353.95884 L14.4737491,353.974841 L14.5169543,353.992842 L14.5601595,354.008844 L14.6009645,354.024845 L14.6441697,354.040847 L14.6873749,354.058848 L14.7305801,354.07485 L14.7713851,354.088851 L14.8169906,354.106852 L14.8577955,354.120854 L14.9442059,354.152856 L14.9874112,354.166858 L15.0738216,354.19886 L15.1194271,354.212862 L15.1602321,354.228863 L15.2898477,354.270867 L15.3354532,354.286868 L15.3762582,354.300869 L15.4218637,354.314871 L15.4650689,354.328872 L15.5082741,354.340873 L15.5946846,354.368875 L15.6402901,354.382876 L15.6834953,354.394877 L15.7243002,354.408879 L15.772306,354.42088 L15.8155112,354.434881 L15.8611168,354.446882 L15.904322,354.460883 L15.9451269,354.472884 L15.9931327,354.484885 L16.1227484,354.520888 L16.1683539,354.53289 L16.2115591,354.544891 L16.2571646,354.554891 L16.3027701,354.566892 L16.3459753,354.578894 L16.3891806,354.588894 L16.4803916,354.612896 L16.5235968,354.622897 L16.6148078,354.642899 L16.6556128,354.6529 L16.7012183,354.662901 L16.7492241,354.674902 L16.7948296,354.684903 L16.8356345,354.692903 L16.88124,354.702904 L16.9292458,354.712905 L16.9700508,354.720906 L17.0180566,354.730907 L17.0636621,354.740908 L17.1092676,354.748908 L17.1548731,354.758909 L17.1980783,354.76691 L17.2436838,354.774911 L17.2868891,354.782911 L17.3324946,354.790912 L17.3805004,354.800913 L17.4237056,354.806913 L17.4669108,354.814914 L17.5125163,354.822915 L17.5605221,354.830915 L17.6061276,354.838916 L17.6517331,354.844917 L17.6949384,354.852917 L17.7405439,354.858918 L17.7885497,354.866919 L17.8341552,354.872919 L17.8773604,354.87892 L17.9229659,354.88692 L17.9685714,354.892921 L18.0165772,354.898921 L18.0597825,354.904922 L18.105388,354.910922 L18.1533938,354.916923 L18.1989993,354.922924 L18.2446048,354.926924 L18.2902103,354.932924 L18.3382161,354.938925 L18.3814213,354.942925 L18.4270268,354.948926 L18.4726323,354.952926 L18.5206381,354.956926 L18.5638434,354.962927 L18.659855,354.970928 L18.7030602,354.974928 L18.751066,354.978928 L18.7966715,354.982929 L18.8398767,354.986929 L18.8878825,354.988929 L18.933488,354.99293 L18.9814938,354.99693 L19.0270993,354.99893 L19.0727049,355.00293 L19.1207107,355.004931 L19.1663162,355.006931 L19.2119217,355.010931 L19.3031327,355.014932 L19.3511385,355.016932 L19.396744,355.018932 L19.4447498,355.020932 L19.4903553,355.022932 L19.5359608,355.022932 L19.6319724,355.026933 L19.677578,355.026933 L19.7207832,355.028933 L19.8143945,355.028933 L19.8624003,355.030933 L268.172408,355.030933 L268.220413,355.028933 L268.314025,355.028933 L268.35963,355.026933 L268.402835,355.026933 L268.450841,355.024932 L268.498847,355.022932 L268.544453,355.022932 L268.590058,355.020932 L268.638064,355.018932 L268.683669,355.016932 L268.731675,355.014932 L268.777281,355.012931 L268.822886,355.010931 L268.868492,355.006931 L268.914097,355.004931 L268.962103,355.00293 L269.007708,354.99893 L269.053314,354.99693 L269.10132,354.99293 L269.146925,354.988929 L269.194931,354.986929 L269.238136,354.982929 L269.283742,354.978928 L269.331748,354.974928 L269.377353,354.970928 L269.422959,354.966927 L269.470964,354.962927 L269.51417,354.956926 L269.562175,354.952926 L269.607781,354.948926 L269.653387,354.942925 L269.696592,354.938925 L269.744598,354.932924 L269.790203,354.926924 L269.835809,354.922924 L269.881414,354.916923 L269.92942,354.910922 L269.975025,354.904922 L270.020631,354.898921 L270.066236,354.892921 L270.111842,354.88692 L270.155047,354.87892 L270.200653,354.872919 L270.246258,354.866919 L270.294264,354.858918 L270.339869,354.852917 L270.383075,354.844917 L270.42868,354.838916 L270.476686,354.830915 L270.522292,354.822915 L270.567897,354.814914 L270.611102,354.806913 L270.654307,354.800913 L270.702313,354.790912 L270.747919,354.782911 L270.791124,354.774911 L270.83673,354.76691 L270.879935,354.758909 L270.92554,354.748908 L270.973546,354.740908 L271.019152,354.730907 L271.062357,354.720906 L271.105562,354.712905 L271.153568,354.702904 L271.199173,354.692903 L271.239978,354.684903 L271.285584,354.674902 L271.33359,354.662901 L271.379195,354.6529 L271.42,354.642899 L271.465606,354.632898 L271.511211,354.622897 L271.554416,354.612896 L271.600022,354.600895 L271.645627,354.588894 L271.688832,354.578894 L271.732038,354.566892 L271.777643,354.554891 L271.823249,354.544891 L271.866454,354.53289 L271.912059,354.520888 L271.955265,354.508887 L271.99847,354.496886 L272.041675,354.484885 L272.089681,354.472884 L272.130486,354.460883 L272.176091,354.446882 L272.219297,354.434881 L272.262502,354.42288 L272.310508,354.408879 L272.351313,354.394877 L272.392117,354.382876 L272.440123,354.368875 L272.483328,354.354874 L272.526534,354.342873 L272.569739,354.328872 L272.615344,354.314871 L272.65855,354.300869 L272.699355,354.286868 L272.74496,354.270867 L272.788165,354.256865 L272.831371,354.242864 L272.874576,354.228863 L272.915381,354.212862 L272.960986,354.19886 L273.004191,354.182859 L273.047397,354.166858 L273.090602,354.152856 L273.133807,354.136855 L273.177012,354.120854 L273.220218,354.106852 L273.263423,354.088851 L273.304228,354.07485 L273.347433,354.058848 L273.390638,354.040847 L273.433843,354.024845 L273.474648,354.008844 L273.517854,353.992842 L273.561059,353.974841 L273.604264,353.95884 L273.647469,353.940838 L273.690674,353.922836 L273.731479,353.906835 L273.772284,353.888833 L273.813089,353.872832 L273.858695,353.85283 L273.8995,353.836829 L273.942705,353.818827 L273.98591,353.798826 L274.024315,353.782824 L274.06512,353.764823 L274.110725,353.744821 L274.15153,353.726819 L274.192335,353.706818 L274.23554,353.688816 L274.276345,353.668814 L274.31715,353.650813 L274.360355,353.630811 L274.403561,353.610809 L274.441965,353.592808 L274.48277,353.572806 L274.525975,353.552804 L274.56678,353.532802 L274.607585,353.512801 L274.64839,353.492799 L274.691595,353.472797 L274.73,353.452795 L274.770805,353.432794 L274.81161,353.410792 L274.852415,353.39079 L274.89322,353.370788 L274.936425,353.348786 L274.97483,353.326784 L275.015635,353.306783 L275.056439,353.284781 L275.097244,353.262779 L275.135649,353.242777 L275.176454,353.220775 L275.217259,353.198773 L275.258064,353.176771 L275.296468,353.154769 L275.337273,353.132768 L275.378078,353.108765 L275.418883,353.086764 L275.457288,353.064762 L275.495693,353.04276 L275.536497,353.018758 L275.579703,352.994756 L275.618107,352.972754 L275.654112,352.950752 L275.694917,352.92675 L275.735722,352.902747 L275.774126,352.878745 L275.814931,352.854743 L275.853336,352.830741 L275.89174,352.808739 L275.930145,352.782737 L275.96855,352.758735 L276.009355,352.734733 L276.05016,352.708731 L276.086164,352.686729 L276.124569,352.660726 L276.162973,352.636724 L276.201378,352.612722 L276.239782,352.58672 L276.280587,352.560718 L276.316592,352.536716 L276.354996,352.510713 L276.393401,352.484711 L276.431806,352.458709 L276.47021,352.434707 L276.506215,352.408704 L276.54702,352.380702 L276.583024,352.3547 L276.621429,352.328697 L276.659833,352.302695 L276.695838,352.276693 L276.734242,352.248691 L276.772647,352.222688 L276.808651,352.196686 L276.844656,352.168684 L276.88306,352.140681 L276.921465,352.114679 L276.957469,352.088677 L276.995874,352.058674 L277.031878,352.032672 L277.067883,352.004669 L277.106287,351.974667 L277.142292,351.948664 L277.178296,351.920662 L277.2143,351.892659 L277.250305,351.864657 L277.286309,351.836655 L277.324714,351.806652 L277.360718,351.77865 L277.396722,351.750647 L277.432727,351.720645 L277.468731,351.692642 L277.504735,351.662639 L277.538339,351.634637 L277.576744,351.604634 L277.612748,351.574632 L277.646352,351.544629 L277.682357,351.514627 L277.715961,351.486624 L277.751965,351.456621 L277.78797,351.426619 L277.821574,351.396616 L277.859978,351.364613 L277.891182,351.336611 L277.927186,351.304608 L277.965591,351.272605 L277.999195,351.242603 L278.032799,351.2126 L278.066403,351.180597 L278.102408,351.150595 L278.136012,351.118592 L278.169616,351.086589 L278.20322,351.056587 L278.236824,351.024584 L278.272828,350.992581 L278.304032,350.962578 L278.340036,350.930576 L278.37364,350.896573 L278.407244,350.86457 L278.440848,350.832567 L278.474453,350.800564 L278.508057,350.768562 L278.541661,350.736559 L278.572864,350.704556 L278.606468,350.670553 L278.640073,350.63655 L278.673677,350.602547 L278.70488,350.570544 L278.738484,350.538542 L278.772088,350.504539 L278.803292,350.470536 L278.836896,350.438533 L278.8681,350.40453 L278.901704,350.370527 L278.932908,350.336524 L278.966512,350.302521 L278.995315,350.268518 L279.026519,350.236515 L279.057723,350.202512 L279.091327,350.166509 L279.122531,350.130506 L279.151334,350.098503 L279.184938,350.0625 L279.216142,350.028497 L279.247346,349.994494 L279.27855,349.958491 L279.307353,349.924488 L279.338557,349.890485 L279.369761,349.854482 L279.398564,349.820479 L279.427368,349.786476 L279.458571,349.750473 L279.487375,349.71447 L279.518579,349.678467 L279.549782,349.642463 L279.578586,349.60646 L279.607389,349.570457 L279.636193,349.536454 L279.664996,349.502451 L279.6962,349.464448 L279.725004,349.428445 L279.753807,349.392442 L279.782611,349.356439 L279.811414,349.320435 L279.840218,349.282432 L279.866621,349.248429 L279.895424,349.212426 L279.924228,349.174423 L279.953031,349.13842 L279.979434,349.102416 L280.008238,349.066413 L280.034641,349.02841 L280.063445,348.990407 L280.089848,348.954403 L280.118651,348.9164 L280.145054,348.880397 L280.171458,348.844394 L280.200261,348.80439 L280.226664,348.768387 L280.253067,348.730384 L280.279471,348.694381 L280.305874,348.658378 L280.332277,348.618374 L280.35868,348.580371 L280.385083,348.542368 L280.411487,348.504364 L280.435489,348.468361 L280.461893,348.428358 L280.488296,348.390354 L280.512299,348.352351 L280.538702,348.314348 L280.565105,348.276344 L280.589108,348.236341 L280.615511,348.198338 L280.639514,348.160334 L280.665917,348.122331 L280.68752,348.084328 L280.713923,348.044324 L280.737926,348.004321 L280.761929,347.966317 L280.785932,347.928314 L280.809935,347.890311 L280.833938,347.848307 L280.860341,347.808304 L280.881943,347.7703 L280.905946,347.732297 L280.929949,347.692294 L280.953952,347.65229 L280.975555,347.612287 L280.999558,347.574283 L281.02116,347.53428 L281.045163,347.494276 L281.066766,347.454273 L281.090769,347.416269 L281.112371,347.374266 L281.133974,347.336263 L281.157977,347.296259 L281.179579,347.254255 L281.203582,347.212252 L281.222785,347.174248 L281.244387,347.136245 L281.26599,347.094241 L281.287592,347.052238 L281.309195,347.012234 L281.330798,346.972231 L281.3524,346.930227 L281.374003,346.890224 L281.393205,346.85022 L281.414808,346.810217 L281.43401,346.770213 L281.455613,346.726209 L281.477215,346.686206 L281.496418,346.646202 L281.51802,346.604199 L281.537223,346.564195 L281.556425,346.522192 L281.575627,346.480188 L281.59483,346.440184 L281.616432,346.398181 L281.635635,346.356177 L281.652437,346.316174 L281.674039,346.27217 L281.693241,346.232166 L281.710044,346.190163 L281.729246,346.148159 L281.748448,346.108155 L281.76525,346.066152 L281.784453,346.024148 L281.803655,345.980144 L281.820457,345.938141 L281.839659,345.896137 L281.856461,345.854133 L281.873263,345.81413 L281.892466,345.770126 L281.909268,345.728122 L281.92847,345.684119 L281.945272,345.644115 L281.962074,345.602111 L281.978876,345.558108 L281.995678,345.516104 L282.01248,345.4741 L282.026882,345.432097 L282.046084,345.386093 L282.060486,345.344089 L282.077288,345.304085 L282.09409,345.258081 L282.108492,345.216078 L282.125294,345.172074 L282.139695,345.13007 L282.156497,345.088067 L282.170899,345.044063 L282.185301,345.002059 L282.202103,344.958055 L282.216505,344.914051 L282.230906,344.870048 L282.245308,344.828044 L282.25971,344.78604 L282.274112,344.742036 L282.288513,344.698033 L282.302915,344.652029 L282.317317,344.612025 L282.331719,344.568021 L282.34612,344.524017 L282.358122,344.480014 L282.372524,344.43601 L282.386925,344.392006 L282.398927,344.348002 L282.413328,344.303998 L282.42533,344.261995 L282.437331,344.215991 L282.451733,344.171987 L282.463735,344.129983 L282.475736,344.083979 L282.487737,344.039975 L282.499739,343.997972 L282.51174,343.953968 L282.523742,343.905964 L282.535743,343.86196 L282.547745,343.819956 L282.557346,343.777952 L282.569347,343.731948 L282.581349,343.685944 L282.59335,343.63994 L282.605352,343.595937 L282.614953,343.553933 L282.624554,343.507929 L282.636555,343.463925 L282.646157,343.419921 L282.658158,343.373917 L282.667759,343.327913 L282.67736,343.28591 L282.686962,343.239906 L282.696563,343.193902 L282.706164,343.149898 L282.715765,343.105894 L282.725366,343.06189 L282.734967,343.013886 L282.742168,342.969882 L282.751769,342.923878 L282.761371,342.879874 L282.768571,342.83587 L282.778173,342.789866 L282.787774,342.743862 L282.794975,342.699859 L282.802175,342.653855 L282.811777,342.607851 L282.818978,342.561847 L282.826178,342.515843 L282.833379,342.471839 L282.84058,342.427835 L282.847781,342.381831 L282.857382,342.333827 L282.862183,342.289823 L282.869384,342.245819 L282.876584,342.199815 L282.883785,342.153811 L282.890986,342.107807 L282.895787,342.061803 L282.902988,342.015799 L282.907788,341.969795 L282.914989,341.925791 L282.91979,341.879787 L282.92459,341.835783 L282.931791,341.787779 L282.936592,341.741775 L282.941392,341.697771 L282.946193,341.649767 L282.950993,341.603763 L282.955794,341.559759 L282.960595,341.511755 L282.965395,341.465751 L282.970196,341.419747 L282.972596,341.375743 L282.977397,341.327739 L282.982197,341.281735 L282.984598,341.235731 L282.989398,341.189727 L282.991798,341.141723 L282.996599,341.097719 L282.998999,341.051715 L283.0014,341.005711 L283.0062,340.957707 L283.0086,340.911703 L283.011001,340.867699 L283.013401,340.819695 L283.015801,340.773691 L283.018202,340.727687 L283.020602,340.681683 L283.023002,340.635679 L283.023002,340.587675 L283.025402,340.541671 L283.027803,340.493666 L283.027803,340.449662 L283.030203,340.403658 L283.030203,340.355654 L283.032603,340.30765 L283.032603,340.261646 L283.032603,340.217642 L283.032603,340.169638 L283.032603,340.123634 L283.035004,340.07563 L283.035004,340.025626 L283.035004,125.010892 L216.026106,125.010892 L215.051588,124.914884 L214.113075,124.630859 L213.24897,124.168819 L212.490479,123.546764 L211.868803,122.788698 L211.405547,121.924623 L211.122313,120.986541 L211.026302,120.010456 L211.026302,65.0056638 L144.017404,65.0056638 L143.042886,64.9096554 L142.104373,64.6250306 L141.240268,64.1629904 L140.481777,63.5411362 L139.860102,62.7832701 L139.396846,61.9187948 L139.113611,60.9807131 L139.0176,60.0052281 L139.0176,5.00043567 L20.0064177,5.00043567 Z" fill="#EF5050"></path>
                    </g>
                    <g transform="translate(0.320991, 0.019442)" id="Shape" fill="#FF5555">
                        <path d="M288.034808,144.012605 L288.034808,340.030562 C288.034808,345.335026 285.927353,350.421071 282.1757,354.1726 C278.424046,357.924128 273.337832,360.031513 268.033191,360.031513 C215.270015,360.031513 72.7647933,360.031513 20.0016171,360.031513 C14.6969761,360.031513 9.61076142,357.924128 5.85910805,354.1726 C2.10745468,350.421071 0,345.335026 0,340.030562 C0,277.008246 0,83.0230268 0,20.0016707 C0,14.6969664 2.10745468,9.60948109 5.85910805,5.85843277 C9.61076142,2.10738445 14.6969761,0 20.0016171,0 C59.5655983,0 144.017404,0 144.017404,0 L144.017404,72.0063025 L216.026106,72.0063025 L216.026106,0 L216.026106,144.012605 L288.034808,144.012605 Z"></path>
                    </g>
                    <g transform="translate(0.080962, 0.019442)" id="Shape" fill="#EF5050">
                        <path d="M19.7567875,360.031513 C19.2791298,360.168325 5.83750544,359.760289 5.31904278,371.754139 C3.18758521,383.920804 13.5328354,389.894926 18.2422045,389.743713 C5.10061639,388.200378 0.146417694,376.396145 0.240029007,370.791654 C0.225627266,365.477589 0.290435098,19.9755084 0.290435098,19.9755084 C-0.187222625,9.50267174 9.07789703,0.258742647 19.7231835,0.0242421218 L19.7567875,360.031513 Z"></path>
                    </g>
                    <g transform="translate(47.239437, 374.019697)" id="Shape" fill="#929292">
                        <path d="M43.5779382,0 L43.5779382,44.7204743 L0.15789108,44.7204743 L0.15789108,0 L43.5779382,0 Z M43.5779382,44.7204743 C43.5779382,44.7204743 31.8782092,37.8360767 25.6573006,34.1741087 C23.3173548,32.7967181 20.4184745,32.7967181 18.0785287,34.1741087 C11.8576201,37.8360767 0.15789108,44.7204743 0.15789108,44.7204743 L43.5779382,44.7204743 Z"></path>
                    </g>
                    <g transform="translate(58.077812, 209.762141)" id="Shape" fill="#C04040">
                        <path d="M195.340094,23.4123253 C195.340094,10.641966 184.971473,0.272784572 172.199988,0.272784572 L23.3950719,0.272784572 C10.6235878,0.272784572 0.254966108,10.641966 0.254966108,23.4123253 L0.254966108,92.8275796 C0.254966108,105.597939 10.6235878,115.96712 23.3950719,115.96712 L172.199988,115.96712 C184.971473,115.96712 195.340094,105.597939 195.340094,92.8275796 L195.340094,23.4123253 Z"></path>
                    </g>
                </g>
                <g id="Group" transform="translate(168.509244, 14.279090)" fill="#37D3E2">
                    <g id="cube-blue">
                        <rect id="Rectangle-path" x="0" y="0" width="72.008702" height="72.0063025"></rect>
                    </g>
                </g>
                <g id="Group" transform="translate(241.238033, 87.617269)" fill="#83BF4F">
                    <g id="cube-green">
                        <rect id="Rectangle-path" x="0" y="0" width="72.008702" height="72.0063025"></rect>
                    </g>
                </g>
                <g id="Group" transform="translate(258.760150, 0.117850)" fill="#FFB530">
                    <g id="cube-yellow">
                        <path d="M72.008702,20.0016707 C72.008702,8.95518382 63.0532197,0 52.0070848,0 C30.6973096,0 0,0 0,0 L0,72.0063025 L72.008702,72.0063025 C72.008702,72.0063025 72.008702,41.3100158 72.008702,20.0016707 Z" id="Shape"></path>
                    </g>
                </g>
                <g id="Group" transform="translate(38.173565, 411.273838)" fill="#A6A6A6">
                    <path d="M0.201624365,0.768067227 C0.201624365,0.768067227 26.5328064,-0.621654412 61.4282234,0.768067227 C38.4550471,2.34740546 0.201624365,0.768067227 0.201624365,0.768067227 Z" id="Shape"></path>
                </g>
                <g id="Group" transform="translate(0.733654, 36.890749)" fill="#000000" fill-opacity="0.0588235">
                    <rect id="Rectangle-path" x="0.0697019536" y="1.14373443" width="14.3565788" height="360.029539"></rect>
                </g>
            </g>
        </g>
    </g>
</svg>