<svg width="58" height="58" viewBox="0 0 58 58" xmlns="http://www.w3.org/2000/svg"><title>icon_pdf</title><path d="M29.087 34.312V23.426h3.57v10.886h-3.57zm-18.2-7.14v-3.746h3.57v3.745h-3.57zM52.6 23.425v-5.4H41.716V39.8h5.4v-7.142H52.6V27.17h-5.486v-3.744H52.6zM38.145 34.312V23.426c0-1.51-.537-2.786-1.61-3.83-1.075-1.046-2.367-1.57-3.876-1.57h-8.97V39.8h8.97c1.51 0 2.8-.524 3.875-1.57 1.074-1.044 1.61-2.35 1.61-3.918zm-18.2-7.14v-3.746c0-1.51-.538-2.786-1.612-3.83-1.074-1.046-2.366-1.57-3.876-1.57h-8.97V39.8h5.4v-7.142h3.57c1.51 0 2.802-.523 3.876-1.568 1.074-1.045 1.61-2.35 1.61-3.92zM50.858 0c1.973 0 3.657.697 5.05 2.09C57.303 3.483 58 5.167 58 7.14v43.545c0 1.974-.697 3.686-2.09 5.138C54.517 57.273 52.833 58 50.86 58H7.314c-1.974 0-3.686-.726-5.138-2.177C.727 54.37 0 52.66 0 50.685V7.14c0-1.973.726-3.657 2.177-5.05C3.63.697 5.34 0 7.315 0H50.86z" fill="#9B9B9B" fill-rule="evenodd"/></svg>