<?xml version="1.0" encoding="UTF-8" standalone="no"?>
<svg width="160px" height="160px" viewBox="0 0 160 160" version="1.1" xmlns="http://www.w3.org/2000/svg" xmlns:xlink="http://www.w3.org/1999/xlink">
    <!-- Generator: Sketch 46 (44423) - http://www.bohemiancoding.com/sketch -->
    <title>vc-shape</title>
    <desc>Created with Sketch.</desc>
    <defs></defs>
    <g id="Web_home-page" stroke="none" stroke-width="1" fill="none" fill-rule="evenodd">
        <path d="M104.000018,50 L96.96,50 L71.44,115.748 L45.92,50 L38,50 L71.44,129.135 L104.056001,51.949974 C104.230086,55.0323261 104.812576,58.1348812 105.838964,61.1777422 C111.683622,78.5076838 129.71391,87.334594 146.111922,80.8937533 C147.462895,80.3639453 148.760115,79.7461583 150,79.0490934 C133.986316,84.7338943 119.450819,75.0658655 113.722623,58.079139 C108.622433,42.9564084 111.290335,27.0786048 122.953672,19.0019336 L122.953672,19 C111.212315,24.577138 103.986772,36.9538025 104.000018,50 Z M0,0 L160,0 L160,160 L0,160 L0,0 Z" id="vc-shape" fill="#111111"></path>
    </g>
</svg>