<svg width="64" height="64" viewBox="0 0 64 64" xmlns="http://www.w3.org/2000/svg"><title>1f4fd</title><g transform="matrix(-1 0 0 1 64 0)" fill-rule="nonzero" fill="none"><path fill="#94989B" d="M27.234 58.554H39.49V64H27.233"/><path d="M49.02 55.83c0 1.42-1.228 2.724-2.723 2.724H19.064c-1.497 0-2.724-1.304-2.724-2.724V36.767c0-1.42 1.228-2.724 2.724-2.724h27.233c1.495 0 2.724 1.304 2.724 2.724V55.83z" fill="#3E4347"/><circle fill="#3E4347" cx="17.702" cy="17.703" r="17.702"/><g transform="translate(3 4)" fill="#D0D0D0"><circle cx="8.43" cy="4.749" r="4.057"/><circle cx="20.975" cy="4.749" r="4.056"/><circle cx="25.031" cy="16.281" r="4.056"/><circle cx="14.702" cy="24.394" r="4.057"/><circle cx="4.373" cy="16.281" r="4.056"/></g><g transform="translate(14 14)" fill="#D0D0D0"><circle cx="2.165" cy="1.434" r="1.015"/><circle cx="5.3" cy="1.433" r="1.014"/><circle cx="6.314" cy="4.316" r="1.014"/><circle cx="3.733" cy="6.344" r="1.014"/><circle cx="1.15" cy="4.316" r="1.014"/></g><circle fill="#3E4347" cx="49.021" cy="20.426" r="14.979"/><g transform="translate(36 9)" fill="#D0D0D0"><circle cx="7.714" cy="3.85" r="3.433"/><circle cx="18.328" cy="3.849" r="3.432"/><circle cx="21.761" cy="13.608" r="3.433"/><circle cx="13.021" cy="20.474" r="3.433"/><circle cx="4.281" cy="13.608" r="3.433"/></g><g transform="translate(46 17)" fill="#D0D0D0"><circle cx="1.722" cy="1.505" r="1"/><circle cx="4.375" cy="1.506" r="1"/><circle cx="5.231" cy="3.946" r="1"/><circle cx="3.048" cy="5.662" r="1"/><circle cx=".864" cy="3.946" r="1"/></g><path d="M6.81 40.852v20.425L17.7 55.83V46.3L6.81 40.85zm49.02-5.448v9.533l-6.81-1.362v-6.808l6.81-1.363z" fill="#3E4347"/></g></svg>