<?xml version="1.0" encoding="UTF-8" standalone="no"?><!DOCTYPE svg PUBLIC "-//W3C//DTD SVG 1.1//EN" "http://www.w3.org/Graphics/SVG/1.1/DTD/svg11.dtd"><svg width="100%" height="100%" viewBox="0 0 159 159" version="1.1" xmlns="http://www.w3.org/2000/svg" xmlns:xlink="http://www.w3.org/1999/xlink" xml:space="preserve" style="fill-rule:evenodd;clip-rule:evenodd;stroke-linejoin:round;stroke-miterlimit:1.41421;"><path d="M9,1.5l141,0c4.142,0 7.5,3.358 7.5,7.5c0,4.142 -3.358,7.5 -7.5,7.5l-141,0c-4.142,0 -7.5,-3.358 -7.5,-7.5c0,-4.142 3.358,-7.5 7.5,-7.5Z" style="fill:#bac8ff;fill-opacity:0.74902;fill-rule:nonzero;"/><path d="M6.113,1.5l139.657,0c2.547,0 4.612,2.065 4.612,4.612l0,0.675c0,2.548 -2.065,4.613 -4.612,4.613l-139.658,0c-2.547,0 -4.612,-2.065 -4.612,-4.613l0,-0.675c0,-2.547 2.065,-4.612 4.613,-4.612l0,0Z" style="fill:#dbe4ff;fill-opacity:0.74902;fill-rule:nonzero;"/><path d="M150,18l-141,0c-4.971,0 -9,-4.029 -9,-9c0,-4.971 4.029,-9 9,-9l141,0c4.971,0 9,4.029 9,9c0,4.971 -4.029,9 -9,9Zm-141,-15c-3.314,0 -6,2.686 -6,6c0,3.314 2.686,6 6,6l141,0c3.314,0 6,-2.686 6,-6c0,-3.314 -2.686,-6 -6,-6l-141,0Z" style="fill:#748ffc;fill-opacity:0.74902;fill-rule:nonzero;"/><path d="M9,112.5l141,0c4.142,0 7.5,3.358 7.5,7.5c0,4.142 -3.358,7.5 -7.5,7.5l-141,0c-4.142,0 -7.5,-3.358 -7.5,-7.5c0,-4.142 3.358,-7.5 7.5,-7.5Z" style="fill:#bac8ff;fill-opacity:0.74902;fill-rule:nonzero;"/><path d="M6.113,112.5l139.657,0c2.547,0 4.612,2.065 4.612,4.613l0,0.675c0,2.547 -2.065,4.612 -4.612,4.612l-139.658,0c-2.547,0 -4.612,-2.065 -4.612,-4.612l0,-0.675c0,-2.548 2.065,-4.613 4.613,-4.613l0,0Z" style="fill:#dbe4ff;fill-opacity:0.74902;fill-rule:nonzero;"/><path d="M150,129l-141,0c-4.971,0 -9,-4.029 -9,-9c0,-4.971 4.029,-9 9,-9l141,0c4.971,0 9,4.029 9,9c0,4.971 -4.029,9 -9,9Zm-141,-15c-3.314,0 -6,2.686 -6,6c0,3.314 2.686,6 6,6l141,0c3.314,0 6,-2.686 6,-6c0,-3.314 -2.686,-6 -6,-6l-141,0Z" style="fill:#748ffc;fill-opacity:0.74902;fill-rule:nonzero;"/><rect x="16.5" y="24.33" width="126" height="88.17" style="fill:#fff;fill-opacity:0.74902;"/><path d="M142.5,114l-126,0c-0.828,0 -1.5,-0.672 -1.5,-1.5l0,-96c0,-0.828 0.672,-1.5 1.5,-1.5l126,0c0.828,0 1.5,0.672 1.5,1.5l0,96c0,0.828 -0.672,1.5 -1.5,1.5Zm-124.5,-3l123,0l0,-93l-123,0l0,93Z" style="fill:#748ffc;fill-opacity:0.74902;fill-rule:nonzero;"/><path d="M79.5,159c-4.971,0 -9,-4.029 -9,-9c0,-4.971 4.029,-9 9,-9c4.971,0 9,4.029 9,9c0,4.971 -4.029,9 -9,9Zm0,-15c-3.314,0 -6,2.686 -6,6c0,3.314 2.686,6 6,6c3.314,0 6,-2.686 6,-6c0,-3.314 -2.686,-6 -6,-6Z" style="fill:#748ffc;fill-opacity:0.74902;fill-rule:nonzero;"/><path d="M79.5,144c-0.828,0 -1.5,-0.672 -1.5,-1.5l0,-15c0,-0.828 0.672,-1.5 1.5,-1.5c0.828,0 1.5,0.672 1.5,1.5l0,15c0,0.828 -0.672,1.5 -1.5,1.5Z" style="fill:#748ffc;fill-opacity:0.74902;fill-rule:nonzero;"/><path d="M56.28,30l0.007,0c2.917,0 5.281,2.364 5.281,5.28l0,58.17c0,2.916 -2.364,5.28 -5.281,5.28l-0.007,0c-2.916,0 -5.28,-2.364 -5.28,-5.28l0,-58.17c0,-2.916 2.364,-5.28 5.28,-5.28Z" style="fill:#ffe76e;fill-opacity:0.74902;fill-rule:nonzero;"/><path d="M71.28,53.25l0.007,0c2.917,0 5.28,2.364 5.28,5.28l0,34.822c0,2.917 -2.363,5.28 -5.28,5.28l-0.007,0c-2.916,0 -5.28,-2.363 -5.28,-5.28l0,-34.822c0,-2.916 2.364,-5.28 5.28,-5.28Z" style="fill:#ffe76e;fill-opacity:0.74902;fill-rule:nonzero;"/><path d="M86.28,62.25l0.007,0c2.917,0 5.28,2.364 5.28,5.28l0,26.108c0,2.916 -2.363,5.279 -5.28,5.279l-0.007,0c-2.916,0 -5.28,-2.363 -5.28,-5.279l0,-26.108c0,-2.916 2.364,-5.28 5.28,-5.28Z" style="fill:#ffe76e;fill-opacity:0.74902;fill-rule:nonzero;"/><path d="M102.03,36.75l0.008,0c2.916,0 5.279,2.364 5.279,5.28l0.001,51.443c-0.001,2.916 -2.364,5.28 -5.28,5.28l-0.008,0c-2.916,0 -5.28,-2.364 -5.28,-5.28l0,-51.443c0,-2.916 2.364,-5.28 5.28,-5.28Z" style="fill:#ffe76e;fill-opacity:0.74902;fill-rule:nonzero;"/></svg>