<svg width="70" height="54" viewBox="0 0 70 54" xmlns="http://www.w3.org/2000/svg"><title>vc-logo</title><defs><linearGradient x1="-22.492%" y1="-23.329%" y2="100%" id="a"><stop stop-color="#9C16DB" offset="0%"/><stop stop-color="#261DD3" offset="100%"/></linearGradient></defs><path d="M2 0h66c1.105 0 2 .895 2 2v50c0 1.105-.895 2-2 2H2c-1.105 0-2-.895-2-2V2C0 .895.895 0 2 0zm38.92 15L31 39.986 21.08 15H18l13 32 12.963-31.908c.027 1.71.38 3.44 1.093 5.087 2.718 6.285 9.644 9 15.47 6.067.48-.24.938-.514 1.372-.814-5.71 2.64-11.377-.504-14.04-6.666-2.373-5.485-1.91-11.502 2.12-14.895C46.138 6.154 43.92 10.495 43.96 15h-3.04z" fill="url(#a)" fill-rule="evenodd" opacity=".9"/></svg>