<svg width="586" height="305" viewBox="0 0 586 305" xmlns="http://www.w3.org/2000/svg" xmlns:xlink="http://www.w3.org/1999/xlink"><title>conflict</title><defs><circle id="a" cx="50.5" cy="50.5" r="50"/><circle id="c" cx="50.5" cy="50.5" r="50"/><path d="M65.5 15.4l27.9 7.7c3.2 1.1 5.7 3.5 7.1 6.6v9.8H.5v-9.8c1.3-3.1 3.9-5.5 7.1-6.6l27.9-7.7V.5h30v14.9z" id="e"/><path d="M20.5 58.5c-1.5 0-3.5-.3-4.8-.9-1.6-.7-7.2-4.6-9.1-6.3-2.5-2.3-3.8-5.1-4.2-10C2 36.4.5 18.9.5 14.9.5 9.2 5.6.4 20.4.4c14.8 0 19.9 8.8 19.9 14.5 0 4-1.5 21.5-1.9 26.4-.4 4.9-1.6 7.7-4.2 10-1.9 1.7-7.6 5.6-9.1 6.3-1.1.6-3.1.9-4.6.9z" id="g"/><circle id="i" cx="50.5" cy="50.5" r="50"/><circle id="k" cx="50" cy="50" r="50"/><circle id="m" cx="50" cy="50" r="50"/><path d="M65 14.9l27.9 7.7c3.2 1.1 5.7 3.5 7.1 6.6V39H0v-9.8c1.3-3.1 3.9-5.5 7.1-6.6L35 14.9V0h30v14.9z" id="o"/><path d="M65 14.9l27.9 7.7c3.2 1.1 5.7 3.5 7.1 6.6V39H0v-9.8c1.3-3.1 3.9-5.5 7.1-6.6L35 14.9V0h30v14.9z" id="q"/><path d="M65 14.9l27.9 7.7c3.2 1.1 5.7 3.5 7.1 6.6V39H0v-9.8c1.3-3.1 3.9-5.5 7.1-6.6L35 14.9V0h30v14.9z" id="s"/><path d="M65 14.9l27.9 7.7c3.2 1.1 5.7 3.5 7.1 6.6V39H0v-9.8c1.3-3.1 3.9-5.5 7.1-6.6L35 14.9V0h30v14.9z" id="u"/><path d="M65 14.9l27.9 7.7c3.2 1.1 5.7 3.5 7.1 6.6V39H0v-9.8c1.3-3.1 3.9-5.5 7.1-6.6L35 14.9V0h30v14.9z" id="w"/></defs><g fill="none" fill-rule="evenodd"><g transform="translate(485 178)"><circle fill="#F5EEE5" fill-rule="nonzero" cx="50.5" cy="50.5" r="50"/><mask id="b" fill="#fff"><use xlink:href="#a"/></mask><path d="M65.5 76.4l27.9 7.7c3.2 1.1 5.7 3.5 7.1 6.6v9.8H.5v-9.8c1.3-3.1 3.9-5.5 7.1-6.6l27.9-7.7V61.5h30v14.9z" fill="#D4B08C" fill-rule="nonzero" mask="url(#b)"/><mask id="d" fill="#fff"><use xlink:href="#c"/></mask><g transform="translate(0 61)" mask="url(#d)"><mask id="f" fill="#fff"><use xlink:href="#e"/></mask><path fill="#1E1F24" fill-rule="nonzero" mask="url(#f)" d="M50.7 19.5h-7.2l-8-4.1-35-.9v25h100.4v-25H62.7l-4.8 5"/></g><path d="M50.5 74.5c-1.5 0-3.5-.3-4.8-.9-1.6-.7-7.2-4.6-9.1-6.3-2.5-2.3-3.8-5.1-4.2-10-.4-4.9-1.9-22.4-1.9-26.4 0-5.7 5.1-14.5 19.9-14.5 14.8 0 19.9 8.8 19.9 14.5 0 4-1.5 21.5-1.9 26.4-.4 4.9-1.6 7.7-4.2 10-1.9 1.7-7.6 5.6-9.1 6.3-1.1.6-3.1.9-4.6.9z" fill="#F2CEA5" fill-rule="nonzero"/><g transform="translate(30 16)"><mask id="h" fill="#fff"><use xlink:href="#g"/></mask><path d="M31.5 45.5c-1-1.2-3-2.9-6.3-3-3.3-.1-2.5 1.9-4.7 2h-.1-.1c-2.1-.1-1.3-2-4.7-2-3.4 0-5.4 1.7-6.3 3l-8-11v27h38.2v-27l-8 11zm-7 7c-1.1-.1-1.7-.4-2-.8 0-.6-.4-1.3-2.1-1.2-1.7-.1-2 .6-2.1 1.2-.3.4-.9.8-2 .8-3.8-.2-5-2.7-5-4.5 0-1.8 1.5-2.5 5-2.5 2.5 0 1.7.9 4 1h.2c2.3 0 1.5-1 4-1 3.5 0 5 .7 5 2.5s-1.2 4.3-5 4.5z" fill="#2D2E35" fill-rule="nonzero" mask="url(#h)"/></g><path d="M53.5 65.5h-6c-.6 0-1-.4-1-1s.4-1 1-1h6c.6 0 1 .4 1 1s-.4 1-1 1z" fill="#A3705F" fill-rule="nonzero"/><path d="M59.5 47.5c1.1 0 2-.9 2-2s-.9-2-2-2-2 .9-2 2 .9 2 2 2zm-18 0c1.1 0 2-.9 2-2s-.9-2-2-2-2 .9-2 2 .9 2 2 2z" fill="#262626" fill-rule="nonzero"/><path d="M47.1 44c-.5-.8-1.9-2.5-5.5-2.5-4.1 0-5.1 2.3-5.1 2.4l-1.9-.7c.1-.1 1.4-3.6 7-3.6 4.6 0 6.6 2.4 7.2 3.5l-1.7.9z" fill="#CC9872" fill-rule="nonzero"/><path d="M51.5 54.5v-9c0-2.5 2.5-5.9 8-6 5.5 0 6.9 3.5 7 3.6l-1.9.7c0-.1-1-2.3-5.1-2.4-4.1 0-6 2.4-6 4v9l-2 .1z" fill="#BB8660" fill-rule="nonzero"/><path d="M35.6 74.9l1.7-2.8L50.2 78l13.1-4.9 2.2 2.2v6.5s-10.8 10.6-15 10.7C46.3 92.5 35.6 81 35.6 81v-6.1z" fill="#D4B08C" fill-rule="nonzero"/><g><mask id="j" fill="#fff"><use xlink:href="#i"/></mask><path d="M65.5 76.4v5.1c0 14.1-8.5 19.7-8.5 19.7H44.7s-9.2-6.7-9.2-18.7v-6.1c1 1 2.6 9.1 15.3 9.1 12.7 0 13.7-8.1 14.7-9.1z" fill="#6B363E" fill-rule="nonzero" mask="url(#j)"/></g><path fill="#E1BC90" fill-rule="nonzero" d="M41.6 30.5h17.9v2H41.6zM45.6 34.5h9.9v2h-9.9z"/><path d="M69.6 45.5s.1-13.1-5.5-20.3c-1.3 1.2-3.5 2.2-6.5 2.2s-5.9-1.1-9.3-2.8c-3.4-1.7-5.3-3.1-8.3-3.4-2 .7-8.5 5.9-8.5 14.9s.2 12.3.2 12.3-4.2-5.7-4.2-14.3c0-8.6 4.8-14.8 10.7-15 2.4-2.2 7-3.8 11.9-3.8s14.5 2.4 18.5 9.2c5.9 9.9 1 21 1 21z" fill="#2D2E35" fill-rule="nonzero"/></g><circle fill="#F5EEE5" fill-rule="nonzero" cx="50" cy="50" r="50"/><mask id="l" fill="#fff"><use xlink:href="#k"/></mask><path d="M65 75.9l27.9 7.7c3.2 1.1 5.7 3.5 7.1 6.6v9.8H0v-9.8c1.3-3.1 3.9-5.5 7.1-6.6L35 75.9V61h30v14.9z" fill="#D4B08C" fill-rule="nonzero" mask="url(#l)"/><mask id="n" fill="#fff"><use xlink:href="#m"/></mask><g mask="url(#n)"><g transform="translate(0 61)"><mask id="p" fill="#fff"><use xlink:href="#o"/></mask><path fill="#1E1E23" fill-rule="nonzero" mask="url(#p)" d="M50.2 19H43l-4.8-5H0v25H100.3V14H62.2l-4.8 5"/></g><g transform="translate(0 61)"><mask id="r" fill="#fff"><use xlink:href="#q"/></mask><path fill="#C1CAD4" fill-rule="nonzero" mask="url(#r)" d="M50 19h1l14.7-7.7-5.8 28.9-9.9-1.1-9.9 1.1-5.8-28.9L49 19"/></g><g transform="translate(0 61)"><mask id="t" fill="#fff"><use xlink:href="#s"/></mask><path fill="#216DD9" fill-rule="nonzero" mask="url(#t)" d="M47.5 28h5l4 12h-13"/></g><g transform="translate(0 61)"><mask id="v" fill="#fff"><use xlink:href="#u"/></mask><path fill="#249CF2" fill-rule="nonzero" mask="url(#v)" d="M39.5 19h21l-8 9h-5"/></g><g transform="translate(0 61)"><mask id="x" fill="#fff"><use xlink:href="#w"/></mask><path d="M65.5 9L51.1 19l10.8 11L66 10l-.5-1zm-31 0l14.4 10-10.8 11L34 10l.5-1z" fill="#FFF" fill-rule="nonzero" mask="url(#x)"/></g></g><path d="M50 74c-1.5 0-3.5-.3-4.8-.9-1.6-.7-7.2-4.6-9.1-6.3-2.5-2.3-3.8-5.1-4.2-10-.4-4.9-1.9-22.3-1.9-26.3C30 24.8 35.1 16 50 16s20 8.8 20 14.5c0 4-1.5 21.5-1.9 26.4-.4 4.9-1.6 7.7-4.2 10-1.9 1.7-7.6 5.6-9.1 6.3-1.3.5-3.3.8-4.8.8z" fill="#F2CEA5" fill-rule="nonzero"/><path d="M57 60H43c-.4 0-.6.4-.4.8 1.3 2.3 3.7 3.5 6.7 3.7 3.1.2 6.5-1.3 8.1-3.7.2-.3 0-.8-.4-.8z" fill="#A3705F" fill-rule="nonzero"/><circle fill="#262626" fill-rule="nonzero" cx="59" cy="45" r="2"/><circle fill="#262626" fill-rule="nonzero" cx="41" cy="45" r="2"/><path d="M35 42s1.1-3 6.1-3c3.4 0 5.4 1.5 6.4 3" stroke="#CC9872" stroke-width="2"/><path d="M65.1 42S64 39 59 39c-4.8 0-7 3-7 5v9" stroke="#BB8660" stroke-width="2"/><path d="M68.8 48.2s.8-6.3 3.7-7.2c.4-1.8 1.5-7 1.5-9.9 0-2.9-.3-5.7-1.9-8.1-1.8-2.6-5.6-4.1-7.6-4.1-2.3 1.4-7.7 4.6-9.4 6.5-.9 1 .4 1.8.4 1.8s1.2-.5 1.7-.6c2.5-.7 8-1.2 9.7 1.3C69 30.9 69 39.7 69 41c0 1.2-.2 7.2-.2 7.2z" fill="#D98C21" fill-rule="nonzero"/><path d="M27.5 41c2.9 1 3.7 7.2 3.7 7.2s-.2-6-.2-7.2c0-1.6.2-9.1 3.4-12.7 3.6-4 8.4-5.3 11.1-3.5 1.4.9 6.1 5.5 11.1 1.7 3-2.3 8.5-7.5 8.5-7.5s-2.9-8.9-16.1-7.9c-5.6.5-11.8-.9-11.8-.9s-.1 2.5.9 3.8c-8.3 2.4-11 8.4-11.8 13-.2.9-.3 1.8-.3 2.7v1.4c0 2.9 1.1 8 1.5 9.9z" fill="#E6A422" fill-rule="nonzero"/><path d="M116 42.875v19.13c0 4.415 3.583 7.995 8.003 7.995h394.994c4.42 0 8.003-3.58 8.003-7.996V7.996C527 3.58 523.417 0 518.997 0H124.003C119.583 0 116 3.58 116 7.996V26.25L109 35l7 7.875zM470 185.993c0-4.415-3.58-7.993-8.01-7.993H8.01C3.586 178 0 181.58 0 185.993v111.014C0 301.422 3.58 305 8.01 305h453.98c4.424 0 8.01-3.58 8.01-7.993V185.993zM470 231v21l8-10-8-11z" fill="#F2F2F2"/><text font-family="Signika-Regular, Signika" font-size="18" fill="#5C5360"><tspan x="130" y="25">“There is an inherent process to selling, and if one</tspan> <tspan x="130" y="52">follows it diligently, they can become a superstar.”</tspan></text><text font-family="Signika-Regular, Signika" font-size="18" fill="#5C5360"><tspan x="20" y="205">“Selling is an art. </tspan> <tspan x="20" y="232">At the end of the day, it comes down to people. You </tspan> <tspan x="20" y="259">cannot ‘teach’ a person beyond a certain point. Either you </tspan> <tspan x="20" y="286">have it or you don’t!”</tspan></text><text font-family="TitilliumWeb-Regular, Titillium Web" font-size="20" letter-spacing="-.167" fill="#000"><tspan x="33" y="125">CEO</tspan></text><text font-family="TitilliumWeb-Regular, Titillium Web" font-size="20" letter-spacing="-.167" fill="#000"><tspan x="498" y="166">VP, Sales</tspan></text></g></svg>