<svg width="951" height="667" viewBox="0 0 951 667" xmlns="http://www.w3.org/2000/svg"><title>survey-summary</title><g fill="none" fill-rule="evenodd"><g transform="translate(507 16)"><text font-family="SFUIText-Semibold, SF UI Text" font-size="24" font-weight="500" letter-spacing=".571" fill="#000"><tspan x="29" y="23">Sales Managers point-of-view</tspan></text><text font-family="SFUIText-Medium, SF UI Text" font-size="18" font-weight="400" letter-spacing=".429" fill="#212529"><tspan x="63.548" y="78">What do you look for in a person,</tspan> <tspan x="155.702" y="104">when hiring?</tspan></text><text font-family="SFUIText-Medium, SF UI Text" font-size="18" font-weight="400" letter-spacing=".429" fill="#212529"><tspan x="14.037" y="366">In your experience, what are some reasons </tspan> <tspan x="37.288" y="392">why a Sales professional could not be </tspan> <tspan x="103.888" y="418">performing as desired?</tspan></text><circle fill="#6741D9" cx="202" cy="212" r="73"/><text font-family="SFUIText-Regular, SF UI Text" font-size="16" letter-spacing=".381" fill="#FFF"><tspan x="144.196" y="217">communication</tspan></text><circle fill="#66D9E8" cx="81" cy="211" r="51"/><text font-family="SFUIText-Regular, SF UI Text" font-size="16" letter-spacing=".381" fill="#000"><tspan x="62.302" y="206">self-</tspan> <tspan x="55.912" y="225">driven</tspan></text><circle fill="#FFA8A8" cx="296.5" cy="250.5" r="33.5"/><text font-family="SFUIText-Medium, SF UI Text" font-size="12" font-weight="400" letter-spacing=".286" fill="#000"><tspan x="269.332" y="249">personal-</tspan> <tspan x="290.847" y="263">ity</tspan></text><circle fill="#C92A2A" cx="312" cy="170" r="51"/><text font-family="SFUIText-Regular, SF UI Text" font-size="16" letter-spacing=".381" fill="#FFF"><tspan x="289.498" y="165">result</tspan> <tspan x="279.066" y="184">oriented</tspan></text><g transform="translate(17 453)"><circle fill="#38D9A9" cx="243" cy="62" r="51"/><text font-family="SFUIText-Medium, SF UI Text" font-size="16" font-weight="400" letter-spacing=".381" fill="#000"><tspan x="215.913" y="57">lack of</tspan> <tspan x="204.01" y="76">soft skills</tspan></text><circle fill="#364FC7" cx="51" cy="51" r="51"/><text font-family="SFUIText-Regular, SF UI Text" font-size="16" letter-spacing=".381" fill="#F7F7F7"><tspan x="10.636" y="43">inability to</tspan> <tspan x="18.032" y="62">get right</tspan> <tspan x="30.946" y="81">leads</tspan></text><circle fill="#329AF0" cx="146" cy="79" r="51"/><text font-family="SFUIText-Medium, SF UI Text" font-size="16" font-weight="400" letter-spacing=".381" fill="#000"><tspan x="111.074" y="85">pressure</tspan></text><circle fill="#FFD43B" cx="333" cy="80" r="51"/><text font-family="SFUIText-Medium, SF UI Text" font-size="16" font-weight="400" letter-spacing=".381" fill="#000"><tspan x="295.243" y="76">no proper</tspan> <tspan x="293.146" y="95">incentives</tspan></text></g></g><text font-family="SFUIText-Semibold, SF UI Text" font-size="24" font-weight="500" letter-spacing=".571" fill="#000" transform="translate(40 16)"><tspan x="13" y="23">Sales executives point-of-view</tspan></text><text font-family="SFUIText-Medium, SF UI Text" font-size="18" font-weight="400" letter-spacing=".429" fill="#212529" transform="translate(40 16)"><tspan x="21.553" y="84">In your experience, what are some pain </tspan> <tspan x="58.973" y="110">points that you have as a Sales </tspan> <tspan x="81.675" y="136">professional, on the field?</tspan></text><g transform="translate(68 212)"><circle fill="#364FC7" cx="174" cy="62" r="62"/><circle fill="#38D9A9" cx="108" cy="153" r="66"/><text font-family="SFUIText-Medium, SF UI Text" font-size="16" font-weight="400" letter-spacing=".381" fill="#000"><tspan x="53.881" y="142">Communicat-</tspan> <tspan x="52.529" y="161">-ing the value</tspan> <tspan x="49.795" y="180">of the solution</tspan></text><text font-family="SFUIText-Regular, SF UI Text" font-size="16" letter-spacing=".381" fill="#FFF"><tspan x="135.451" y="55">Qualifying</tspan> <tspan x="152.114" y="77">Leads</tspan></text><circle fill="#9C36B5" cx="59" cy="62" r="59"/><text font-family="SFUIText-Regular, SF UI Text" font-size="16" letter-spacing=".381" fill="#FFF"><tspan x="17.974" y="45">Sustaining</tspan> <tspan x="9.238" y="67">the convers-</tspan> <tspan x="39.786" y="89">ation</tspan></text><circle fill="#D6336C" cx="284" cy="62" r="56"/><text font-family="SFUIText-Regular, SF UI Text" font-size="16" letter-spacing=".381" fill="#FFF"><tspan x="270.858" y="49">Not</tspan> <tspan x="255.361" y="68">enough</tspan> <tspan x="263.946" y="87">leads</tspan></text></g><path d="M471.5 11.5v642.003" stroke="#979797" opacity=".4" stroke-linecap="square"/></g></svg>