<svg xmlns="http://www.w3.org/2000/svg" xmlns:xlink="http://www.w3.org/1999/xlink" width="232" height="62" viewBox="0 0 232 62"><defs><linearGradient id="a" x1="50%" x2="50%" y1="0%" y2="100%"><stop offset="0%" stop-color="#FFF"/><stop offset="100%" stop-color="#F1F1F1"/></linearGradient><circle id="b" cx="13" cy="13" r="13"/></defs><g fill="none" fill-rule="evenodd" transform="translate(1 1)"><rect width="230" height="60" fill="url(#a)" stroke="#C1C1C1" rx="4"/><path fill="#4A4A4A" d="M46.477 14.528V23.6h-1.325v-9.072h1.325zm3.288 9.072h-1.267v-6.768h.993l.188.936c.336-.336.69-.593 1.06-.77.368-.178.793-.267 1.273-.267.692 0 1.235.196 1.628.584.394.39.59.93.59 1.62V23.6h-1.266v-4.478c0-.413-.108-.742-.324-.987-.216-.245-.545-.367-.987-.367-.67 0-1.3.302-1.885.907V23.6zm9.81-5.818H57.59v3.932c0 .336.083.56.25.676.17.116.387.173.656.173.192 0 .403-.02.634-.065.23-.043.432-.093.604-.15l.202.964c-.192.077-.437.144-.734.202-.298.057-.61.086-.936.086-.672 0-1.162-.146-1.47-.44-.306-.292-.46-.717-.46-1.274v-4.104h-1.008v-.95h1.008v-2.16h1.253v2.16h1.986v.95zm7.35 2.578h-4.853v.058c0 .748.204 1.324.612 1.728.408.403.962.604 1.663.604.365 0 .69-.028.972-.086.282-.058.592-.154.928-.288l.26.936c-.28.125-.608.226-.987.302-.378.077-.784.116-1.216.116-.49 0-.948-.068-1.375-.202-.428-.134-.805-.343-1.132-.626-.326-.284-.583-.646-.77-1.088-.187-.44-.28-.97-.28-1.584 0-.528.078-1.008.237-1.44.158-.432.38-.8.67-1.1.287-.304.635-.54 1.043-.707.408-.168.867-.252 1.376-.252.432 0 .823.073 1.173.217.35.144.65.346.9.605.25.26.442.57.576.936.135.365.202.768.202 1.21v.662zm-1.31-.907c0-.25-.032-.483-.094-.7-.062-.215-.158-.404-.287-.567-.13-.164-.295-.293-.497-.39-.202-.095-.446-.143-.734-.143-.528 0-.958.168-1.29.504-.33.336-.534.777-.61 1.325l3.512-.03zm2.683 4.147v-6.768h.95l.216 1.354c.163-.432.432-.783.806-1.052.375-.268.807-.403 1.296-.403.25 0 .456.02.62.06.163.037.312.085.446.143l-.245 1.11c-.115-.06-.242-.107-.38-.145-.14-.04-.306-.058-.498-.058-.28 0-.536.048-.772.144-.235.096-.44.24-.62.432-.176.192-.316.43-.416.713-.1.282-.152.606-.152.97v3.5h-1.252zm9.74-6.768h1.352L76.87 23.6h-1.238l-2.55-6.768h1.37l1.526 4.65.26 1.067h.056l.245-1.052 1.497-4.666zm2.61 6.768v-6.768h1.267V23.6h-1.267zm.634-8.51c-.22 0-.41-.075-.57-.224-.158-.148-.237-.333-.237-.554 0-.22.08-.408.238-.562.158-.153.348-.23.57-.23.21 0 .397.077.56.23.163.154.245.34.245.562 0 .22-.082.406-.245.554-.163.15-.35.224-.56.224zm8.37 5.27H84.8v.058c0 .748.204 1.324.612 1.728.408.403.962.604 1.663.604.365 0 .69-.028.972-.086.283-.058.593-.154.93-.288l.258.936c-.278.125-.607.226-.986.302-.38.077-.786.116-1.218.116-.49 0-.948-.068-1.375-.202-.427-.134-.804-.343-1.13-.626-.327-.284-.584-.646-.77-1.088-.188-.44-.282-.97-.282-1.584 0-.528.08-1.008.238-1.44.158-.432.38-.8.67-1.1.287-.304.635-.54 1.043-.707.408-.168.867-.252 1.376-.252.432 0 .823.073 1.173.217.35.144.65.346.9.605.25.26.442.57.576.936.136.365.203.768.203 1.21v.662zm-1.31-.907c0-.25-.03-.483-.093-.7-.064-.215-.16-.404-.29-.567-.13-.164-.294-.293-.496-.39-.202-.095-.446-.143-.734-.143-.528 0-.958.168-1.29.504-.33.336-.534.777-.61 1.325l3.512-.03zm1.82-2.62h1.353l1.152 4.26.26 1.513h.057l.317-1.512 1.167-4.262h1.368l1.195 4.262.303 1.512h.057l.317-1.512 1.123-4.262h1.296l-2.06 6.768h-1.44l-1.15-4.147-.332-1.67-.346 1.67-1.18 4.147H92.25l-2.088-6.768zm14.78 1.266c-.318-.154-.606-.26-.865-.318-.26-.057-.52-.086-.778-.086-.462 0-.802.084-1.023.252-.22.168-.33.39-.33.67 0 .2.075.376.23.525.153.15.474.295.964.44l.433.13c.643.19 1.13.438 1.46.74.333.303.498.713.498 1.232 0 .614-.227 1.11-.683 1.483-.456.374-1.092.562-1.908.562-.433 0-.848-.04-1.246-.116-.4-.076-.742-.182-1.03-.316l.302-.994c.28.134.58.242.908.324.326.082.657.122.993.122.432 0 .775-.076 1.03-.23.254-.154.38-.408.38-.763 0-.307-.11-.526-.33-.655-.22-.13-.537-.257-.95-.382l-.447-.144c-.624-.202-1.087-.454-1.39-.756-.302-.302-.453-.694-.453-1.174 0-.288.063-.552.187-.792.125-.24.296-.44.512-.604.216-.164.472-.29.77-.382.298-.09.624-.137.98-.137.335 0 .683.032 1.043.095.36.062.702.165 1.03.31l-.29.964zm5.077-1.268h1.353l1.152 4.262.26 1.512h.057l.316-1.512 1.167-4.262h1.368l1.195 4.262.302 1.512h.058l.317-1.512 1.123-4.262h1.296l-2.06 6.768h-1.44l-1.15-4.147-.332-1.67-.346 1.67-1.18 4.147h-1.37l-2.087-6.768zm11.178 6.768v-6.768h1.268V23.6h-1.268zm.634-8.51c-.22 0-.41-.075-.57-.224-.157-.148-.236-.333-.236-.554 0-.22.08-.408.237-.562.16-.153.348-.23.57-.23.21 0 .397.077.56.23.164.154.245.34.245.562 0 .22-.08.406-.244.554-.164.15-.35.224-.562.224zM128 17.782h-1.987v3.932c0 .336.084.56.252.676.168.116.386.173.655.173.192 0 .403-.02.634-.065.23-.043.432-.093.604-.15l.202.964c-.192.077-.437.144-.734.202-.298.057-.61.086-.936.086-.672 0-1.162-.146-1.47-.44-.306-.292-.46-.717-.46-1.274v-4.104h-1.008v-.95h1.008v-2.16h1.253v2.16H128v.95zm2.87 5.818h-1.267V13.376h1.267v4.32c.317-.278.668-.51 1.052-.69.384-.184.806-.275 1.267-.275.373 0 .7.056.978.167.278.11.506.264.684.46.178.197.312.43.403.7.09.268.137.56.137.877V23.6h-1.267v-4.35c0-.517-.106-.894-.317-1.13-.21-.234-.533-.352-.965-.352-.326 0-.655.082-.986.245-.33.163-.66.393-.987.69V23.6zm-81.724 9.312c.716 0 1.366.067 1.948.202.583.134 1.117.323 1.604.566l-.538 1.805c-.525-.256-1.024-.448-1.498-.576-.473-.13-.94-.193-1.4-.193-.654 0-1.163.134-1.528.403-.364.27-.547.634-.547 1.094 0 .448.15.79.45 1.028.302.236.785.464 1.45.68l1.172.385c.998.333 1.76.794 2.284 1.383.525.588.787 1.286.787 2.092 0 .525-.1 1.005-.306 1.44-.205.436-.5.816-.883 1.143-.383.326-.854.58-1.41.758-.557.18-1.188.27-1.892.27-.69 0-1.363-.068-2.016-.203-.652-.134-1.28-.348-1.88-.643l.536-1.785c.55.268 1.088.473 1.613.614.526.14 1.076.21 1.652.21.692 0 1.232-.133 1.623-.402.39-.27.585-.66.585-1.17 0-.18-.032-.35-.096-.51-.064-.16-.176-.314-.336-.46-.16-.148-.38-.292-.662-.433-.282-.14-.634-.28-1.056-.42l-1.075-.366c-.883-.307-1.59-.714-2.122-1.22-.53-.505-.797-1.218-.797-2.14 0-1.062.372-1.92 1.114-2.573.742-.652 1.818-.978 3.226-.978zm6.2 3.974c.564-.307 1.134-.547 1.71-.72.576-.172 1.21-.26 1.9-.26.538 0 1.025.062 1.46.184.435.12.813.316 1.133.585.32.27.565.618.738 1.047.173.428.26.95.26 1.564V45.2H60.76l-.23-.96h-.058c-.653.768-1.58 1.152-2.784 1.152-.96 0-1.71-.253-2.247-.758-.537-.506-.806-1.162-.806-1.968 0-.512.11-.954.326-1.325.218-.37.515-.678.893-.92.378-.244.83-.426 1.354-.548.524-.122 1.094-.182 1.708-.182h1.344v-.634c0-.5-.147-.854-.44-1.066-.296-.21-.692-.316-1.192-.316-.358 0-.74.057-1.142.172-.403.116-.848.314-1.334.596l-.807-1.556zm4.936 4.244l-1.037.038c-.845.026-1.434.17-1.767.432-.332.262-.5.58-.5.95 0 .474.142.794.424.96.28.167.608.25.98.25.37 0 .725-.093 1.064-.278.34-.186.618-.445.836-.778V41.13zm4.684 4.07V31.53h2.228V45.2h-2.228zm12.615-4.05h-6.2v.076c0 .832.258 1.452.777 1.862.518.41 1.2.614 2.045.614.5 0 .944-.044 1.334-.134.39-.09.765-.21 1.123-.365l.44 1.594c-.37.166-.812.307-1.324.422-.512.114-1.107.172-1.786.172-.678 0-1.315-.09-1.91-.27-.595-.178-1.117-.46-1.565-.844-.448-.384-.803-.87-1.065-1.46-.263-.588-.394-1.292-.394-2.11 0-.718.11-1.37.326-1.96.218-.588.525-1.094.922-1.516.397-.422.877-.75 1.44-.98.563-.23 1.184-.345 1.862-.345 1.216 0 2.183.37 2.9 1.114.716.743 1.075 1.774 1.075 3.092v1.037zm-2.322-1.576c0-.268-.032-.528-.096-.777-.064-.25-.167-.47-.308-.663-.14-.192-.323-.342-.547-.45-.224-.11-.49-.164-.797-.164-.576 0-1.05.192-1.42.576-.372.384-.596.89-.672 1.517l3.84-.04zm9.484-1.46c-.755-.357-1.49-.536-2.208-.536-.473 0-.835.083-1.084.25-.25.166-.375.396-.375.69 0 .244.103.452.307.624.205.173.615.35 1.23.528l.575.173c.82.243 1.437.576 1.853 1 .416.42.624.978.624 1.67 0 .882-.333 1.583-.998 2.1-.666.52-1.575.78-2.727.78-1.242 0-2.273-.206-3.092-.615l.5-1.69c.37.18.764.326 1.18.442.416.115.848.172 1.296.172 1.062 0 1.594-.34 1.594-1.017 0-.307-.125-.535-.375-.682-.25-.147-.675-.317-1.277-.51l-.595-.19c-.792-.257-1.378-.593-1.756-1.01-.377-.415-.566-.962-.566-1.64 0-.397.083-.765.25-1.104.166-.34.4-.632.7-.875.3-.243.666-.432 1.095-.566.43-.136.905-.203 1.43-.203.525 0 1.034.048 1.527.144.492.097.95.24 1.372.433l-.48 1.632zm9.005-5.01h2.976l1.92 6.03c.167.524.323 1.045.47 1.564.148.518.28 1.027.394 1.526h.077c.05-.218.112-.458.182-.72.07-.262.144-.53.22-.806.078-.276.152-.548.222-.816.07-.27.144-.52.22-.75l1.863-6.028h2.977l.96 12.096h-2.246c-.102-1.318-.194-2.634-.278-3.946-.083-1.312-.137-2.627-.163-3.945l-.058-1.902h-.058c-.192.755-.397 1.53-.614 2.323-.218.795-.436 1.518-.653 2.17l-1.69 5.3h-1.9l-1.73-5.3c-.293-.895-.54-1.718-.738-2.466-.2-.75-.37-1.424-.51-2.026h-.038c-.026.998-.067 2.042-.125 3.13-.057 1.088-.118 2.092-.182 3.014l-.21 3.648h-2.21l.922-12.096zm14.957 3.782c.563-.307 1.133-.547 1.71-.72.575-.172 1.208-.26 1.9-.26.537 0 1.024.062 1.46.184.434.12.812.316 1.132.585.32.27.566.618.74 1.047.172.428.258.95.258 1.564V45.2h-1.786l-.23-.96h-.058c-.652.768-1.58 1.152-2.784 1.152-.96 0-1.708-.253-2.246-.758-.538-.506-.806-1.162-.806-1.968 0-.512.108-.954.326-1.325.218-.37.515-.678.893-.92.377-.244.83-.426 1.353-.548.525-.122 1.095-.182 1.71-.182h1.343v-.634c0-.5-.148-.854-.442-1.066-.295-.21-.692-.316-1.19-.316-.36 0-.74.057-1.143.172-.403.116-.848.314-1.335.596l-.806-1.556zm4.934 4.244l-1.036.038c-.845.026-1.434.17-1.767.432-.333.262-.5.58-.5.95 0 .474.142.794.423.96.282.167.608.25.98.25.37 0 .726-.093 1.065-.278.34-.186.618-.445.835-.778V41.13zm6.7 4.07h-2.264v-9.12h1.766l.288 1.21c.435-.436.902-.775 1.402-1.018.5-.243 1.056-.365 1.67-.365.986 0 1.747.272 2.285.816.537.544.806 1.315.806 2.314V45.2h-2.264v-5.894c0-.487-.125-.88-.375-1.18-.248-.302-.623-.452-1.122-.452-.37 0-.75.1-1.133.297-.384.2-.736.465-1.056.798V45.2zm8.315-8.314c.563-.307 1.133-.547 1.71-.72.575-.172 1.208-.26 1.9-.26.537 0 1.023.062 1.46.184.434.12.81.316 1.13.585.32.27.568.618.74 1.047.173.428.26.95.26 1.564V45.2h-1.786l-.23-.96h-.058c-.654.768-1.582 1.152-2.785 1.152-.96 0-1.71-.253-2.246-.758-.54-.506-.808-1.162-.808-1.968 0-.512.11-.954.327-1.325.216-.37.514-.678.892-.92.377-.244.828-.426 1.353-.548.525-.122 1.095-.182 1.71-.182h1.343v-.634c0-.5-.147-.854-.442-1.066-.294-.21-.69-.316-1.19-.316-.358 0-.74.057-1.142.172-.404.116-.848.314-1.335.596l-.807-1.556zm4.934 4.244l-1.037.038c-.844.026-1.433.17-1.766.432-.333.262-.5.58-.5.95 0 .474.142.794.423.96.282.167.608.25.98.25.37 0 .726-.093 1.065-.278.34-.186.618-.445.835-.778V41.13zm4.36-1.96c0-.498.095-.95.287-1.352.192-.404.46-.746.806-1.028.346-.28.752-.5 1.22-.652.466-.154.982-.23 1.545-.23.205 0 .422.015.653.047.23.032.448.074.652.125h3.898v1.498h-.73l-1.305-.192c.18.23.33.502.45.816.123.313.183.636.183.97 0 .486-.09.927-.268 1.324-.18.397-.44.736-.778 1.018-.34.28-.742.496-1.21.643-.467.147-.988.22-1.564.22-.36 0-.666-.025-.922-.076-.384.167-.576.41-.576.73 0 .436.34.653 1.018.653h2.15c.998 0 1.792.22 2.38.663.59.44.884 1.116.884 2.025 0 .5-.115.955-.346 1.364-.23.41-.56.762-.988 1.056-.43.295-.944.522-1.546.682-.602.16-1.274.24-2.016.24-1.37 0-2.45-.24-3.245-.72-.794-.48-1.19-1.18-1.19-2.102 0-.448.143-.83.43-1.143.29-.313.676-.553 1.162-.72-.204-.14-.387-.323-.547-.547-.16-.224-.24-.515-.24-.874 0-.41.125-.764.375-1.065.25-.3.58-.54.988-.72-.422-.217-.796-.54-1.123-.97-.326-.428-.49-.988-.49-1.68zm2.322 6.24c-.244.104-.436.25-.577.443-.14.192-.21.43-.21.71 0 .448.187.797.565 1.047.378.25.995.374 1.853.374.462 0 .855-.042 1.182-.125.326-.084.595-.196.806-.337.21-.14.365-.3.46-.48.097-.18.145-.365.145-.557 0-.41-.14-.69-.423-.844-.28-.154-.684-.23-1.21-.23h-2.59zm3.09-6.24c0-.575-.147-1-.442-1.276-.294-.275-.672-.412-1.132-.412-.474 0-.858.14-1.152.422-.295.282-.442.69-.442 1.23 0 .562.15.978.45 1.247.302.27.683.404 1.144.404.473 0 .854-.134 1.142-.403.288-.268.432-.67.432-1.21zm13.114 1.98h-6.202v.076c0 .832.26 1.452.778 1.862.518.41 1.2.614 2.044.614.5 0 .944-.044 1.335-.134.39-.09.764-.21 1.122-.365l.442 1.594c-.372.166-.813.307-1.325.422-.513.114-1.108.172-1.787.172-.678 0-1.315-.09-1.91-.27-.595-.178-1.117-.46-1.565-.844-.448-.384-.803-.87-1.066-1.46-.262-.588-.393-1.292-.393-2.11 0-.718.108-1.37.325-1.96.218-.588.525-1.094.922-1.516.397-.422.877-.75 1.44-.98.563-.23 1.184-.345 1.862-.345 1.215 0 2.182.37 2.898 1.114.717.743 1.076 1.774 1.076 3.092v1.037zm-2.324-1.576c0-.268-.032-.528-.096-.777-.064-.25-.166-.47-.307-.663-.14-.192-.323-.342-.547-.45-.224-.11-.49-.164-.797-.164-.576 0-1.05.192-1.42.576-.372.384-.596.89-.673 1.517l3.84-.04zm4.09 5.626v-9.12h1.747l.288 1.71c.218-.526.563-.97 1.037-1.336.474-.364 1.062-.547 1.766-.547.308 0 .576.032.807.096.23.064.422.135.576.21l-.383 1.845c-.14-.077-.314-.144-.52-.202-.203-.058-.453-.086-.747-.086-.653 0-1.204.224-1.652.672-.448.448-.672 1.158-.672 2.13V45.2h-2.246zm12.672-7.085c-.755-.358-1.49-.537-2.208-.537-.474 0-.835.083-1.085.25-.25.166-.375.396-.375.69 0 .244.102.452.307.624.205.173.614.35 1.23.528l.575.173c.82.243 1.437.576 1.853 1 .416.42.624.978.624 1.67 0 .882-.333 1.583-1 2.1-.664.52-1.573.78-2.725.78-1.243 0-2.273-.206-3.092-.615l.5-1.69c.37.18.764.326 1.18.442.416.115.848.172 1.296.172 1.062 0 1.593-.34 1.593-1.017 0-.307-.125-.535-.374-.682-.25-.147-.675-.317-1.277-.51l-.595-.19c-.793-.257-1.378-.593-1.756-1.01-.378-.415-.566-.962-.566-1.64 0-.397.083-.765.25-1.104.166-.34.4-.632.7-.875.3-.243.666-.432 1.094-.566.43-.136.906-.203 1.43-.203.526 0 1.034.048 1.527.144.492.097.95.24 1.372.433l-.48 1.632z"/><g transform="translate(10 15.8)"><use fill="#E9ECEF" xlink:href="#b"/><circle cx="13" cy="13" r="12.5" stroke="#CED4DA"/><path fill="#D9480F" d="M9.168 10.595v.037h2.05v-.044c0-.974.704-1.648 1.73-1.648.966 0 1.655.6 1.655 1.45 0 .69-.374 1.238-1.86 2.688l-3.45 3.377V18h7.624v-1.838h-4.63v-.132l2.023-1.926c1.83-1.722 2.453-2.71 2.453-3.86 0-1.817-1.538-3.084-3.742-3.084-2.284 0-3.852 1.392-3.852 3.435z"/></g></g></svg>