<svg width="232" height="62" viewBox="0 0 232 62" xmlns="http://www.w3.org/2000/svg" xmlns:xlink="http://www.w3.org/1999/xlink"><title>thumb-3</title><defs><linearGradient x1="50%" y1="0%" x2="50%" y2="100%" id="a"><stop stop-color="#FFF" offset="0%"/><stop stop-color="#F1F1F1" offset="100%"/></linearGradient><circle id="b" cx="13" cy="13" r="13"/></defs><g transform="translate(1 1)" fill="none" fill-rule="evenodd"><rect stroke="#C1C1C1" fill="url(#a)" width="230" height="60" rx="4"/><text font-family="MuktaMalar-Regular, Mukta Malar" font-size="14.4" letter-spacing="-.096" fill="#4A4A4A"><tspan x="45.392" y="24">Open-ended survey with a </tspan> <tspan x="44" y="44.248" font-family="MuktaMalar-SemiBold, Mukta Malar" font-size="19.2" font-weight="500">Sales community</tspan></text><g transform="translate(10 15.8)"><use fill="#E9ECEF" xlink:href="#b"/><circle stroke="#CED4DA" cx="13" cy="13" r="12.5"/></g><path d="M21.68 29.215h1.31c1.188 0 1.913.57 1.913 1.494 0 .9-.77 1.523-1.875 1.523-1.135 0-1.89-.564-1.956-1.458h-2.116c.095 1.992 1.692 3.296 4.05 3.296 2.41 0 4.153-1.34 4.153-3.192 0-1.392-.91-2.36-2.36-2.52v-.132c1.18-.24 1.95-1.194 1.95-2.417 0-1.663-1.56-2.85-3.73-2.85-2.306 0-3.793 1.26-3.866 3.26h2.043c.06-.916.74-1.495 1.765-1.495 1.033 0 1.692.542 1.692 1.392 0 .864-.68 1.45-1.685 1.45h-1.29v1.648z" fill="#D9480F"/></g></svg>