<svg xmlns="http://www.w3.org/2000/svg" xmlns:xlink="http://www.w3.org/1999/xlink" width="232" height="62" viewBox="0 0 232 62"><defs><linearGradient id="a" x1="50%" x2="50%" y1="0%" y2="100%"><stop offset="0%" stop-color="#FFF"/><stop offset="100%" stop-color="#F1F1F1"/></linearGradient><circle id="b" cx="13" cy="13" r="13"/></defs><g fill="none" fill-rule="evenodd" transform="translate(1 1)"><rect width="230" height="60" fill="url(#a)" stroke="#C1C1C1" rx="4"/><path fill="#4A4A4A" d="M47.477 14.528V23.6h-1.325v-9.072h1.325zm3.288 9.072h-1.267v-6.768h.993l.188.936c.336-.336.69-.593 1.06-.77.368-.178.793-.267 1.273-.267.692 0 1.235.196 1.628.584.394.39.59.93.59 1.62V23.6h-1.266v-4.478c0-.413-.108-.742-.324-.987-.216-.245-.545-.367-.987-.367-.67 0-1.3.302-1.885.907V23.6zm9.81-5.818H58.59v3.932c0 .336.083.56.25.676.17.116.387.173.656.173.192 0 .403-.02.634-.065.23-.043.432-.093.604-.15l.202.964c-.192.077-.437.144-.734.202-.298.057-.61.086-.936.086-.672 0-1.162-.146-1.47-.44-.306-.292-.46-.717-.46-1.274v-4.104h-1.008v-.95h1.008v-2.16h1.253v2.16h1.986v.95zm7.35 2.578h-4.853v.058c0 .748.204 1.324.612 1.728.408.403.962.604 1.663.604.365 0 .69-.028.972-.086.282-.058.592-.154.928-.288l.26.936c-.28.125-.608.226-.987.302-.378.077-.784.116-1.216.116-.49 0-.948-.068-1.375-.202-.428-.134-.805-.343-1.132-.626-.326-.284-.583-.646-.77-1.088-.187-.44-.28-.97-.28-1.584 0-.528.078-1.008.237-1.44.158-.432.38-.8.67-1.1.287-.304.635-.54 1.043-.707.408-.168.867-.252 1.376-.252.432 0 .823.073 1.173.217.35.144.65.346.9.605.25.26.442.57.576.936.135.365.202.768.202 1.21v.662zm-1.31-.907c0-.25-.032-.483-.094-.7-.062-.215-.158-.404-.287-.567-.13-.164-.295-.293-.497-.39-.202-.095-.446-.143-.734-.143-.528 0-.958.168-1.29.504-.33.336-.534.777-.61 1.325l3.512-.03zm2.683 4.147v-6.768h.95l.216 1.354c.163-.432.432-.783.806-1.052.375-.268.807-.403 1.296-.403.25 0 .456.02.62.06.163.037.312.085.446.143l-.245 1.11c-.115-.06-.242-.107-.38-.145-.14-.04-.306-.058-.498-.058-.28 0-.536.048-.772.144-.235.096-.44.24-.62.432-.176.192-.316.43-.416.713-.1.282-.152.606-.152.97v3.5h-1.252zm9.74-6.768h1.352L77.87 23.6h-1.238l-2.55-6.768h1.37l1.526 4.65.26 1.067h.056l.245-1.052 1.497-4.666zm2.61 6.768v-6.768h1.267V23.6h-1.267zm.634-8.51c-.22 0-.41-.075-.57-.224-.158-.148-.237-.333-.237-.554 0-.22.08-.408.238-.562.158-.153.348-.23.57-.23.21 0 .397.077.56.23.163.154.245.34.245.562 0 .22-.082.406-.245.554-.163.15-.35.224-.56.224zm8.37 5.27H85.8v.058c0 .748.204 1.324.612 1.728.408.403.962.604 1.663.604.365 0 .69-.028.972-.086.283-.058.593-.154.93-.288l.258.936c-.278.125-.607.226-.986.302-.38.077-.786.116-1.218.116-.49 0-.948-.068-1.375-.202-.427-.134-.804-.343-1.13-.626-.327-.284-.584-.646-.77-1.088-.188-.44-.282-.97-.282-1.584 0-.528.08-1.008.238-1.44.158-.432.38-.8.67-1.1.287-.304.635-.54 1.043-.707.408-.168.867-.252 1.376-.252.432 0 .823.073 1.173.217.35.144.65.346.9.605.25.26.442.57.576.936.136.365.203.768.203 1.21v.662zm-1.31-.907c0-.25-.03-.483-.093-.7-.064-.215-.16-.404-.29-.567-.13-.164-.294-.293-.496-.39-.202-.095-.446-.143-.734-.143-.528 0-.958.168-1.29.504-.33.336-.534.777-.61 1.325l3.512-.03zm1.82-2.62h1.353l1.152 4.26.26 1.513h.057l.317-1.512 1.167-4.262h1.368l1.195 4.262.303 1.512h.057l.317-1.512 1.123-4.262h1.296l-2.06 6.768h-1.44l-1.15-4.147-.332-1.67-.346 1.67-1.18 4.147H93.25l-2.088-6.768zm14.78 1.266c-.318-.154-.606-.26-.865-.318-.26-.057-.52-.086-.778-.086-.462 0-.802.084-1.023.252-.22.168-.33.39-.33.67 0 .2.075.376.23.525.153.15.474.295.964.44l.433.13c.643.19 1.13.438 1.46.74.333.303.498.713.498 1.232 0 .614-.227 1.11-.683 1.483-.456.374-1.092.562-1.908.562-.433 0-.848-.04-1.246-.116-.4-.076-.742-.182-1.03-.316l.302-.994c.28.134.58.242.908.324.326.082.657.122.993.122.432 0 .775-.076 1.03-.23.254-.154.38-.408.38-.763 0-.307-.11-.526-.33-.655-.22-.13-.537-.257-.95-.382l-.447-.144c-.624-.202-1.087-.454-1.39-.756-.302-.302-.453-.694-.453-1.174 0-.288.063-.552.187-.792.125-.24.296-.44.512-.604.216-.164.472-.29.77-.382.298-.09.624-.137.98-.137.335 0 .683.032 1.043.095.36.062.702.165 1.03.31l-.29.964zm5.077-1.268h1.353l1.152 4.262.26 1.512h.057l.316-1.512 1.167-4.262h1.368l1.195 4.262.302 1.512h.058l.317-1.512 1.123-4.262h1.296l-2.06 6.768h-1.44l-1.15-4.147-.332-1.67-.346 1.67-1.18 4.147h-1.37l-2.087-6.768zm11.178 6.768v-6.768h1.268V23.6h-1.268zm.634-8.51c-.22 0-.41-.075-.57-.224-.157-.148-.236-.333-.236-.554 0-.22.08-.408.237-.562.16-.153.348-.23.57-.23.21 0 .397.077.56.23.164.154.245.34.245.562 0 .22-.08.406-.244.554-.164.15-.35.224-.562.224zM129 17.782h-1.987v3.932c0 .336.084.56.252.676.168.116.386.173.655.173.192 0 .403-.02.634-.065.23-.043.432-.093.604-.15l.202.964c-.192.077-.437.144-.734.202-.298.057-.61.086-.936.086-.672 0-1.162-.146-1.47-.44-.306-.292-.46-.717-.46-1.274v-4.104h-1.008v-.95h1.008v-2.16h1.253v2.16H129v.95zm2.87 5.818h-1.267V13.376h1.267v4.32c.317-.278.668-.51 1.052-.69.384-.184.806-.275 1.267-.275.373 0 .7.056.978.167.278.11.506.264.684.46.178.197.312.43.403.7.09.268.137.56.137.877V23.6h-1.267v-4.35c0-.517-.106-.894-.317-1.13-.21-.234-.533-.352-.965-.352-.326 0-.655.082-.986.245-.33.163-.66.393-.987.69V23.6zm-81.724 9.312c.716 0 1.366.067 1.948.202.583.134 1.117.323 1.604.566l-.538 1.805c-.525-.256-1.024-.448-1.498-.576-.473-.13-.94-.193-1.4-.193-.654 0-1.163.134-1.528.403-.364.27-.547.634-.547 1.094 0 .448.15.79.45 1.028.302.236.785.464 1.45.68l1.172.385c.998.333 1.76.794 2.284 1.383.525.588.787 1.286.787 2.092 0 .525-.1 1.005-.306 1.44-.205.436-.5.816-.883 1.143-.383.326-.854.58-1.41.758-.557.18-1.188.27-1.892.27-.69 0-1.363-.068-2.016-.203-.652-.134-1.28-.348-1.88-.643l.536-1.785c.55.268 1.088.473 1.613.614.526.14 1.076.21 1.652.21.692 0 1.232-.133 1.623-.402.39-.27.585-.66.585-1.17 0-.18-.032-.35-.096-.51-.064-.16-.176-.314-.336-.46-.16-.148-.38-.292-.662-.433-.282-.14-.634-.28-1.056-.42l-1.075-.366c-.883-.307-1.59-.714-2.122-1.22-.53-.505-.797-1.218-.797-2.14 0-1.062.372-1.92 1.114-2.573.742-.652 1.818-.978 3.226-.978zm6.2 3.974c.564-.307 1.134-.547 1.71-.72.576-.172 1.21-.26 1.9-.26.538 0 1.025.062 1.46.184.435.12.813.316 1.133.585.32.27.565.618.738 1.047.173.428.26.95.26 1.564V45.2H61.76l-.23-.96h-.058c-.653.768-1.58 1.152-2.784 1.152-.96 0-1.71-.253-2.247-.758-.537-.506-.806-1.162-.806-1.968 0-.512.11-.954.326-1.325.218-.37.515-.678.893-.92.378-.244.83-.426 1.354-.548.524-.122 1.094-.182 1.708-.182h1.344v-.634c0-.5-.147-.854-.44-1.066-.296-.21-.692-.316-1.192-.316-.358 0-.74.057-1.142.172-.403.116-.848.314-1.334.596l-.807-1.556zm4.936 4.244l-1.037.038c-.845.026-1.434.17-1.767.432-.332.262-.5.58-.5.95 0 .474.142.794.424.96.28.167.608.25.98.25.37 0 .725-.093 1.064-.278.34-.186.618-.445.836-.778V41.13zm4.684 4.07V31.53h2.228V45.2h-2.228zm12.615-4.05h-6.2v.076c0 .832.258 1.452.777 1.862.518.41 1.2.614 2.045.614.5 0 .944-.044 1.334-.134.39-.09.765-.21 1.123-.365l.44 1.594c-.37.166-.812.307-1.324.422-.512.114-1.107.172-1.786.172-.678 0-1.315-.09-1.91-.27-.595-.178-1.117-.46-1.565-.844-.448-.384-.803-.87-1.065-1.46-.263-.588-.394-1.292-.394-2.11 0-.718.11-1.37.326-1.96.218-.588.525-1.094.922-1.516.397-.422.877-.75 1.44-.98.563-.23 1.184-.345 1.862-.345 1.216 0 2.183.37 2.9 1.114.716.743 1.075 1.774 1.075 3.092v1.037zm-2.322-1.576c0-.268-.032-.528-.096-.777-.064-.25-.167-.47-.308-.663-.14-.192-.323-.342-.547-.45-.224-.11-.49-.164-.797-.164-.576 0-1.05.192-1.42.576-.372.384-.596.89-.672 1.517l3.84-.04zm9.484-1.46c-.755-.357-1.49-.536-2.208-.536-.473 0-.835.083-1.084.25-.25.166-.375.396-.375.69 0 .244.103.452.307.624.205.173.615.35 1.23.528l.575.173c.82.243 1.437.576 1.853 1 .416.42.624.978.624 1.67 0 .882-.333 1.583-.998 2.1-.666.52-1.575.78-2.727.78-1.242 0-2.273-.206-3.092-.615l.5-1.69c.37.18.764.326 1.18.442.416.115.848.172 1.296.172 1.062 0 1.594-.34 1.594-1.017 0-.307-.125-.535-.375-.682-.25-.147-.675-.317-1.277-.51l-.595-.19c-.792-.257-1.378-.593-1.756-1.01-.377-.415-.566-.962-.566-1.64 0-.397.083-.765.25-1.104.166-.34.4-.632.7-.875.3-.243.666-.432 1.095-.566.43-.136.905-.203 1.43-.203.525 0 1.034.048 1.527.144.492.097.95.24 1.372.433l-.48 1.632zm8.256-5.01h7.68v1.843H96.34V38h4.84v1.824h-4.84v3.533h5.396V45.2h-7.738V33.104zm14.38 7.45l3.227 4.646h-2.592l-1.17-1.71-.865-1.496-.788 1.478-1.113 1.728h-2.554l3.168-4.646-2.994-4.474h2.534l1.095 1.71.787 1.44.768-1.44 1.018-1.71h2.476l-2.995 4.474zm12 .595h-6.2v.076c0 .832.26 1.452.777 1.862.52.41 1.2.614 2.045.614.5 0 .944-.044 1.334-.134.39-.09.765-.21 1.124-.365l.44 1.594c-.37.166-.812.307-1.324.422-.512.114-1.107.172-1.785.172-.68 0-1.316-.09-1.912-.27-.595-.178-1.116-.46-1.564-.844-.448-.384-.804-.87-1.066-1.46-.262-.588-.394-1.292-.394-2.11 0-.718.11-1.37.327-1.96.218-.588.526-1.094.922-1.516.397-.422.877-.75 1.44-.98.564-.23 1.184-.345 1.863-.345 1.216 0 2.182.37 2.9 1.114.716.743 1.074 1.774 1.074 3.092v1.037zm-2.322-1.576c0-.268-.032-.528-.096-.777-.064-.25-.166-.47-.307-.663-.14-.192-.323-.342-.547-.45-.224-.11-.49-.164-.797-.164-.577 0-1.05.192-1.422.576-.37.384-.595.89-.672 1.517l3.84-.04zm8.736 4.128c.41 0 .77-.048 1.085-.144.313-.096.58-.2.797-.316l.44 1.593c-.28.14-.652.27-1.112.384-.46.114-.967.172-1.517.172-.68 0-1.312-.1-1.9-.298-.59-.198-1.102-.496-1.537-.892-.435-.397-.778-.89-1.027-1.48-.25-.588-.374-1.272-.374-2.053 0-.718.12-1.37.356-1.96.236-.588.57-1.09.998-1.507.43-.416.94-.736 1.536-.96.595-.224 1.25-.336 1.968-.336.397 0 .806.04 1.23.115.42.077.876.23 1.362.46l-.48 1.614c-.294-.166-.595-.294-.902-.384-.308-.09-.628-.134-.96-.134-.845 0-1.524.26-2.036.777-.512.52-.768 1.27-.768 2.256 0 .577.084 1.064.25 1.46.166.397.384.717.653.96.27.244.573.416.912.52.34.1.68.152 1.027.152zm9.965-7.622h2.265v9.12h-1.708l-.27-1.056h-.076c-.294.307-.685.592-1.17.854-.488.263-1.096.394-1.825.394-.96 0-1.728-.27-2.304-.806-.577-.538-.865-1.344-.865-2.42V36.08h2.265v5.856c0 .627.144 1.072.432 1.334.288.263.656.394 1.104.394.474 0 .887-.1 1.24-.298.35-.198.655-.444.91-.74V36.08zm9.81 1.65h-2.514v4.57c0 .436.105.734.317.894.21.16.483.24.816.24.256 0 .524-.026.806-.077.282-.05.518-.122.71-.21l.346 1.61c-.243.104-.573.203-.99.3-.415.095-.86.143-1.333.143-1.037 0-1.783-.21-2.237-.634-.454-.422-.682-1.056-.682-1.9V37.73h-1.382v-1.65h1.382v-2.842h2.247v2.842h2.515v1.65zm2.113 7.47v-9.12h2.266v9.12h-2.266zm1.133-11.213c-.397 0-.707-.115-.93-.345-.225-.23-.337-.52-.337-.864 0-.333.115-.618.345-.855.232-.237.54-.355.923-.355.37 0 .672.115.902.346.23.23.346.518.346.864 0 .345-.114.633-.345.864-.23.23-.53.345-.902.345zm9.293 2.093h2.42l-3.304 9.12h-2.515l-3.225-9.12h2.42l1.573 5.126.5 2.304h.076l.48-2.304 1.576-5.126zm11.52 5.07h-6.202v.076c0 .832.26 1.452.778 1.862.518.41 1.2.614 2.044.614.5 0 .944-.044 1.335-.134.39-.09.766-.21 1.124-.365l.442 1.594c-.372.166-.813.307-1.325.422-.51.114-1.106.172-1.785.172-.678 0-1.315-.09-1.91-.27-.595-.178-1.117-.46-1.565-.844-.448-.384-.803-.87-1.066-1.46-.262-.588-.393-1.292-.393-2.11 0-.718.11-1.37.327-1.96.218-.588.525-1.094.922-1.516.396-.422.876-.75 1.44-.98.562-.23 1.183-.345 1.86-.345 1.217 0 2.184.37 2.9 1.114.717.743 1.076 1.774 1.076 3.092v1.037zm-2.324-1.576c0-.268-.032-.528-.096-.777-.064-.25-.166-.47-.307-.663-.142-.192-.324-.342-.548-.45-.224-.11-.49-.164-.797-.164-.576 0-1.05.192-1.42.576-.372.384-.596.89-.673 1.517l3.84-.04zm9.485-1.46c-.755-.357-1.49-.536-2.208-.536-.474 0-.836.083-1.086.25-.25.166-.374.396-.374.69 0 .244.102.452.307.624.205.173.615.35 1.23.528l.575.173c.82.243 1.437.576 1.853 1 .416.42.624.978.624 1.67 0 .882-.334 1.583-1 2.1-.665.52-1.574.78-2.726.78-1.242 0-2.272-.206-3.09-.615l.498-1.69c.37.18.765.326 1.18.442.417.115.85.172 1.297.172 1.06 0 1.592-.34 1.592-1.017 0-.307-.124-.535-.374-.682-.25-.147-.675-.317-1.277-.51l-.594-.19c-.794-.257-1.38-.593-1.757-1.01-.378-.415-.567-.962-.567-1.64 0-.397.083-.765.25-1.104.166-.34.4-.632.7-.875.3-.243.666-.432 1.095-.566.428-.136.905-.203 1.43-.203.525 0 1.034.048 1.526.144.493.097.95.24 1.373.433l-.48 1.632z"/><g transform="translate(10 15.8)"><use fill="#E9ECEF" xlink:href="#b"/><circle cx="13" cy="13" r="12.5" stroke="#CED4DA"/><path fill="#D9480F" d="M12.827 18h2.212V7.43h-2.206l-2.732 1.883v2.06l2.593-1.79h.132"/></g></g></svg>