<svg width="232" height="62" viewBox="0 0 232 62" xmlns="http://www.w3.org/2000/svg" xmlns:xlink="http://www.w3.org/1999/xlink"><title>thumb-2</title><defs><linearGradient x1="50%" y1="0%" x2="50%" y2="100%" id="a"><stop stop-color="#FFF" offset="0%"/><stop stop-color="#F1F1F1" offset="100%"/></linearGradient><circle id="b" cx="13" cy="13" r="13"/></defs><g transform="translate(1 1)" fill="none" fill-rule="evenodd"><rect stroke="#C1C1C1" fill="url(#a)" width="230" height="60" rx="4"/><text font-family="MuktaMalar-Regular, Mukta Malar" font-size="14.4" letter-spacing="-.096" fill="#4A4A4A"><tspan x="45.392" y="23">Interviews with</tspan> <tspan x="44" y="43.248" font-family="MuktaMalar-SemiBold, Mukta Malar" font-size="19.2" font-weight="500">Sales Managers</tspan></text><g transform="translate(10 15.8)"><use fill="#E9ECEF" xlink:href="#b"/><circle stroke="#CED4DA" cx="13" cy="13" r="12.5"/></g><path d="M19.168 26.395v.037h2.05v-.044c0-.974.704-1.648 1.73-1.648.966 0 1.655.6 1.655 1.45 0 .69-.374 1.238-1.86 2.688l-3.45 3.377V33.8h7.624v-1.838h-4.63v-.132l2.023-1.926c1.83-1.722 2.453-2.71 2.453-3.86 0-1.817-1.538-3.084-3.742-3.084-2.284 0-3.852 1.392-3.852 3.435z" fill="#D9480F"/></g></svg>