<svg width="470" height="470" viewBox="0 0 470 470" xmlns="http://www.w3.org/2000/svg"><title>al-svg</title><g fill="none" fill-rule="evenodd"><path fill-opacity=".01" fill="#D8D8D8" d="M0 0h470v470H0z"/><path d="M374.524 414.073c0 5.305-2.108 10.393-5.86 14.144-3.75 3.75-8.837 5.858-14.142 5.858h-248.03c-5.306 0-10.392-2.108-14.144-5.858-3.752-3.75-5.86-8.84-5.86-14.144V94.045c0-5.304 2.108-10.392 5.86-14.143 3.752-3.75 8.838-5.858 14.143-5.858h124.016v60.005h72.01V74.043v120.01h72.008v220.02z" fill="#E6E6E6"/><path d="M230.506 74.044v60.005h72.01V74.043v120.01h72.008V414.26l-.003.06v.187l-.003.062v.06l-.003.063-.002.062-.003.062-.003.062-.002.06-.003.063-.002.062-.005.062-.002.062-.003.06-.005.06-.004.063-.002.062-.005.062-.004.063-.006.06-.005.062-.006.062-.005.062-.008.06-.005.062-.004.062-.008.06-.004.062-.007.062-.007.06-.005.062-.006.06-.007.062-.007.062-.01.06-.007.062-.007.06-.007.062-.01.06-.008.062-.01.06-.01.06-.007.062-.01.06-.01.06-.008.062-.01.06-.01.06-.01.062-.01.06-.01.06-.01.06-.012.06-.012.062-.01.06-.012.06-.01.06-.013.06-.012.06-.012.06-.012.06-.01.06-.013.06-.014.06-.012.06-.014.06-.012.058-.014.06-.012.06-.015.06-.014.06-.015.06-.015.058-.014.06-.015.06-.015.058-.015.06-.014.058-.017.06-.015.058-.017.06-.017.058-.013.06-.017.058-.017.06-.017.058-.017.058-.017.06-.02.058-.016.058-.017.058-.02.06-.016.058-.02.058-.016.058-.02.058-.02.058-.018.058-.02.058-.018.058-.02.058-.02.058-.018.058-.022.058-.02.056-.018.058-.022.058-.02.056-.02.058-.022.058-.022.056-.02.058-.023.056-.02.058-.023.056-.022.058-.02.056-.025.058-.022.056-.02.056-.025.056-.024.058-.022.056-.024.056-.024.056-.024.056-.024.056-.024.056-.024.056-.024.056-.024.056-.026.056-.024.056-.027.056-.024.054-.027.056-.024.056-.028.054-.026.056-.026.054-.027.056-.026.054-.027.056-.026.054-.026.056-.03.054-.026.054-.028.054-.027.056-.03.054-.025.054-.03.054-.028.054-.028.054-.03.054-.028.054-.03.054-.028.052-.028.054-.03.054-.03.054-.03.052-.03.054-.03.052-.03.054-.032.054-.03.052-.03.052-.03.054-.032.052-.03.052-.033.052-.033.054-.03.052-.033.052-.032.052-.033.052-.032.052-.033.052-.034.05-.03.052-.035.052-.032.052-.034.05-.033.052-.033.05-.034.052-.033.052-.036.05-.034.05-.033.05-.036.052-.033.05-.036.05-.033.05-.036.05-.035.05-.036.05-.037.05-.036.05-.036.05-.035.05-.036.048-.04.05-.035.05-.036.048-.04.05-.035.048-.04.05-.035.048-.038.048-.04.048-.037.05-.04.048-.037.048-.038.048-.04.048-.037.048-.04.048-.037.046-.04.048-.04.048-.04.048-.038.046-.04.05-.042.045-.04.047-.04.048-.04.046-.04.047-.042.048-.04.046-.04.047-.044.046-.04.046-.042.045-.043.046-.04.045-.044.046-.04.047-.043.044-.04.047-.044.044-.043.047-.044.044-.043.045-.043.046-.043.045-.043.044-.044.043-.045.044-.043.044-.046.045-.043.044-.044.04-.046.045-.046.044-.043.04-.046.045-.046.042-.043.042-.045.04-.046.043-.046.042-.046.042-.045.042-.046.04-.046.043-.044.04-.048.042-.046.04-.045.042-.048.04-.047.042-.048.04-.046.04-.05.04-.044.04-.048.04-.048.037-.046.04-.048.04-.048.038-.048.04-.048.038-.048.04-.048.038-.048.04-.048.037-.048.038-.048.038-.05.038-.048.04-.048.035-.05.038-.05.038-.047.037-.05.036-.05.038-.048.037-.05.036-.048.036-.05.035-.05.036-.05.037-.05.036-.05.034-.05.036-.05.034-.05.036-.05.034-.054.034-.05.037-.05.034-.05.035-.052.034-.052.033-.05.032-.05.034-.054.033-.05.032-.053.034-.052.03-.053.035-.05.032-.053.032-.053.03-.05.033-.054.032-.053.032-.052.03-.052.032-.053.03-.05.03-.053.03-.055.033-.053.03-.053.03-.052.03-.053.03-.052.03-.053.03-.055.03-.053.028-.053.03-.056.03-.053.03-.054.027-.053.03-.055.028-.053.028-.055.028-.055.03-.053.025-.056.028-.055.028-.052.03-.055.025-.055.026-.055.03-.055.025-.056.026-.055.027-.055.026-.055.026-.055.025-.056.026-.055.025-.054.026-.055.025-.054.026-.058.025-.055.024-.055.023-.058.024-.055.024-.055.025-.058.024-.055.023-.058.022-.056.024-.058.02-.055.025-.057.022-.057.022-.055.02-.057.023-.058.022-.055.022-.057.022-.058.02-.058.02-.057.023-.058.02-.057.02-.056.022-.06.02-.056.02-.06.02-.055.02-.06.02-.06.018-.056.02-.058.018-.057.02-.06.02-.06.02-.057.017-.057.018-.058.018-.06.018-.058.02-.057.015-.06.018-.058.018-.06.017-.057.016-.06.018-.058.017-.06.016-.058.016-.06.015-.057.016-.06.017-.06.014-.058.017-.06.014-.06.017-.057.014-.06.015-.06.016-.06.015-.06.012-.06.014-.058.015-.06.014-.06.01-.06.015-.06.012-.06.014-.06.013-.06.012-.06.012-.06.012-.06.01-.06.013-.06.01-.06.012-.063.012-.06.01-.06.01-.06.01-.06.012-.06.01-.063.01-.06.007-.06.01-.062.01-.06.008-.06.01-.06.008-.063.01-.06.008-.062.01-.06.007-.06.008-.063.008-.06.008-.062.007-.06.008-.063.006-.06.007-.062.008-.06.006-.062.007-.06.006-.063.006-.06.005-.062.004-.063.005-.06.006-.062.005-.06.004-.062.005-.063.004-.06.003-.062.004-.062.004-.062.005-.06.002-.062.004-.063.003-.06.004-.06.002h-.064l-.062.003-.063.002-.06.002-.06.002h-.126l-.062.003h-.063l-.063.002H106.306l-.063-.002h-.062l-.06-.002h-.126l-.06-.003-.063-.002-.06-.002-.063-.002h-.063l-.06-.003-.062-.004-.063-.002-.063-.003-.06-.002-.063-.004-.062-.003-.062-.004-.06-.004-.063-.005-.062-.006-.06-.005-.063-.004-.06-.005-.062-.006-.062-.005-.06-.006-.063-.007-.06-.006-.062-.006-.06-.005-.063-.008-.06-.006-.062-.005-.06-.008-.062-.006-.06-.007-.063-.008-.06-.008-.06-.008-.062-.01-.06-.007-.062-.01-.06-.008-.06-.01-.06-.008-.062-.01-.06-.01-.06-.008-.063-.01-.06-.01-.06-.013-.06-.01-.06-.01-.06-.01-.062-.012-.06-.012-.06-.01-.06-.012-.06-.01-.06-.013-.06-.012-.06-.012-.06-.012-.06-.013-.06-.012-.06-.014-.06-.01-.06-.015-.057-.014-.06-.013-.06-.012-.06-.014-.06-.015-.057-.014-.06-.013-.06-.016-.06-.013-.058-.016-.06-.013-.06-.016-.058-.015-.06-.016-.057-.017-.06-.016-.058-.016-.06-.017-.057-.016-.06-.016-.058-.017-.06-.018-.058-.016-.057-.02-.06-.017-.058-.018-.057-.018-.058-.018-.06-.02-.058-.02-.057-.02-.058-.017-.06-.02-.056-.018-.06-.02-.058-.02-.057-.02-.057-.02-.057-.02-.058-.022-.057-.02-.057-.02-.058-.022-.057-.02-.058-.02-.055-.023-.058-.022-.057-.022-.058-.022-.055-.02-.058-.023-.058-.022-.055-.024-.058-.02-.056-.025-.058-.022-.055-.024-.057-.025-.055-.024-.055-.023-.058-.024-.055-.024-.055-.025-.055-.024-.058-.025-.055-.024-.055-.025-.056-.024-.055-.025-.054-.026-.055-.027-.054-.026-.056-.026-.055-.025-.055-.026-.055-.03-.055-.025-.056-.026-.052-.03-.056-.027-.055-.028-.054-.026-.053-.03-.055-.027-.053-.028-.055-.028-.053-.03-.055-.028-.053-.03-.056-.03-.053-.03-.052-.027-.053-.03-.055-.03-.053-.03-.052-.03-.053-.03-.053-.03-.054-.03-.055-.032-.052-.03-.05-.03-.053-.03-.053-.033-.053-.03-.053-.032-.053-.032-.05-.032-.053-.03-.052-.033-.05-.032-.053-.034-.05-.03-.054-.035-.05-.032-.052-.034-.05-.035-.05-.032-.054-.034-.05-.035-.05-.034-.05-.033-.05-.036-.054-.033-.05-.034-.05-.036-.05-.034-.052-.036-.05-.034-.048-.036-.05-.036-.05-.035-.05-.036-.05-.037-.05-.036-.048-.036-.05-.037-.048-.036-.05-.036-.048-.037-.05-.038-.05-.036-.047-.04-.05-.037-.05-.038-.047-.038-.048-.038-.048-.04-.048-.037-.05-.04-.047-.038-.048-.04-.048-.038-.048-.04-.047-.04-.048-.038-.048-.04-.046-.04-.047-.04-.045-.04-.048-.04-.046-.043-.048-.04-.045-.042-.045-.04-.046-.042-.05-.04-.044-.042-.046-.04-.045-.043-.046-.042-.047-.042-.045-.042-.046-.04-.043-.043-.047-.042-.045-.044-.043-.04-.046-.045-.047-.044-.043-.04-.043-.045-.046-.044-.042-.043-.043-.044-.046-.044-.044-.045-.043-.044-.043-.045-.044-.044-.043-.043-.043-.046-.04-.043-.044-.046-.043-.043-.04-.046-.044-.045-.042-.044-.043-.045-.04-.046-.042-.047-.043-.046-.04-.046-.042-.045-.04-.048-.04-.046-.042-.045-.04-.048-.04-.046-.04-.045-.04-.05-.04-.045-.04-.048-.038-.048-.04-.048-.04-.046-.038-.048-.038-.048-.04-.048-.037-.048-.04-.048-.037-.048-.038-.05-.04-.048-.037-.048-.036-.048-.04-.05-.035-.048-.038-.05-.036-.048-.036-.05-.04-.05-.035-.048-.036-.05-.035-.05-.036-.05-.037-.05-.036-.05-.036-.05-.035-.05-.033-.05-.036-.05-.034-.05-.036-.052-.033-.05-.034-.05-.037-.05-.034-.052-.034-.052-.034-.05-.033-.052-.035-.05-.034-.052-.032-.052-.03-.052-.035-.05-.034-.052-.032-.052-.033-.052-.032-.052-.03-.052-.032-.052-.033-.054-.03-.052-.032-.052-.03-.052-.032-.054-.032-.052-.027-.052-.032-.054-.03-.054-.03-.052-.03-.054-.03-.052-.03-.054-.03-.054-.027-.054-.03-.052-.028-.054-.03-.054-.028-.054-.03-.054-.027-.054-.03-.054-.026-.054-.028-.054-.027-.056-.03-.054-.026-.054-.03-.054-.025-.056-.028-.054-.026-.056-.026-.054-.027-.056-.026-.054-.027-.056-.026-.054-.024-.056-.026-.056-.024-.054-.027-.056-.024-.056-.027-.056-.024-.056-.025-.056-.024-.056-.023-.056-.024-.056-.024-.056-.025-.056-.024-.056-.02-.056-.025-.058-.02-.056-.025-.056-.022-.056-.024-.058-.022-.056-.02-.058-.023-.056-.022-.058-.022-.056-.022-.058-.02-.056-.023-.058-.018-.058-.022-.056-.02-.058-.02-.058-.02-.056-.02-.058-.02-.058-.02-.058-.02-.058-.018-.058-.02-.058-.018-.058-.02-.058-.02-.058-.016-.058-.02-.058-.016-.058-.02-.06-.016-.058-.016-.058-.02-.058-.016-.06-.017-.058-.017-.058-.017-.06-.017-.058-.014-.06-.017-.058-.017-.06-.014-.058-.017-.06-.014-.058-.015-.06-.017-.058-.013-.06-.014-.06-.015-.058-.014-.06-.015-.06-.015-.06-.012-.06-.014-.06-.013-.058-.015-.06-.012-.06-.014-.06-.012-.06-.012-.06-.012-.06-.012-.06-.012-.06-.012-.06-.012-.06-.012-.06-.01-.06-.012-.062-.012-.06-.01-.06-.01-.06-.01-.06-.01-.062-.01-.06-.01-.06-.01-.062-.01-.06-.01-.06-.006-.062-.01-.06-.01-.06-.006-.062-.01-.06-.007-.062-.007-.06-.007-.062-.01-.06-.007-.062-.007-.062-.006-.06-.007-.062-.008-.06-.008-.062-.005-.062-.007-.06-.005-.062-.004-.062-.007-.06-.004-.062-.006-.062-.005-.062-.006-.06-.005-.063-.005-.062-.003-.062-.005-.062-.004-.06-.003-.06-.002-.063-.005-.062-.002-.062-.002-.062-.002-.06-.003-.063-.002-.062v-.062l-.004-.062v-.06l-.002-.063-.003-.062V93.675l.004-.062.002-.06v-.063l.003-.062v-.062l.003-.062.003-.06.002-.063.003-.062.003-.06.005-.063.002-.062.003-.062.004-.06.005-.063.003-.062.004-.06.004-.063.005-.06.004-.063.005-.06.003-.063.008-.06.005-.063.005-.06.007-.06.005-.063.007-.06.007-.062.007-.062.005-.06.006-.062.007-.06.01-.06.007-.062.007-.06.007-.062.01-.06.007-.062.01-.06.01-.06.007-.062.01-.06.01-.062.01-.06.01-.06.008-.06.01-.062.012-.06.01-.06.01-.06.01-.062.013-.06.01-.06.012-.06.012-.06.012-.06.012-.06.012-.06.012-.06.012-.06.012-.06.014-.06.012-.06.015-.06.012-.06.013-.06.012-.06.014-.06.014-.058.014-.06.015-.06.014-.06.014-.058.018-.06.015-.058.014-.06.017-.06.014-.058.017-.06.017-.058.014-.06.017-.057.017-.06.017-.06.017-.058.016-.058.02-.06.016-.057.017-.06.02-.057.016-.058.018-.06.017-.057.02-.058.02-.058.018-.06.02-.057.018-.058.02-.058.02-.058.02-.058.02-.058.02-.057.02-.058.02-.058.022-.058.02-.057.02-.058.022-.058.022-.057.022-.057.02-.057.023-.056.022-.057.022-.057.024-.056.022-.057.024-.057.02-.056.025-.056.02-.057.025-.055.024-.056.023-.058.024-.056.024-.056.025-.056.024-.055.023-.057.026-.056.023-.056.027-.054.024-.056.026-.055.024-.055.026-.056.027-.055.026-.056.027-.055.026-.056.026-.055.027-.056.025-.054.03-.055.025-.055.03-.054.026-.055.028-.053.027-.054.03-.054.028-.055.03-.054.028-.053.03-.054.028-.054.03-.054.027-.054.03-.053.03-.055.03-.053.03-.053.03-.054.03-.053.033-.053.028-.053.033-.053.03-.053.032-.05.03-.054.032-.052.034-.053.032-.05.03-.053.033-.052.033-.052.03-.052.035-.05.034-.052.03-.052.034-.05.035-.053.034-.05.032-.052.034-.05.033-.05.033-.052.036-.05.033-.052.033-.05.036-.05.034-.052.036-.05.033-.05.036-.05.037-.05.036-.05.036-.05.035-.05.036-.05.037-.05.036-.048.04-.05.035-.05.036-.048.038-.05.036-.048.04-.05.035-.047.038-.05.04-.047.038-.05.038-.047.04-.05.037-.047.04-.048.037-.048.038-.048.04-.048.04-.048.038-.047.04-.048.04-.048.04-.047.04-.047.04-.047.04-.045.04-.047.042-.046.04-.047.04-.046.042-.047.043-.046.04-.046.042-.045.043-.046.04-.046.044-.046.04-.045.044-.045.043-.045.04-.045.043-.045.043-.045.044-.045.043-.044.043-.046.043-.044.045-.044.043-.044.043-.044.047-.044.043-.043.043-.043.046-.043.045-.043.043-.042.045-.043.046-.042.042-.043.046-.042.045-.042.046-.043.045-.04.045-.043.046-.042.045-.04.05-.043.045-.04.046-.042.046-.04.048-.04.046-.042.048-.04.045-.04.048-.04.047-.04.048-.04.048-.04.046-.038.047-.04.048-.04.048-.037.048-.04.05-.038.047-.038.048-.04.048-.038.048-.038.05-.038.05-.038.047-.037.048-.037.05-.037.05-.037.05-.038.047-.037.05-.037.048-.036.05-.036.05-.036.05-.036.05-.036.05-.036.048-.035.05-.036.05-.034.05-.035.052-.034.05-.035.053-.033.05-.034.05-.035.05-.034.05-.034.054-.033.05-.034.05-.033.054-.034.05-.033.054-.033.05-.032.053-.033.05-.033.054-.032.053-.032.05-.032.054-.032.052-.03.052-.033.053-.03.053-.03.05-.032.053-.03.056-.032.053-.03.052-.03.053-.03.052-.03.053-.03.055-.03.053-.03.053-.03.054-.028.055-.03.052-.028.055-.03.053-.027.055-.028.053-.03.055-.027.053-.027.055-.027.056-.027.056-.028.052-.027.056-.026.055-.027.055-.026.055-.026.055-.026.056-.026.055-.026.056-.026.055-.026.056-.025.056-.027.055-.025.055-.025.058-.025.055-.024.055-.025.055-.025.058-.024.055-.023.055-.024.058-.023.056-.024.058-.023.055-.023.057-.023.055-.023.057-.022.057-.023.055-.023.058-.022.057-.022.058-.022.055-.02.058-.02.057-.023.058-.02.058-.02.058-.022.058-.02.057-.02.056-.02.056-.02.058-.02.06-.02.057-.02.06-.02.057-.018.057-.02.058-.018.06-.02.058-.018.057-.018.058-.018.06-.018.057-.017.058-.017.06-.017.058-.017.06-.018.057-.017.06-.017.058-.016.06-.016.057-.016.06-.016.058-.016.06-.016.06-.015.058-.015.06-.015.06-.015.06-.014.057-.015.06-.014.06-.015.06-.014.06-.013.058-.013.06-.014.06-.013.06-.013.06-.013.06-.012.06-.012.06-.012.06-.012.06-.012.06-.012.06-.012.06-.01.06-.012.063-.01.06-.012.06-.01.06-.01.06-.01.06-.01.063-.01.06-.01.06-.01.06-.01.062-.01.06-.008.06-.01.063-.007.06-.01.063-.007.06-.008.06-.008.063-.008.06-.007.062-.008.06-.008.062-.006.06-.007.063-.006.06-.006.062-.006.06-.006.063-.006.06-.006.062-.005.062-.006.06-.005.063-.006.06-.005.062-.006.063-.004.06-.004.062-.004.062-.004.063-.003.06-.003.062-.004.062-.003.062-.002.06-.003.063-.002.062-.003.06-.002h.064l.06-.003h.062l.063-.003h.06l.063-.002h124.263zm-124.01 5h-.189l-.048.002h-.048l-.043.002h-.048l-.047.002h-.046l-.048.003-.046.002h-.048l-.046.003-.048.002-.045.003-.046.002-.045.003-.048.002-.043.003-.048.003-.045.003-.048.002-.045.004-.046.003-.044.003-.046.003-.048.004-.046.005-.045.004-.045.003-.045.005-.048.004-.046.005-.046.005-.045.005-.046.005-.046.006-.046.005-.046.006-.048.004-.045.006-.044.006-.046.006-.048.007-.046.005-.043.007-.048.007-.045.006-.044.006-.045.008-.047.007-.043.007-.046.008-.046.008-.045.007-.046.008-.045.008-.046.01-.046.007-.043.01-.046.007-.044.01-.043.008-.046.01-.048.01-.044.008-.043.01-.046.01-.046.01-.044.01-.043.008-.046.012-.046.01-.042.01-.045.01-.044.01-.046.012-.043.01-.045.012-.043.012-.048.01-.043.013-.043.012-.045.012-.043.012-.045.012-.045.012-.043.013-.046.012-.04.012-.045.013-.044.013-.044.013-.043.013-.044.013-.046.013-.044.014-.043.013-.043.014-.043.014-.045.015-.043.014-.043.014-.044.014-.044.014-.043.015-.044.015-.043.015-.043.015-.044.015-.043.016-.043.015-.043.016-.04.015-.044.015-.046.017-.04.016-.044.016-.043.016-.043.017-.043.017-.04.016-.044.017-.044.017-.04.017-.044.02-.043.016-.042.017-.043.018-.04.02-.044.017-.04.018-.043.02-.04.017-.044.018-.04.02-.042.017-.04.02-.043.018-.043.02-.04.02-.04.018-.042.02-.043.02-.042.02-.04.02-.042.02-.04.02-.04.02-.045.02-.037.02-.04.02-.042.022-.04.02-.04.02-.04.022-.042.02-.04.023-.04.022-.04.02-.04.023-.04.022-.042.022-.04.02-.04.023-.04.023-.04.022-.04.022-.04.024-.04.022-.04.023-.038.022-.04.023-.04.024-.04.023-.038.023-.04.024-.04.024-.038.024-.038.024-.04.024-.04.024-.038.024-.038.025-.04.024-.037.024-.038.025-.04.026-.036.024-.04.025-.037.025-.04.025-.038.026-.038.025-.036.027-.04.027-.037.026-.038.026-.038.027-.036.026-.038.025-.04.027-.035.027-.038.026-.036.027-.035.027-.04.028-.035.027-.038.027-.036.028-.036.028-.038.028-.036.028-.036.028-.036.03-.036.027-.04.028-.035.028-.036.03-.036.028-.035.03-.036.03-.037.027-.034.03-.037.03-.036.03-.036.03-.035.03-.036.03-.034.03-.034.03-.038.03-.034.03-.033.03-.036.03-.033.032-.036.03-.033.032-.036.032-.03.03-.036.03-.033.033-.033.03-.036.032-.033.032-.033.032-.034.032-.033.03-.034.034-.034.033-.034.032-.03.032-.037.032-.033.033-.033.033-.034.033-.03.034-.035.033-.033.034-.03.034-.033.033-.034.034-.03.034-.035.035-.03.033-.03.033-.033.034-.033.035-.032.034-.03.032-.032.035-.03.035-.03.033-.03.035-.032.036-.032.035-.03.036-.03.034-.03.035-.032.035-.03.036-.03.035-.03.036-.03.036-.03.035-.028.036-.028.035-.03.036-.03.037-.03.037-.028.035-.03.035-.028.037-.028.037-.027.036-.03.037-.027.037-.03.036-.026.037-.028.037-.027.037-.03.037-.026.037-.03.038-.025.036-.028.038-.028.038-.027.037-.026.037-.026.038-.026.037-.026.037-.027.037-.026.04-.028.037-.026.04-.024.036-.026.04-.024.036-.027.04-.026.038-.025.038-.027.038-.024.04-.026.038-.024.038-.024.038-.024.04-.024.04-.024.037-.024.04-.024.038-.024.04-.024.04-.024.038-.024.04-.024.04-.022.04-.024.037-.02.04-.025.042-.023.038-.024.04-.022.04-.023.04-.02.04-.023.04-.02.04-.023.04-.02.04-.022.042-.022.04-.02.04-.023.04-.022.04-.02.043-.02.04-.02.04-.023.042-.02.04-.018.04-.023.042-.02.04-.02.042-.02.04-.02.043-.018.04-.02.042-.022.042-.02.04-.016.042-.02.04-.018.043-.02.042-.02.04-.015.043-.02.042-.02.042-.017.042-.02.042-.016.042-.02.043-.016.042-.015.042-.017.043-.02.042-.016.042-.017.042-.017.044-.017.042-.013.042-.017.043-.017.044-.016.042-.015.043-.017.044-.016.042-.016.042-.017.043-.014.044-.014.043-.018.043-.015.044-.014.044-.014.043-.016.042-.014.043-.015.044-.014.044-.013.045-.015.042-.014.044-.012.045-.015.044-.01.043-.015.044-.015.044-.012.045-.012.044-.014.043-.012.044-.012.043-.012.045-.012.044-.012.042-.012.046-.012.044-.012.044-.012.044-.01.044-.012.045-.012.043-.01.045-.01.045-.01.044-.013.045-.01.044-.01.045-.01.046-.01.045-.01.046-.01.044-.01.045-.01.045-.01.045-.008.045-.008.046-.01.045-.01.046-.007.044-.01.046-.007.044-.01.045-.006.046-.01.047-.007.046-.007.045-.008.045-.007.045-.007.046-.007.046-.008.044-.008.046-.007.047-.007.045-.005.045-.007.045-.007.047-.004.044-.007.045-.006.046-.005.046-.008.045-.005.047-.005.045-.004.045-.005.046-.005.046-.005.047-.005.046-.004.045-.003.046-.004.046-.004.048-.003.046-.006.044-.002.048-.005.046-.002.046-.005.046-.002.046-.003.047-.002.045-.003.047-.002.046-.002.047-.003.047-.002.046v.048l-.002.046-.002.046v.046l-.002.047v.045l-.003.048v320.586l.004.048v.045l.002.048v.046l.002.043.003.048v.05l.015.275.003.048.004.046.005.09.005.047.002.048.005.044.002.045.01.092.002.046.01.093.004.048.005.044.02.184.006.046.01.092.006.046.005.044.015.092.005.046.007.044.007.048.008.046.007.044.013.092.007.044.008.046.007.044.007.046.01.046.007.046.008.044.008.046.01.046.006.044.01.044.01.046.007.044.008.048.02.088.01.046.01.042.018.092.012.044.01.046.01.044.01.044.01.044.013.046.01.044.012.044.012.046.01.044.012.044.012.042.024.092.012.042.048.176.014.044.012.046.012.042.03.088.01.044.016.044.012.044.014.044.015.042.057.176.03.084.028.088.017.044.013.042.014.044.017.042.015.042.032.088.015.042.016.042.034.088.014.042.035.084.017.044.017.042.015.04.02.044.033.084.02.042.016.044.02.04.016.042.02.044.02.04.015.044.02.04.038.084.017.04.038.084.022.042.02.042.018.04.04.084.02.04.02.042.02.04.02.04.022.042.02.042.02.04.02.04.02.042.023.04.022.042.02.038.02.04.024.044.02.038.023.04.02.042.023.038.02.04.025.042.023.04.024.038.022.04.023.04.02.04.025.04.022.038.048.08.024.038.024.04.024.038.024.042.048.076.024.04.024.038.026.04.022.038.026.036.024.04.027.04.024.038.052.076.024.038.052.076.024.038.16.228.052.072.028.04.053.072.03.038.025.038.03.036.026.036.057.076.027.034.028.038.03.036.026.034.028.038.032.038.026.034.058.072.03.038.03.034.057.072.03.034.03.036.03.036.06.072.03.032.03.038.03.034.063.068.028.036.063.068.03.036.094.102.033.036.032.032.092.102.067.068.03.032.032.034.033.034.034.032.03.032.067.068.032.032.035.034.03.032.17.16.035.034.03.03.035.032.036.032.034.032.036.032.03.03.037.03.034.032.035.03.036.03.037.032.067.06.072.06.036.032.07.058.035.032.07.058.036.028.036.03.037.03.07.058.072.056.038.03.033.028.04.028.072.056.036.026.038.03.036.028.036.026.038.03.04.026.035.026.037.028.038.028.036.026.04.026.038.028.036.026.077.052.037.026.04.028.037.026.038.024.115.078.04.024.035.026.04.026.077.048.038.026.038.022.038.026.04.024.04.024.038.026.038.022.04.024.04.024.038.024.082.05.036.02.04.023.082.047.04.022.04.02.038.023.038.024.043.022.04.02.04.023.08.044.04.02.122.066.04.02.04.022.082.04.04.022.246.12.043.02.042.02.038.018.087.04.04.018.04.02.044.018.042.02.04.02.044.017.044.02.038.016.043.02.044.018.04.017.047.02.042.016.04.018.04.017.088.036.043.016.043.017.043.016.04.016.043.015.043.018.044.016.04.013.046.018.04.015.087.032.043.014.087.033.045.014.04.016.13.042.046.016.04.015.047.014.044.013.043.012.087.028.045.014.043.012.04.013.048.012.045.014.045.01.043.015.04.012.05.012.13.035.044.012.044.012.046.01.046.01.043.013.043.01.09.024.045.01.09.02.042.01.045.01.048.012.046.01.04.007.046.01.048.01.04.008.05.01.045.01.045.008.046.01.043.008.046.01.043.007.046.008.048.01.043.006.043.01.046.007.048.008.045.008.046.006.044.007.046.006.048.008.045.007.043.006.046.008.046.007.048.006.043.006.044.005.048.006.046.007.046.004.045.007.047.006.043.004.046.006.046.004.048.004.043.007.096.008.042.004.048.003.046.004.043.004.047.003.045.004.05.004.044.003.046.004.048.002h.045l.046.005.092.004h.048l.046.003.048.002.045.002h.045l.096.004h.047l.043.003h.093l.048.002h248.31l.05-.002h.093l.046-.002h.09l.048-.003h.045l.046-.002.047-.002.046-.002h.048l.046-.003.046-.002.046-.004h.045l.048-.003.047-.004.045-.002.048-.003.046-.004.048-.002.043-.003.046-.004.048-.004.046-.005.046-.004.048-.003.043-.006.048-.003.047-.004.045-.006.044-.004.048-.006.045-.006.045-.003.045-.006.048-.005.046-.006.046-.007.045-.006.046-.006.044-.007.046-.006.045-.006.048-.007.046-.006.042-.008.046-.007.048-.008.045-.008.047-.008.043-.01.043-.005.048-.01.047-.008.043-.008.046-.01.043-.007.045-.01.048-.008.045-.01.043-.01.045-.008.048-.01.045-.01.04-.008.047-.01.048-.013.045-.01.04-.01.047-.01.045-.01.043-.01.046-.012.045-.012.043-.01.043-.012.047-.01.045-.01.043-.013.046-.012.044-.012.043-.012.044-.01.05-.013.04-.012.045-.014.043-.01.044-.013.048-.014.04-.014.04-.013.05-.014.042-.014.044-.013.043-.014.044-.014.044-.015.04-.014.046-.015.043-.014.043-.013.044-.014.04-.016.046-.014.043-.016.043-.016.044-.013.043-.016.043-.015.043-.014.042-.017.04-.014.044-.017.044-.018.043-.016.04-.017.044-.016.043-.018.043-.017.043-.018.044-.018.04-.016.04-.017.042-.016.046-.02.04-.016.044-.017.043-.02.038-.016.04-.018.047-.02.04-.02.04-.02.045-.017.04-.02.04-.018.044-.02.043-.02.038-.018.042-.02.043-.02.04-.02.042-.02.04-.02.044-.02.04-.02.04-.02.04-.022.04-.02.042-.02.043-.022.04-.022.04-.02.04-.02.04-.023.04-.02.04-.022.04-.022.042-.022.038-.02.04-.023.042-.024.04-.022.04-.02.038-.023.04-.024.044-.024.037-.023.036-.022.04-.025.042-.024.038-.024.04-.024.04-.024.038-.022.04-.026.038-.024.04-.024.04-.026.037-.022.04-.026.037-.024.038-.024.04-.026.04-.026.036-.024.038-.026.038-.026.04-.026.037-.024.035-.026.04-.028.037-.026.038-.026.04-.026.035-.026.038-.028.04-.026.035-.026.036-.028.038-.028.038-.026.036-.026.04-.03.035-.026.037-.028.038-.03.036-.026.037-.028.036-.028.036-.028.035-.028.04-.03.035-.028.036-.028.036-.03.036-.028.036-.03.033-.028.04-.03.035-.03.033-.03.036-.03.035-.028.036-.03.037-.03.034-.03.04-.032.03-.028.036-.032.04-.032.032-.03.034-.03.033-.032.036-.03.035-.032.034-.032.032-.03.034-.032.036-.032.03-.03.037-.032.033-.034.033-.032.034-.032.033-.032.034-.032.034-.032.032-.032.033-.034.034-.034.033-.034.03-.032.034-.032.034-.034.032-.034.034-.032.03-.034.035-.034.032-.034.034-.034.028-.034.032-.032.03-.034.034-.036.032-.036.028-.032.034-.036.03-.034.032-.034.032-.036.028-.034.032-.034.03-.036.03-.034.028-.034.032-.036.028-.036.032-.036.03-.036.03-.036.028-.036.03-.034.028-.034.03-.038.03-.036.03-.036.028-.036.028-.036.03-.038.026-.034.028-.036.03-.038.028-.036.026-.036.03-.036.026-.038.028-.038.027-.036.028-.038.026-.036.026-.036.03-.04.026-.036.026-.038.026-.036.027-.036.026-.04.028-.038.026-.038.026-.038.025-.036.026-.04.027-.038.024-.038.028-.038.026-.038.024-.04.027-.038.024-.038.025-.038.022-.038.026-.04.024-.04.024-.038.025-.038.024-.038.023-.042.026-.04.02-.038.025-.038.024-.04.023-.04.022-.04.024-.038.02-.04.024-.04.022-.04.024-.038.02-.042.023-.038.024-.04.022-.042.023-.042.02-.038.02-.038.022-.042.022-.042.02-.04.023-.04.02-.042.023-.04.02-.04.02-.04.02-.04.022-.044.02-.04.02-.04.022-.042.02-.04.018-.042.02-.042.02-.04.02-.042.02-.042.016-.04.023-.044.02-.04.016-.042.018-.042.02-.04.016-.042.02-.042.02-.044.015-.042.02-.042.015-.042.017-.04.02-.044.016-.042.02-.044.016-.04.017-.042.018-.044.017-.042.016-.042.016-.042.02-.046.013-.042.016-.04.017-.046.015-.042.016-.044.015-.042.016-.042.014-.044.014-.042.017-.044.016-.044.014-.044.014-.042.015-.042.013-.044.015-.044.014-.046.014-.04.015-.044.015-.044.012-.044.015-.044.014-.044.012-.044.014-.044.012-.042.012-.046.015-.044.013-.042.012-.046.012-.044.012-.042.01-.044.013-.048.012-.044.012-.042.01-.042.01-.046.013-.046.012-.046.012-.044.01-.042.01-.046.012-.044.01-.044.01-.046.01-.046.01-.042.01-.046.01-.046.01-.044.01-.044.008-.044.01-.048.007-.044.01-.046.01-.044.008-.044.01-.046.01-.046.006-.044.007-.046.01-.046.008-.046.007-.046.007-.044.008-.044.007-.046.01-.048.004-.044.008-.044.008-.046.007-.046.007-.046.005-.046.007-.046.005-.046.007-.044.005-.046.004-.044.007-.048.006-.046.004-.044.005-.048.005-.046.005-.044.005-.048.004-.047.005-.047.002-.044.004-.05.005-.045.004-.046.004-.047.003-.048.006-.044.002-.045.002-.046.005-.05.003-.045.002-.044.002-.047.003-.046.002-.046.003-.045.002-.046v-.05l.002-.045.003-.048v-.044l.002-.046v-.048l.002-.05v-.182l.002-.048V199.054h-67.01l-.973-.096-.938-.285-.864-.462-.76-.622-.62-.758-.463-.864-.284-.938-.095-.976V139.05h-67.01l-.973-.097-.94-.284-.863-.463-.76-.622-.62-.758-.464-.864-.283-.94-.096-.974V79.043H106.495z" fill="#EF5050"/><path d="M374.524 188.054v196.018c0 5.304-2.108 10.39-5.86 14.142-3.75 3.75-8.837 5.86-14.142 5.86h-248.03c-5.306 0-10.392-2.11-14.144-5.86-3.752-3.752-5.86-8.838-5.86-14.142V64.042c0-5.304 2.108-10.39 5.86-14.142 3.752-3.75 8.838-5.86 14.143-5.86h124.016v72.007h72.01V44.04v144.014h72.008z" fill="#F55"/><path d="M106.006 404.073c-.478.136-13.92-.272-14.438 11.722-2.13 12.167 8.214 18.14 12.923 17.99-13.14-1.543-18.095-13.348-18-18.952-.015-5.314.05-350.816.05-350.816-.478-10.473 8.787-19.717 19.432-19.952l.034 360.008z" fill="#EF5050"/><path d="M176.985 418.04v44.722h-43.42v-44.72h43.42zm0 44.722s-11.7-6.884-17.92-10.546c-2.34-1.378-5.24-1.378-7.58 0-6.22 3.662-17.92 10.546-17.92 10.546h43.42z" fill="#929292"/><path d="M339.586 277.196c0-12.77-10.37-23.14-23.14-23.14H167.64c-12.77 0-23.14 10.37-23.14 23.14v69.415c0 12.772 10.37 23.14 23.14 23.14h148.806c12.77 0 23.14-10.368 23.14-23.14v-69.414z" fill="#C04040"/><g fill="#37D3E2"><path d="M254.51 20.28h72.008v72.005h-72.01z"/></g><g fill="#83BF4F"><path d="M327.238 93.617h72.01v72.006h-72.01z"/></g><g fill="#FFB530"><path d="M416.77 26.12c0-11.047-8.957-20.002-20.003-20.002H344.76v72.006h72.01V26.12z"/></g><g fill="#A6A6A6"><path d="M124.375 418.042s26.33-1.39 61.227 0c-22.973 1.58-61.227 0-61.227 0z"/></g><g fill="#000" fill-opacity=".059"><path d="M86.804 44.035h14.357v360.03H86.805z"/></g></g></svg>