<?xml version="1.0" encoding="UTF-8" standalone="no"?>
<svg width="815px" height="141px" viewBox="0 0 815 141" version="1.1" xmlns="http://www.w3.org/2000/svg" xmlns:xlink="http://www.w3.org/1999/xlink">
    <!-- Generator: Sketch 46 (44423) - http://www.bohemiancoding.com/sketch -->
    <title>course-bar-todo</title>
    <desc>Created with Sketch.</desc>
    <defs>
        <rect id="path-1" x="0" y="0" width="815" height="58"></rect>
        <filter x="-0.2%" y="-2.6%" width="100.4%" height="105.2%" filterUnits="objectBoundingBox" id="filter-2">
            <feGaussianBlur stdDeviation="1" in="SourceAlpha" result="shadowBlurInner1"></feGaussianBlur>
            <feOffset dx="1" dy="0" in="shadowBlurInner1" result="shadowOffsetInner1"></feOffset>
            <feComposite in="shadowOffsetInner1" in2="SourceAlpha" operator="arithmetic" k2="-1" k3="1" result="shadowInnerInner1"></feComposite>
            <feColorMatrix values="0 0 0 0 0   0 0 0 0 0   0 0 0 0 0  0 0 0 0.5 0" type="matrix" in="shadowInnerInner1"></feColorMatrix>
        </filter>
        <polygon id="path-3" points="0 0 200 0 200 6 0 6"></polygon>
        <filter x="-0.8%" y="-25.0%" width="101.5%" height="150.0%" filterUnits="objectBoundingBox" id="filter-5">
            <feGaussianBlur stdDeviation="1" in="SourceAlpha" result="shadowBlurInner1"></feGaussianBlur>
            <feOffset dx="0" dy="1" in="shadowBlurInner1" result="shadowOffsetInner1"></feOffset>
            <feComposite in="shadowOffsetInner1" in2="SourceAlpha" operator="arithmetic" k2="-1" k3="1" result="shadowInnerInner1"></feComposite>
            <feColorMatrix values="0 0 0 0 0.525775935   0 0 0 0 0.525775935   0 0 0 0 0.525775935  0 0 0 0.5 0" type="matrix" in="shadowInnerInner1"></feColorMatrix>
        </filter>
        <rect id="path-6" x="0" y="16" width="214" height="71" rx="4"></rect>
        <linearGradient x1="50%" y1="0%" x2="50%" y2="100%" id="linearGradient-7">
            <stop stop-color="#F5515F" offset="0%"></stop>
            <stop stop-color="#9F041B" offset="100%"></stop>
        </linearGradient>
        <circle id="path-8" cx="107" cy="12" r="12"></circle>
    </defs>
    <g id="Page-1" stroke="none" stroke-width="1" fill="none" fill-rule="evenodd">
        <g id="course-bar-todo">
            <g id="course-progress-area">
                <g id="Rectangle-302" opacity="0.900000036">
                    <use fill="#2C2A2A" fill-rule="evenodd" xlink:href="#path-1"></use>
                    <use fill="black" fill-opacity="1" filter="url(#filter-2)" xlink:href="#path-1"></use>
                </g>
                <g id="progress-bar" transform="translate(561.000000, 12.000000)">
                    <g id="Group-2" transform="translate(1.000000, 21.000000)">
                        <mask id="mask-4" fill="white">
                            <use xlink:href="#path-3"></use>
                        </mask>
                        <g id="Rectangle-22" opacity="0.132579291">
                            <use fill="#FFFFFF" fill-rule="evenodd" xlink:href="#path-3"></use>
                            <use fill="black" fill-opacity="1" filter="url(#filter-5)" xlink:href="#path-3"></use>
                        </g>
                        <polygon id="Rectangle-22-Copy" fill="#65CBDC" mask="url(#mask-4)" points="0 0 135 0 135 6 0 6"></polygon>
                    </g>
                    <text id="4/5-complete" font-family="Helvetica-Light, Helvetica" font-size="13" font-weight="300" line-spacing="16.9999993" fill="#FFFFFF">
                        <tspan x="0.920348059" y="13.46">4/5 complete</tspan>
                    </text>
                    <rect id="Rectangle" stroke="#A0A0A0" fill="#6F6F6F" x="193" y="7" width="45" height="30" rx="15"></rect>
                    <text id="67%" font-family="Helvetica" font-size="14" font-weight="normal" fill="#FFFFFF">
                        <tspan x="204" y="27">67</tspan>
                        <tspan x="219.572266" y="27" font-size="9">%</tspan>
                    </text>
                </g>
                <g id="next-item" transform="translate(13.000000, 11.000000)">
                    <text id="Resume-course?" opacity="0.699999988" font-family="Helvetica" font-size="12" font-weight="normal" fill="#FFFFFF">
                        <tspan x="44.1111111" y="11">Resume course?</tspan>
                    </text>
                    <g id="gr" transform="translate(0.759759, 0.000000)">
                        <circle id="Oval-207" stroke="#515151" cx="17.5" cy="17.5" r="17.5"></circle>
                        <polygon id="play_arrow---material" fill="#D9D9D9" points="13.2402415 10 25.2402415 18 13.2402415 25"></polygon>
                    </g>
                    <text id="Lean-Analytics:-Intr" font-family="Helvetica-Bold, Helvetica" font-size="14" font-weight="bold" text-decoration="underline" fill="#CFCFCF">
                        <tspan x="44.1111111" y="30">Lean Analytics: Introduction</tspan>
                    </text>
                </g>
                <g id="to-do-item" transform="translate(342.000000, 11.000000)">
                    <text id="Upcoming-To-Do" opacity="0.699999988" font-family="Helvetica" font-size="12" font-weight="normal" fill="#FFFFFF">
                        <tspan x="39" y="11">Upcoming To-Do</tspan>
                    </text>
                    <text id="Due-in-3-days" font-family="Helvetica" font-size="14" font-weight="normal" text-decoration="underline" fill="#CFCFCF">
                        <tspan x="40" y="32">Due in 3 days</tspan>
                    </text>
                    <path d="M16.268,10 L16.268,18.0052219 L23,22.0626632 L21.884,24 L14,19.1383812 L14,10 L16.268,10 Z M15,30 C17.1556994,30 19.1676553,29.4491073 21.0359281,28.3473054 C22.8562965,27.2934079 24.2934079,25.8562965 25.3473054,24.0359281 C26.4491073,22.1676553 27,20.1556994 27,18 C27,15.8443006 26.4491073,13.8323447 25.3473054,11.9640719 C24.2934079,10.1437035 22.8562965,8.7065921 21.0359281,7.65269461 C19.1676553,6.55089269 17.1556994,6 15,6 C12.8443006,6 10.8323447,6.55089269 8.96407186,7.65269461 C7.14370347,8.7065921 5.7065921,10.1437035 4.65269461,11.9640719 C3.55089269,13.8323447 3,15.8443006 3,18 C3,20.1556994 3.55089269,22.1676553 4.65269461,24.0359281 C5.7065921,25.8562965 7.14370347,27.2934079 8.96407186,28.3473054 C10.8323447,29.4491073 12.8443006,30 15,30 Z M15,3 C17.7403983,3 20.2764306,3.6850893 22.6081731,5.05528846 C24.8677998,6.35337188 26.6466281,8.13220024 27.9447115,10.3918269 C29.3149107,12.7235694 30,15.2596017 30,18 C30,20.7403983 29.3149107,23.2764306 27.9447115,25.6081731 C26.6466281,27.8677998 24.8677998,29.6466281 22.6081731,30.9447115 C20.2764306,32.3149107 17.7403983,33 15,33 C12.2596017,33 9.72356935,32.3149107 7.39182692,30.9447115 C5.13220024,29.6225895 3.35337187,27.8317421 2.05528846,25.5721154 C0.685089303,23.240373 4.44800891e-16,20.7163597 0,18 C4.44800891e-16,15.2836403 0.685089303,12.759627 2.05528846,10.4278846 C3.37741046,8.16825793 5.16825793,6.37741046 7.42788462,5.05528846 C9.75962704,3.6850893 12.2836403,3 15,3 Z" id="access_time---material" fill="#717171"></path>
                </g>
            </g>
            <g id="expl-block2" transform="translate(324.000000, 54.000000)">
                <g id="Rectangle-3">
                    <use fill="#FFDEEB" fill-rule="evenodd" xlink:href="#path-6"></use>
                    <rect stroke="#FF8787" stroke-width="1" x="0.5" y="16.5" width="213" height="70" rx="4"></rect>
                </g>
                <text id="Notifies-about-an-up" font-family="SFUIText-Regular, SF UI Text" font-size="18" font-weight="normal" fill="#000000">
                    <tspan x="15" y="48">Notifies about an</tspan>
                    <tspan x="15" y="69">upcoming deadline.</tspan>
                </text>
                <g id="Oval">
                    <use fill="url(#linearGradient-7)" fill-rule="evenodd" xlink:href="#path-8"></use>
                    <circle stroke="#F03E3E" stroke-width="1.25" cx="107" cy="12" r="11.375"></circle>
                </g>
            </g>
        </g>
    </g>
</svg>