<svg width="298" height="166" viewBox="0 0 298 166" xmlns="http://www.w3.org/2000/svg"><title>pdf-ppt</title><g fill-rule="nonzero" fill="none"><g fill="#11B24C"><path d="M48.28 106.08h-4.827v7.898h4.828c1.376 0 2.43-.384 3.135-1.12.703-.734 1.055-1.662 1.055-2.812s-.352-2.078-1.055-2.846c-.704-.735-1.727-1.12-3.134-1.12z"/><path d="M104.108 92.4H.096v42.805H88.44L104.11 92.4zm-71.015 22.697c-1.407 1.278-3.325 1.886-5.787 1.886h-4.828v8.472h-3.74v-22.38h8.568c2.462 0 4.412.64 5.787 1.92 1.407 1.278 2.11 2.94 2.11 5.02 0 2.11-.703 3.803-2.11 5.082zm21.007 0c-1.406 1.278-3.325 1.886-5.787 1.886h-4.828v8.472h-3.74v-22.38h8.536c2.463 0 4.414.64 5.788 1.92 1.407 1.278 2.11 2.94 2.11 5.02 0 2.11-.703 3.803-2.078 5.082zm22.223-9.016h-6.907v19.375h-3.74V106.08h-6.81v-3.004h17.457v3.005z"/><path d="M27.306 106.08h-4.828v7.898h4.828c1.375 0 2.43-.384 3.133-1.12.703-.734 1.055-1.662 1.055-2.812s-.352-2.078-1.056-2.846c-.704-.735-1.76-1.12-3.134-1.12z"/><path d="M100.047 2.918H21.55c-2.333 0-4.252 1.918-4.252 4.252v82.096h8.505V11.422h74.244v29.475h29.48v113.36H25.804v-15.92h-8.505v20.173c0 2.334 1.92 4.252 4.253 4.252h112.23c2.334 0 4.253-1.918 4.253-4.252V40.897l-37.986-37.98z"/><path d="M37.154 55.794h81.023v6.266H37.154zM37.154 67.975h68.2v6.266h-68.2z"/></g><path d="M275.455 13.32v139.36c0 6.77-5.5 12.306-12.326 12.306H173.13c-6.78 0-12.326-5.49-12.326-12.307V40.862l39.912-39.85h62.365c6.873 0 12.372 5.49 12.372 12.308z" stroke="#979797" stroke-width=".5" fill="#FFECCD"/><path d="M160.852 40.863l39.912-39.85V28.65c0 6.77-5.5 12.26-12.28 12.26H160.85v-.045zM275.455 107.294v41.77H198.84l-25.845-6.862h-12.143v-28.046h12.143v-.045l25.844-6.816" fill="#E1BF87"/><path d="M287.78 144.123h-88.94v-41.77h88.94c5.454 0 9.9 4.438 9.9 9.882v22.006c0 5.446-4.4 9.883-9.9 9.883z" fill="#E95935"/><path fill="#E94921" d="M198.84 144.123l-25.845-6.862v-28.09l25.844-6.817"/><path fill="#E95935" d="M154.437 109.215h18.558v28.09h-18.558z"/><path fill="#C43E1C" d="M154.437 109.215l6.415-3.843v3.843M154.437 137.26l6.415 3.844v-3.843"/><g fill="#FFF"><path d="M216.802 137.124v-26.72h8.752c1.054 0 2.016.047 2.84.092.826.046 1.56.183 2.2.32.642.184 1.238.367 1.742.64.504.276 1.008.55 1.466.962 1.008.823 1.787 1.876 2.337 3.065.55 1.236.824 2.562.824 4.026 0 1.372-.275 2.653-.78 3.888-.503 1.235-1.19 2.242-2.06 3.066-.918.87-1.972 1.464-3.163 1.784-1.19.366-2.748.503-4.673.503h-2.933v8.374h-6.552zm6.552-14.366h2.75c2.84 0 4.26-1.053 4.26-3.157 0-1.143-.365-1.92-1.053-2.424-.686-.503-1.877-.732-3.48-.732h-2.476v6.314zM239.988 137.124v-26.72h8.98c1.01 0 1.926.047 2.705.092.78.046 1.512.183 2.154.32.64.138 1.283.367 1.833.595.595.276 1.145.55 1.695.916 1.237.778 2.337 1.785 3.253 3.066 1.65 2.287 2.43 5.032 2.43 8.235 0 2.013-.322 3.89-.917 5.536-.595 1.647-1.466 3.065-2.565 4.255-1.1 1.19-2.43 2.104-3.987 2.745-1.558.64-3.3.96-5.178.96h-10.402zm6.828-5.994h2.932c2.154 0 3.758-.64 4.858-1.876 1.1-1.235 1.65-3.02 1.65-5.398 0-2.425-.55-4.255-1.696-5.536-1.146-1.28-2.75-1.922-4.812-1.922h-2.978v14.732h.046zM266.565 137.124v-26.72h14.618v5.994h-8.065v4.53h7.79v5.993h-7.79v10.158h-6.553"/></g></g></svg>