<svg xmlns="http://www.w3.org/2000/svg" xmlns:xlink="http://www.w3.org/1999/xlink" width="187" height="52" viewBox="0 0 187 52"><defs><linearGradient id="a" x1="50%" x2="50%" y1="0%" y2="100%"><stop offset="0%" stop-color="#FFF"/><stop offset="100%" stop-color="#F1F1F1"/></linearGradient><circle id="b" cx="13" cy="13" r="13"/></defs><g fill="none" fill-rule="evenodd"><path fill="url(#a)" stroke="#C1C1C1" d="M0 0h185v50H0z" transform="translate(1 1)"/><path fill="#4A4A4A" d="M50.46 20H55c.693 0 1.3.1 1.82.3.52.2.957.473 1.31.82.353.347.62.753.8 1.22.18.467.27.973.27 1.52 0 .507-.077.953-.23 1.34-.153.387-.35.727-.59 1.02-.24.293-.507.537-.8.73-.293.193-.58.35-.86.47l3.18 5.18h-2.78l-2.62-4.74h-1.66v4.74h-2.38V20zm2.38 5.96h1.22c.76 0 1.387-.157 1.88-.47.493-.313.74-.837.74-1.57 0-.667-.197-1.173-.59-1.52-.393-.347-.97-.52-1.73-.52h-1.52v4.08zm16.807 2.42h-6.46v.08c0 .867.27 1.513.81 1.94.54.427 1.25.64 2.13.64.52 0 .983-.047 1.39-.14.406-.093.796-.22 1.17-.38l.46 1.66c-.387.173-.847.32-1.38.44-.534.12-1.154.18-1.86.18-.707 0-1.37-.093-1.99-.28-.62-.187-1.164-.48-1.63-.88-.467-.4-.837-.907-1.11-1.52-.274-.613-.41-1.347-.41-2.2 0-.747.113-1.427.34-2.04.226-.613.546-1.14.96-1.58.413-.44.913-.78 1.5-1.02.586-.24 1.233-.36 1.94-.36 1.266 0 2.273.387 3.02 1.16.746.773 1.12 1.847 1.12 3.22v1.08zm-2.42-1.64c0-.28-.034-.55-.1-.81-.067-.26-.174-.49-.32-.69-.147-.2-.337-.357-.57-.47-.234-.113-.51-.17-.83-.17-.6 0-1.094.2-1.48.6-.387.4-.62.927-.7 1.58l4-.04zm10.566 5.86v-7.78h-3.48v7.78h-2.34v-7.78h-1.42V23.1h1.42v-.94c0-1.213.36-2.16 1.08-2.84.72-.68 1.68-1.02 2.88-1.02.467 0 .95.06 1.45.18s.924.273 1.27.46l-.46 1.56c-.253-.107-.523-.193-.81-.26-.286-.067-.57-.1-.85-.1-.733 0-1.286.173-1.66.52-.373.347-.56.94-.56 1.78v.66h5.84v9.5h-2.36zm7.127 0h-2.36v-9.5h1.84l.3 1.26c.453-.453.94-.807 1.46-1.06s1.1-.38 1.74-.38c1.027 0 1.82.283 2.38.85.56.567.84 1.37.84 2.41v6.42h-2.36v-6.14c0-.507-.13-.917-.39-1.23-.26-.313-.65-.47-1.17-.47-.387 0-.78.103-1.18.31-.4.207-.767.483-1.1.83v6.7zm16.907-4.22h-6.46v.08c0 .867.27 1.513.81 1.94.54.427 1.25.64 2.13.64.52 0 .983-.047 1.39-.14.406-.093.796-.22 1.17-.38l.46 1.66c-.387.173-.847.32-1.38.44-.534.12-1.154.18-1.86.18-.707 0-1.37-.093-1.99-.28-.62-.187-1.164-.48-1.63-.88-.467-.4-.837-.907-1.11-1.52-.274-.613-.41-1.347-.41-2.2 0-.747.113-1.427.34-2.04.226-.613.546-1.14.96-1.58.413-.44.913-.78 1.5-1.02.586-.24 1.233-.36 1.94-.36 1.266 0 2.273.387 3.02 1.16.746.773 1.12 1.847 1.12 3.22v1.08zm-2.42-1.64c0-.28-.034-.55-.1-.81-.067-.26-.174-.49-.32-.69-.147-.2-.337-.357-.57-.47-.234-.113-.51-.17-.83-.17-.6 0-1.094.2-1.48.6-.387.4-.62.927-.7 1.58l4-.04zm6.606 5.86h-2.36v-9.5h1.82l.3 1.26c.44-.44.914-.79 1.42-1.05.507-.26 1.094-.39 1.76-.39.667 0 1.227.13 1.68.39.454.26.794.63 1.02 1.11.454-.467.954-.833 1.5-1.1.547-.267 1.147-.4 1.8-.4 1 0 1.76.273 2.28.82.52.547.78 1.327.78 2.34v6.52h-2.36v-6.2c0-.507-.12-.907-.36-1.2-.24-.293-.606-.44-1.1-.44-.386 0-.773.093-1.16.28-.386.187-.733.453-1.04.8.014.093.02.177.02.25v6.51h-2.36v-6.2c0-.507-.12-.907-.36-1.2-.24-.293-.606-.44-1.1-.44-.386 0-.77.103-1.15.31-.38.207-.723.49-1.03.85v6.68zm22.707-4.22h-6.46v.08c0 .867.27 1.513.81 1.94.54.427 1.25.64 2.13.64.52 0 .983-.047 1.39-.14.407-.093.797-.22 1.17-.38l.46 1.66c-.387.173-.847.32-1.38.44-.533.12-1.153.18-1.86.18-.707 0-1.37-.093-1.99-.28-.62-.187-1.163-.48-1.63-.88-.467-.4-.837-.907-1.11-1.52-.273-.613-.41-1.347-.41-2.2 0-.747.113-1.427.34-2.04.227-.613.547-1.14.96-1.58.413-.44.913-.78 1.5-1.02s1.233-.36 1.94-.36c1.267 0 2.273.387 3.02 1.16.747.773 1.12 1.847 1.12 3.22v1.08zm-2.42-1.64c0-.28-.033-.55-.1-.81s-.173-.49-.32-.69c-.147-.2-.337-.357-.57-.47-.233-.113-.51-.17-.83-.17-.6 0-1.093.2-1.48.6-.387.4-.62.927-.7 1.58l4-.04zm6.607 5.86h-2.36v-9.5h1.84l.3 1.26c.453-.453.94-.807 1.46-1.06s1.1-.38 1.74-.38c1.026 0 1.82.283 2.38.85.56.567.84 1.37.84 2.41v6.42h-2.36v-6.14c0-.507-.13-.917-.39-1.23-.26-.313-.65-.47-1.17-.47-.387 0-.78.103-1.18.31-.4.207-.767.483-1.1.83v6.7zm13.926-7.78h-2.62v4.76c0 .453.11.763.33.93.22.167.504.25.85.25.267 0 .547-.027.84-.08.294-.053.54-.127.74-.22l.36 1.68c-.253.107-.596.21-1.03.31-.433.1-.896.15-1.39.15-1.08 0-1.856-.22-2.33-.66-.473-.44-.71-1.1-.71-1.98v-5.14h-1.44V23.1h1.44v-2.96h2.34v2.96h2.62v1.72z"/><g transform="translate(17 12.8)"><use fill="#E9ECEF" xlink:href="#b"/><circle cx="13" cy="13" r="12.5" stroke="#CED4DA"/></g><path fill="#D9480F" d="M28.647 26.415h1.31c1.188 0 1.913.57 1.913 1.494 0 .9-.77 1.523-1.875 1.523-1.135 0-1.89-.564-1.955-1.458h-2.117c.095 1.992 1.692 3.296 4.05 3.296 2.41 0 4.153-1.34 4.153-3.192 0-1.392-.908-2.36-2.358-2.52v-.132c1.18-.24 1.948-1.194 1.948-2.417 0-1.663-1.56-2.85-3.728-2.85-2.307 0-3.794 1.26-3.867 3.26h2.044c.06-.916.74-1.495 1.765-1.495 1.032 0 1.69.542 1.69 1.392 0 .864-.68 1.45-1.683 1.45h-1.29v1.648z"/></g></svg>