<?xml version="1.0" encoding="UTF-8" standalone="no"?>
<svg width="186px" height="52px" viewBox="0 0 186 52" version="1.1" xmlns="http://www.w3.org/2000/svg" xmlns:xlink="http://www.w3.org/1999/xlink">
    <!-- Generator: Sketch 46.2 (44496) - http://www.bohemiancoding.com/sketch -->
    <title>thumb-2</title>
    <desc>Created with Sketch.</desc>
    <defs>
        <linearGradient x1="50%" y1="0%" x2="50%" y2="100%" id="linearGradient-1">
            <stop stop-color="#FFFFFF" offset="0%"></stop>
            <stop stop-color="#F1F1F1" offset="100%"></stop>
        </linearGradient>
        <circle id="path-2" cx="13" cy="13" r="13"></circle>
    </defs>
    <g id="2.-AktivLearn" stroke="none" stroke-width="1" fill="none" fill-rule="evenodd">
        <g id="thumb-2" transform="translate(1.000000, 1.000000)">
            <polygon id="Rectangle-8" stroke="#C1C1C1" fill="url(#linearGradient-1)" points="0 5.68434189e-14 184.340211 5.68434189e-14 184.340211 50 0.334835034 50"></polygon>
            <g id="Group-6" transform="translate(15.913978, 11.000000)">
                <text id="User-Testing" font-family="MuktaMalar-SemiBold, Mukta Malar" font-size="20" font-weight="500" letter-spacing="-0.13333334" fill="#4A4A4A">
                    <tspan x="30.8387097" y="19.6000004">User Testing</tspan>
                </text>
                <g id="num" transform="translate(0.000000, 0.800000)">
                    <g id="Oval-5">
                        <use fill="#E9ECEF" fill-rule="evenodd" xlink:href="#path-2"></use>
                        <circle stroke="#CED4DA" stroke-width="1" cx="13" cy="13" r="12.5"></circle>
                    </g>
                </g>
            </g>
            <path d="M25.8104156,22.5952148 L25.8104156,22.6318359 L27.8611969,22.6318359 L27.8611969,22.5878906 C27.8611969,21.6137695 28.5643219,20.9399414 29.5897125,20.9399414 C30.5565094,20.9399414 31.2449859,21.5405273 31.2449859,22.3901367 C31.2449859,23.0786133 30.8714508,23.6279297 29.3846344,25.078125 L25.9349273,28.4545898 L25.9349273,30 L33.5594391,30 L33.5594391,28.1616211 L28.9305328,28.1616211 L28.9305328,28.0297852 L30.9520172,26.1035156 C32.7830719,24.3823242 33.4056305,23.3935547 33.4056305,22.2436523 C33.4056305,20.4272461 31.8675445,19.1601562 29.6629547,19.1601562 C27.3777984,19.1601562 25.8104156,20.5517578 25.8104156,22.5952148 Z" id="2" fill="#D9480F"></path>
        </g>
    </g>
</svg>