<svg xmlns="http://www.w3.org/2000/svg" xmlns:xlink="http://www.w3.org/1999/xlink" width="186" height="52" viewBox="0 0 186 52"><defs><linearGradient id="a" x1="50%" x2="50%" y1="0%" y2="100%"><stop offset="0%" stop-color="#FFF"/><stop offset="100%" stop-color="#F1F1F1"/></linearGradient><circle id="b" cx="13" cy="13" r="13"/></defs><g fill="none" fill-rule="evenodd"><path fill="url(#a)" stroke="#C1C1C1" d="M0 0h184.34v50H.335z" transform="translate(1 1)"/><path fill="#4A4A4A" d="M49.133 19h2.44v7.54c0 1.16.216 2.01.65 2.55.433.54 1.13.81 2.09.81.946 0 1.633-.29 2.06-.87.426-.58.64-1.33.64-2.25V19h2.44v7.62c0 1.747-.44 3.047-1.32 3.9-.88.853-2.154 1.28-3.82 1.28-.814 0-1.54-.103-2.18-.31-.64-.207-1.184-.527-1.63-.96-.447-.433-.787-.983-1.02-1.65-.234-.667-.35-1.453-.35-2.36V19zm18.426 5.22c-.787-.373-1.554-.56-2.3-.56-.494 0-.87.087-1.13.26-.26.173-.39.413-.39.72 0 .253.106.47.32.65.213.18.64.363 1.28.55l.6.18c.853.253 1.496.6 1.93 1.04.433.44.65 1.02.65 1.74 0 .92-.347 1.65-1.04 2.19-.694.54-1.64.81-2.84.81-1.294 0-2.367-.213-3.22-.64l.52-1.76c.386.187.796.34 1.23.46.433.12.883.18 1.35.18 1.106 0 1.66-.353 1.66-1.06 0-.32-.13-.557-.39-.71-.26-.153-.704-.33-1.33-.53l-.62-.2c-.827-.267-1.437-.617-1.83-1.05-.394-.433-.59-1.003-.59-1.71 0-.413.086-.797.26-1.15.173-.353.416-.657.73-.91.313-.253.693-.45 1.14-.59.446-.14.943-.21 1.49-.21.546 0 1.076.05 1.59.15.513.1.99.25 1.43.45l-.5 1.7zm10.986 3.16h-6.46v.08c0 .867.27 1.513.81 1.94.54.427 1.25.64 2.13.64.52 0 .983-.047 1.39-.14.407-.093.797-.22 1.17-.38l.46 1.66c-.387.173-.847.32-1.38.44-.533.12-1.153.18-1.86.18-.707 0-1.37-.093-1.99-.28-.62-.187-1.163-.48-1.63-.88-.467-.4-.837-.907-1.11-1.52-.273-.613-.41-1.347-.41-2.2 0-.747.113-1.427.34-2.04.227-.613.547-1.14.96-1.58.413-.44.913-.78 1.5-1.02s1.233-.36 1.94-.36c1.267 0 2.273.387 3.02 1.16.747.773 1.12 1.847 1.12 3.22v1.08zm-2.42-1.64c0-.28-.033-.55-.1-.81s-.173-.49-.32-.69c-.147-.2-.337-.357-.57-.47-.233-.113-.51-.17-.83-.17-.6 0-1.093.2-1.48.6-.387.4-.62.927-.7 1.58l4-.04zm4.227 5.86v-9.5h1.82l.3 1.78c.226-.547.586-1.01 1.08-1.39.493-.38 1.106-.57 1.84-.57.32 0 .6.033.84.1s.44.14.6.22l-.4 1.92c-.147-.08-.327-.15-.54-.21-.214-.06-.474-.09-.78-.09-.68 0-1.254.233-1.72.7-.467.467-.7 1.207-.7 2.22v4.82h-2.34zM102.166 19v1.96h-3.7V31.6h-2.44V20.96h-3.6V19h9.74zm8.427 8.38h-6.46v.08c0 .867.27 1.513.81 1.94.54.427 1.25.64 2.13.64.52 0 .983-.047 1.39-.14.406-.093.796-.22 1.17-.38l.46 1.66c-.387.173-.847.32-1.38.44-.534.12-1.154.18-1.86.18-.707 0-1.37-.093-1.99-.28-.62-.187-1.164-.48-1.63-.88-.467-.4-.837-.907-1.11-1.52-.274-.613-.41-1.347-.41-2.2 0-.747.113-1.427.34-2.04.226-.613.546-1.14.96-1.58.413-.44.913-.78 1.5-1.02.586-.24 1.233-.36 1.94-.36 1.266 0 2.273.387 3.02 1.16.746.773 1.12 1.847 1.12 3.22v1.08zm-2.42-1.64c0-.28-.034-.55-.1-.81-.067-.26-.174-.49-.32-.69-.147-.2-.337-.357-.57-.47-.234-.113-.51-.17-.83-.17-.6 0-1.094.2-1.48.6-.387.4-.62.927-.7 1.58l4-.04zm9.846-1.52c-.787-.373-1.554-.56-2.3-.56-.494 0-.87.087-1.13.26-.26.173-.39.413-.39.72 0 .253.106.47.32.65.213.18.64.363 1.28.55l.6.18c.853.253 1.496.6 1.93 1.04.433.44.65 1.02.65 1.74 0 .92-.347 1.65-1.04 2.19-.694.54-1.64.81-2.84.81-1.294 0-2.367-.213-3.22-.64l.52-1.76c.386.187.796.34 1.23.46.433.12.883.18 1.35.18 1.106 0 1.66-.353 1.66-1.06 0-.32-.13-.557-.39-.71-.26-.153-.704-.33-1.33-.53l-.62-.2c-.827-.267-1.437-.617-1.83-1.05-.394-.433-.59-1.003-.59-1.71 0-.413.086-.797.26-1.15.173-.353.416-.657.73-.91.313-.253.693-.45 1.14-.59.446-.14.943-.21 1.49-.21.546 0 1.076.05 1.59.15.513.1.99.25 1.43.45l-.5 1.7zm8.206-.4h-2.62v4.76c0 .453.11.763.33.93.22.167.503.25.85.25.267 0 .547-.027.84-.08.293-.053.54-.127.74-.22l.36 1.68c-.253.107-.597.21-1.03.31-.433.1-.897.15-1.39.15-1.08 0-1.857-.22-2.33-.66-.473-.44-.71-1.1-.71-1.98v-5.14h-1.44V22.1h1.44v-2.96h2.34v2.96h2.62v1.72zm2.167 7.78v-9.5h2.36v9.5h-2.36zm1.18-11.68c-.414 0-.737-.12-.97-.36-.234-.24-.35-.54-.35-.9 0-.347.12-.643.36-.89s.56-.37.96-.37c.386 0 .7.12.94.36s.36.54.36.9-.12.66-.36.9-.554.36-.94.36zm6.146 11.68h-2.36v-9.5h1.84l.3 1.26c.453-.453.94-.807 1.46-1.06s1.1-.38 1.74-.38c1.026 0 1.82.283 2.38.85.56.567.84 1.37.84 2.41v6.42h-2.36v-6.14c0-.507-.13-.917-.39-1.23-.26-.313-.65-.47-1.17-.47-.387 0-.78.103-1.18.31-.4.207-.767.483-1.1.83v6.7zm8.366-6.28c0-.52.1-.99.3-1.41.2-.42.48-.777.84-1.07.36-.293.783-.52 1.27-.68.487-.16 1.023-.24 1.61-.24.213 0 .44.017.68.05.24.033.467.077.68.13h4.06v1.56h-.76l-1.36-.2c.187.24.343.523.47.85.127.327.19.663.19 1.01 0 .507-.093.967-.28 1.38-.187.413-.457.767-.81 1.06-.353.293-.773.517-1.26.67-.487.153-1.03.23-1.63.23-.373 0-.693-.027-.96-.08-.4.173-.6.427-.6.76 0 .453.353.68 1.06.68h2.24c1.04 0 1.867.23 2.48.69.613.46.92 1.163.92 2.11 0 .52-.12.993-.36 1.42-.24.427-.583.793-1.03 1.1-.447.307-.983.543-1.61.71-.627.167-1.327.25-2.1.25-1.427 0-2.553-.25-3.38-.75s-1.24-1.23-1.24-2.19c0-.467.15-.863.45-1.19.3-.327.703-.577 1.21-.75-.213-.147-.403-.337-.57-.57-.167-.233-.25-.537-.25-.91 0-.427.13-.797.39-1.11.26-.313.603-.563 1.03-.75-.44-.227-.83-.563-1.17-1.01-.34-.447-.51-1.03-.51-1.75zm2.42 6.5c-.253.107-.453.26-.6.46-.147.2-.22.447-.22.74 0 .467.197.83.59 1.09.393.26 1.037.39 1.93.39.48 0 .89-.043 1.23-.13.34-.087.62-.203.84-.35.22-.147.38-.313.48-.5.1-.187.15-.38.15-.58 0-.427-.147-.72-.44-.88-.293-.16-.713-.24-1.26-.24h-2.7zm3.22-6.5c0-.6-.153-1.043-.46-1.33-.307-.287-.7-.43-1.18-.43-.493 0-.893.147-1.2.44-.307.293-.46.72-.46 1.28 0 .587.157 1.02.47 1.3.313.28.71.42 1.19.42.493 0 .89-.14 1.19-.42.3-.28.45-.7.45-1.26z"/><g transform="translate(16.914 12.8)"><use fill="#E9ECEF" xlink:href="#b"/><circle cx="13" cy="13" r="12.5" stroke="#CED4DA"/></g><path fill="#D9480F" d="M26.81 23.595v.037h2.05v-.044c0-.974.704-1.648 1.73-1.648.967 0 1.655.6 1.655 1.45 0 .69-.374 1.238-1.86 2.688l-3.45 3.377V31h7.624v-1.838h-4.63v-.132l2.022-1.926c1.83-1.722 2.454-2.71 2.454-3.86 0-1.817-1.538-3.084-3.743-3.084-2.285 0-3.853 1.392-3.853 3.435z"/></g></svg>