<svg xmlns="http://www.w3.org/2000/svg" xmlns:xlink="http://www.w3.org/1999/xlink" width="187" height="52" viewBox="0 0 187 52"><defs><linearGradient id="a" x1="50%" x2="50%" y1="0%" y2="100%"><stop offset="0%" stop-color="#FFF"/><stop offset="100%" stop-color="#F1F1F1"/></linearGradient><circle id="b" cx="13" cy="13" r="13"/></defs><g fill="none" fill-rule="evenodd"><path fill="url(#a)" stroke="#C1C1C1" d="M0 0h185v50H0z" transform="translate(1 1)"/><path fill="#4A4A4A" d="M68.9 20v12.6h-2.44V20h2.44zm8.747-1.64h2.36V32.6h-1.76l-.26-1.04h-.08c-.307.36-.68.657-1.12.89-.44.233-1.007.35-1.7.35-.56 0-1.094-.107-1.6-.32-.507-.213-.95-.53-1.33-.95-.38-.42-.68-.937-.9-1.55-.22-.613-.33-1.32-.33-2.12 0-.747.096-1.423.29-2.03.193-.607.476-1.127.85-1.56.373-.433.83-.767 1.37-1 .54-.233 1.15-.35 1.83-.35.466 0 .91.07 1.33.21.42.14.77.337 1.05.59v-5.36zm0 7.18c-.227-.267-.494-.48-.8-.64-.307-.16-.647-.24-1.02-.24-.334 0-.65.057-.95.17-.3.113-.567.297-.8.55-.234.253-.42.58-.56.98-.14.4-.21.88-.21 1.44 0 .56.063 1.047.19 1.46.126.413.296.75.51 1.01.213.26.463.453.75.58.286.127.59.19.91.19.44 0 .826-.103 1.16-.31.333-.207.606-.477.82-.81v-4.38zm13.086 2.84h-6.46v.08c0 .867.27 1.513.81 1.94.54.427 1.25.64 2.13.64.52 0 .984-.047 1.39-.14.407-.093.797-.22 1.17-.38l.46 1.66c-.386.173-.846.32-1.38.44-.533.12-1.153.18-1.86.18-.706 0-1.37-.093-1.99-.28-.62-.187-1.163-.48-1.63-.88-.466-.4-.836-.907-1.11-1.52-.273-.613-.41-1.347-.41-2.2 0-.747.114-1.427.34-2.04.227-.613.547-1.14.96-1.58.414-.44.914-.78 1.5-1.02.587-.24 1.234-.36 1.94-.36 1.267 0 2.274.387 3.02 1.16.747.773 1.12 1.847 1.12 3.22v1.08zm-2.42-1.64c0-.28-.033-.55-.1-.81-.066-.26-.173-.49-.32-.69-.146-.2-.336-.357-.57-.47-.233-.113-.51-.17-.83-.17-.6 0-1.093.2-1.48.6-.386.4-.62.927-.7 1.58l4-.04zm4.387-2.8c.587-.32 1.18-.57 1.78-.75.6-.18 1.26-.27 1.98-.27.56 0 1.067.063 1.52.19.453.127.847.33 1.18.61.333.28.59.643.77 1.09.18.447.27.99.27 1.63v6.16h-1.86l-.24-1h-.06c-.68.8-1.647 1.2-2.9 1.2-1 0-1.78-.263-2.34-.79-.56-.527-.84-1.21-.84-2.05 0-.533.113-.993.34-1.38.227-.387.537-.707.93-.96s.863-.443 1.41-.57c.547-.127 1.14-.19 1.78-.19h1.4v-.66c0-.52-.153-.89-.46-1.11-.307-.22-.72-.33-1.24-.33-.373 0-.77.06-1.19.18-.42.12-.883.327-1.39.62l-.84-1.62zm5.14 4.42l-1.08.04c-.88.027-1.493.177-1.84.45s-.52.603-.52.99c0 .493.147.827.44 1 .293.173.633.26 1.02.26s.757-.097 1.11-.29c.353-.193.643-.463.87-.81v-1.64zm10.227-3.54h-2.62v4.76c0 .453.11.763.33.93.22.167.503.25.85.25.266 0 .546-.027.84-.08.293-.053.54-.127.74-.22l.36 1.68c-.254.107-.597.21-1.03.31-.434.1-.897.15-1.39.15-1.08 0-1.857-.22-2.33-.66-.474-.44-.71-1.1-.71-1.98v-5.14h-1.44V23.1h1.44v-2.96h2.34v2.96h2.62v1.72zm2.166 7.78v-9.5h2.36v9.5h-2.36zm1.18-11.68c-.413 0-.736-.12-.97-.36-.233-.24-.35-.54-.35-.9 0-.347.12-.643.36-.89s.56-.37.96-.37c.387 0 .7.12.94.36s.36.54.36.9-.12.66-.36.9-.553.36-.94.36zm12.847 6.86c0 .787-.123 1.493-.37 2.12s-.59 1.153-1.03 1.58c-.44.427-.953.753-1.54.98-.587.227-1.22.34-1.9.34-.68 0-1.31-.107-1.89-.32-.58-.213-1.083-.523-1.51-.93-.427-.407-.76-.91-1-1.51s-.36-1.287-.36-2.06c0-.8.123-1.517.37-2.15s.59-1.163 1.03-1.59c.44-.427.953-.753 1.54-.98.587-.227 1.22-.34 1.9-.34.68 0 1.31.103 1.89.31.58.207 1.083.517 1.51.93.427.413.76.92 1 1.52s.36 1.3.36 2.1zm-2.44.1c0-.573-.067-1.063-.2-1.47-.133-.407-.31-.737-.53-.99-.22-.253-.473-.44-.76-.56-.287-.12-.583-.18-.89-.18-.307 0-.6.05-.88.15-.28.1-.527.273-.74.52-.213.247-.387.577-.52.99-.133.413-.2.927-.2 1.54 0 .56.067 1.037.2 1.43s.31.72.53.98c.22.26.473.45.76.57.287.12.583.18.89.18.293 0 .583-.053.87-.16.287-.107.537-.28.75-.52.213-.24.387-.563.52-.97.133-.407.2-.91.2-1.51zm6.647 4.72h-2.36v-9.5h1.84l.3 1.26c.453-.453.94-.807 1.46-1.06s1.1-.38 1.74-.38c1.026 0 1.82.283 2.38.85.56.567.84 1.37.84 2.41v6.42h-2.36v-6.14c0-.507-.13-.917-.39-1.23-.26-.313-.65-.47-1.17-.47-.387 0-.78.103-1.18.31-.4.207-.767.483-1.1.83v6.7z"/><g transform="translate(31 13.8)"><use fill="#E9ECEF" xlink:href="#b"/><circle cx="13" cy="13" r="12.5" stroke="#CED4DA"/><path fill="#D9480F" d="M12.827 18h2.212V7.43h-2.206l-2.732 1.883v2.06l2.593-1.79h.132"/></g></g></svg>