<?xml version="1.0" encoding="UTF-8" standalone="no"?>
<svg width="187px" height="52px" viewBox="0 0 187 52" version="1.1" xmlns="http://www.w3.org/2000/svg" xmlns:xlink="http://www.w3.org/1999/xlink">
    <!-- Generator: Sketch 46.2 (44496) - http://www.bohemiancoding.com/sketch -->
    <title>thumb-0</title>
    <desc>Created with Sketch.</desc>
    <defs>
        <linearGradient x1="50%" y1="0%" x2="50%" y2="100%" id="linearGradient-1">
            <stop stop-color="#FFFFFF" offset="0%"></stop>
            <stop stop-color="#F1F1F1" offset="100%"></stop>
        </linearGradient>
    </defs>
    <g id="2.-AktivLearn" stroke="none" stroke-width="1" fill="none" fill-rule="evenodd">
        <g id="thumb-0" transform="translate(1.000000, 1.000000)">
            <polygon id="Rectangle-8" stroke="#C1C1C1" fill="url(#linearGradient-1)" points="0 5.68434189e-14 185 5.68434189e-14 185 50 0.336033472 50"></polygon>
            <g id="Group-6" transform="translate(11.000000, 8.000000)">
                <text id="Final-Solution" font-family="MuktaMalar-SemiBold, Mukta Malar" font-size="20" font-weight="500" letter-spacing="-0.13333334" fill="#4A4A4A">
                    <tspan x="31" y="23.6000004">Final Solution</tspan>
                </text>
                <g id="1f31f" transform="translate(0.000000, 6.000000)" fill-rule="nonzero">
                    <polygon id="Shape" fill="#FFCE31" points="24.9991803 8.4048 15.6061475 8.4048 12.7040984 0 9.80204918 8.4048 0.409016393 8.4048 8.00778689 13.6 5.10532787 22.004 12.7040984 16.8096 20.3028689 22.004 17.4004098 13.6"></polygon>
                    <g id="Group" transform="translate(0.409836, 2.400000)" fill="#FFDF85">
                        <path d="M18.1278689,4.9376 L19.7364754,0.3428 L15.4586066,3.2272 L16.057377,4.9376 L18.1278689,4.9376 Z M10.6184426,16.8136 L12.2938525,21.6 L13.970082,16.8136 L12.2938525,15.684 L10.6184426,16.8136 Z M19.95,10.5228 L18.3827869,11.5792 L19.0479508,13.4804 L24.3364754,13.4804 L19.95,10.5228 Z M9.12909836,3.2272 L4.85163934,0.3428 L6.46065574,4.9376 L8.53114754,4.9376 L9.12909836,3.2272 Z M4.63852459,10.5228 L0.251639344,13.4804 L5.54016393,13.4804 L6.20614754,11.5792 L4.63852459,10.5228 Z" id="Shape"></path>
                    </g>
                </g>
            </g>
        </g>
    </g>
</svg>