<?xml version="1.0" encoding="UTF-8" standalone="no"?>
<svg width="187px" height="52px" viewBox="0 0 187 52" version="1.1" xmlns="http://www.w3.org/2000/svg" xmlns:xlink="http://www.w3.org/1999/xlink">
    <!-- Generator: Sketch 46.2 (44496) - http://www.bohemiancoding.com/sketch -->
    <title>thumb-3</title>
    <desc>Created with Sketch.</desc>
    <defs>
        <linearGradient x1="50%" y1="0%" x2="50%" y2="100%" id="linearGradient-1">
            <stop stop-color="#FFFFFF" offset="0%"></stop>
            <stop stop-color="#F1F1F1" offset="100%"></stop>
        </linearGradient>
        <circle id="path-2" cx="13" cy="13" r="13"></circle>
    </defs>
    <g id="2.-AktivLearn" stroke="none" stroke-width="1" fill="none" fill-rule="evenodd">
        <g id="thumb-3" transform="translate(1.000000, 1.000000)">
            <polygon id="Rectangle-8" stroke="#C1C1C1" fill="url(#linearGradient-1)" points="0 5.68434189e-14 185 5.68434189e-14 185 50 0 50"></polygon>
            <g id="Group-6" transform="translate(16.000000, 11.000000)">
                <text id="Refinement" font-family="MuktaMalar-SemiBold, Mukta Malar" font-size="20" font-weight="500" letter-spacing="-0.13333334" fill="#4A4A4A">
                    <tspan x="32" y="20.6000004">Refinement</tspan>
                </text>
                <g id="num" transform="translate(0.000000, 0.800000)">
                    <g id="Oval-5">
                        <use fill="#E9ECEF" fill-rule="evenodd" xlink:href="#path-2"></use>
                        <circle stroke="#CED4DA" stroke-width="1" cx="13" cy="13" r="12.5"></circle>
                    </g>
                </g>
            </g>
            <path d="M27.6474609,25.4150391 L28.9584961,25.4150391 C30.1450195,25.4150391 30.8701172,25.9863281 30.8701172,26.9091797 C30.8701172,27.8100586 30.1010742,28.4326172 28.9951172,28.4326172 C27.8598633,28.4326172 27.1054688,27.8686523 27.0395508,26.9750977 L24.9228516,26.9750977 C25.0180664,28.9672852 26.6147461,30.2709961 28.9731445,30.2709961 C31.3828125,30.2709961 33.1259766,28.9306641 33.1259766,27.0776367 C33.1259766,25.6860352 32.2177734,24.7192383 30.7675781,24.5581055 L30.7675781,24.4262695 C31.9467773,24.1845703 32.7158203,23.2324219 32.7158203,22.0092773 C32.7158203,20.3466797 31.1557617,19.1601562 28.987793,19.1601562 C26.6806641,19.1601562 25.1938477,20.4199219 25.1206055,22.4194336 L27.1640625,22.4194336 C27.2226562,21.5039062 27.9038086,20.925293 28.9291992,20.925293 C29.9619141,20.925293 30.6210938,21.4672852 30.6210938,22.3168945 C30.6210938,23.1811523 29.9399414,23.7670898 28.9365234,23.7670898 L27.6474609,23.7670898 L27.6474609,25.4150391 Z" id="3" fill="#D9480F"></path>
        </g>
    </g>
</svg>