<svg xmlns="http://www.w3.org/2000/svg" width="187" height="52" viewBox="0 0 187 52"><defs><linearGradient id="a" x1="50%" x2="50%" y1="0%" y2="100%"><stop offset="0%" stop-color="#FFF"/><stop offset="100%" stop-color="#F1F1F1"/></linearGradient></defs><g fill="none" fill-rule="evenodd"><path fill="url(#a)" stroke="#C1C1C1" d="M0 0h185v50H.336z" transform="translate(1 1)"/><path fill="#4A4A4A" d="M52.26 20v1.92H46.9v3.58h4.92v1.9H46.9v5.2h-2.44V20h7.8zm1.647 12.6v-9.5h2.36v9.5h-2.36zm1.18-11.68c-.414 0-.737-.12-.97-.36-.234-.24-.35-.54-.35-.9 0-.347.12-.643.36-.89s.56-.37.96-.37c.386 0 .7.12.94.36s.36.54.36.9-.12.66-.36.9-.554.36-.94.36zm6.146 11.68h-2.36v-9.5h1.84l.3 1.26c.454-.453.94-.807 1.46-1.06s1.1-.38 1.74-.38c1.027 0 1.82.283 2.38.85.56.567.84 1.37.84 2.41v6.42h-2.36v-6.14c0-.507-.13-.917-.39-1.23-.26-.313-.65-.47-1.17-.47-.386 0-.78.103-1.18.31-.4.207-.766.483-1.1.83v6.7zm8.627-8.66c.587-.32 1.18-.57 1.78-.75.6-.18 1.26-.27 1.98-.27.56 0 1.067.063 1.52.19.453.127.847.33 1.18.61.333.28.59.643.77 1.09.18.447.27.99.27 1.63v6.16H75.5l-.24-1h-.06c-.68.8-1.647 1.2-2.9 1.2-1 0-1.78-.263-2.34-.79-.56-.527-.84-1.21-.84-2.05 0-.533.113-.993.34-1.38.227-.387.537-.707.93-.96s.863-.443 1.41-.57c.547-.127 1.14-.19 1.78-.19h1.4v-.66c0-.52-.153-.89-.46-1.11-.307-.22-.72-.33-1.24-.33-.373 0-.77.06-1.19.18-.42.12-.883.327-1.39.62l-.84-1.62zM75 28.36l-1.08.04c-.88.027-1.493.177-1.84.45s-.52.603-.52.99c0 .493.147.827.44 1 .293.173.633.26 1.02.26s.757-.097 1.11-.29c.353-.193.643-.463.87-.81v-1.64zm4.847 4.24V18.36h2.32V32.6h-2.32zM94.3 19.8c.747 0 1.423.07 2.03.21.607.14 1.163.337 1.67.59l-.56 1.88c-.547-.267-1.067-.467-1.56-.6-.493-.133-.98-.2-1.46-.2-.68 0-1.21.14-1.59.42-.38.28-.57.66-.57 1.14 0 .467.157.823.47 1.07.313.247.817.483 1.51.71l1.22.4c1.04.347 1.833.827 2.38 1.44.547.613.82 1.34.82 2.18 0 .547-.107 1.047-.32 1.5-.213.453-.52.85-.92 1.19-.4.34-.89.603-1.47.79-.58.187-1.237.28-1.97.28-.72 0-1.42-.07-2.1-.21-.68-.14-1.333-.363-1.96-.67l.56-1.86c.573.28 1.133.493 1.68.64.547.147 1.12.22 1.72.22.72 0 1.283-.14 1.69-.42.407-.28.61-.687.61-1.22 0-.187-.033-.363-.1-.53-.067-.167-.183-.327-.35-.48-.167-.153-.397-.303-.69-.45-.293-.147-.66-.293-1.1-.44L92.82 27c-.92-.32-1.657-.743-2.21-1.27-.553-.527-.83-1.27-.83-2.23 0-1.107.387-2 1.16-2.68.773-.68 1.893-1.02 3.36-1.02zm15.347 7.98c0 .787-.124 1.493-.37 2.12-.247.627-.59 1.153-1.03 1.58-.44.427-.954.753-1.54.98-.587.227-1.22.34-1.9.34-.68 0-1.31-.107-1.89-.32-.58-.213-1.084-.523-1.51-.93-.427-.407-.76-.91-1-1.51s-.36-1.287-.36-2.06c0-.8.123-1.517.37-2.15.246-.633.59-1.163 1.03-1.59.44-.427.953-.753 1.54-.98.586-.227 1.22-.34 1.9-.34.68 0 1.31.103 1.89.31.58.207 1.083.517 1.51.93.426.413.76.92 1 1.52s.36 1.3.36 2.1zm-2.44.1c0-.573-.067-1.063-.2-1.47-.134-.407-.31-.737-.53-.99-.22-.253-.474-.44-.76-.56-.287-.12-.584-.18-.89-.18-.307 0-.6.05-.88.15-.28.1-.527.273-.74.52-.214.247-.387.577-.52.99-.134.413-.2.927-.2 1.54 0 .56.066 1.037.2 1.43.133.393.31.72.53.98.22.26.473.45.76.57.286.12.583.18.89.18.293 0 .583-.053.87-.16.286-.107.536-.28.75-.52.213-.24.386-.563.52-.97.133-.407.2-.91.2-1.51zm4.346 4.72V18.36h2.32V32.6h-2.32zm10.987-9.5h2.36v9.5h-1.78l-.28-1.1h-.08c-.307.32-.713.617-1.22.89s-1.14.41-1.9.41c-1 0-1.8-.28-2.4-.84-.6-.56-.9-1.4-.9-2.52V23.1h2.36v6.1c0 .653.15 1.117.45 1.39.3.273.683.41 1.15.41.493 0 .923-.103 1.29-.31.367-.207.683-.463.95-.77V23.1zm10.187 1.72h-2.62v4.76c0 .453.11.763.33.93.22.167.503.25.85.25.266 0 .546-.027.84-.08.293-.053.54-.127.74-.22l.36 1.68c-.254.107-.597.21-1.03.31-.434.1-.897.15-1.39.15-1.08 0-1.857-.22-2.33-.66-.474-.44-.71-1.1-.71-1.98v-5.14h-1.44V23.1h1.44v-2.96h2.34v2.96h2.62v1.72zm2.166 7.78v-9.5h2.36v9.5h-2.36zm1.18-11.68c-.413 0-.736-.12-.97-.36-.233-.24-.35-.54-.35-.9 0-.347.12-.643.36-.89s.56-.37.96-.37c.387 0 .7.12.94.36s.36.54.36.9-.12.66-.36.9-.553.36-.94.36zm12.847 6.86c0 .787-.123 1.493-.37 2.12s-.59 1.153-1.03 1.58c-.44.427-.953.753-1.54.98-.587.227-1.22.34-1.9.34-.68 0-1.31-.107-1.89-.32-.58-.213-1.083-.523-1.51-.93-.427-.407-.76-.91-1-1.51s-.36-1.287-.36-2.06c0-.8.123-1.517.37-2.15s.59-1.163 1.03-1.59c.44-.427.953-.753 1.54-.98.587-.227 1.22-.34 1.9-.34.68 0 1.31.103 1.89.31.58.207 1.083.517 1.51.93.427.413.76.92 1 1.52s.36 1.3.36 2.1zm-2.44.1c0-.573-.067-1.063-.2-1.47-.133-.407-.31-.737-.53-.99-.22-.253-.473-.44-.76-.56-.287-.12-.583-.18-.89-.18-.307 0-.6.05-.88.15-.28.1-.527.273-.74.52-.213.247-.387.577-.52.99-.133.413-.2.927-.2 1.54 0 .56.067 1.037.2 1.43s.31.72.53.98c.22.26.473.45.76.57.287.12.583.18.89.18.293 0 .583-.053.87-.16.287-.107.537-.28.75-.52.213-.24.387-.563.52-.97.133-.407.2-.91.2-1.51zm6.647 4.72h-2.36v-9.5h1.84l.3 1.26c.453-.453.94-.807 1.46-1.06s1.1-.38 1.74-.38c1.026 0 1.82.283 2.38.85.56.567.84 1.37.84 2.41v6.42h-2.36v-6.14c0-.507-.13-.917-.39-1.23-.26-.313-.65-.47-1.17-.47-.387 0-.78.103-1.18.31-.4.207-.767.483-1.1.83v6.7z"/><g fill-rule="nonzero"><path fill="#FFCE31" d="M37 23.405h-9.394L24.704 15l-2.902 8.405H12.41l7.598 5.195-2.903 8.404 7.6-5.194 7.598 5.194L29.4 28.6"/><path fill="#FFDF85" d="M30.538 22.338l1.608-4.595-4.277 2.884.597 1.71h2.07zm-7.51 11.876L24.704 39l1.676-4.786-1.676-1.13-1.676 1.13zm9.332-6.29l-1.567 1.055.665 1.9h5.288l-4.386-2.957zm-10.82-7.297l-4.278-2.884 1.61 4.595h2.07l.597-1.71zm-4.49 7.296L12.66 30.88h5.288l.666-1.9-1.567-1.057z"/></g></g></svg>